<svg xmlns="http://www.w3.org/2000/svg" width="294" height="82" viewBox="0 0 294 82">
  <defs>
    <filter id="logo_lightbg-a">
      <feColorMatrix in="SourceGraphic" values="0 0 0 0 0.007843 0 0 0 0 0.105882 0 0 0 0 0.474510 0 0 0 1.000000 0"/>
    </filter>
    <linearGradient id="logo_lightbg-b" x1=".628%" x2="101.347%" y1="28.011%" y2="101%">
      <stop offset="0%" stop-color="#0575E6"/>
      <stop offset="100%" stop-color="#021B79"/>
    </linearGradient>
  </defs>
  <g fill="none" fill-rule="evenodd">
    <g filter="url(#logo_lightbg-a)">
      <g transform="translate(98.527)">
        <polygon fill="#000" fill-rule="nonzero" points="57.314 0 57.314 17.275 46.056 5.946 46.056 0"/>
        <path fill="#000" fill-rule="nonzero" d="M57.3139074,17.2751329 L57.3139074,52.5247603 L46.0563056,52.5247603 L46.0564248,17.2751329 L57.3139074,17.2751329 Z M46.0563056,11.6105315 L57.3139074,17.2751329 L46.0563056,17.2747482 L46.0563056,11.6105315 Z"/>
        <path fill="#08004B" fill-rule="nonzero" d="M20.4070331,52.9588262 C30.5680075,52.9588262 38.682167,47.882904 38.682167,36.2597778 L38.682167,16.2503453 C38.682167,5.36285997 30.5680075,0.507630024 20.3339325,0.507630024 L0.523687257,0.507630024 L0.523687257,52.9588262 L20.4070331,52.9588262 Z M19.1643239,43.1748023 L12.6583762,43.1748023 L12.6583762,10.291654 L19.0181228,10.291654 C23.9158587,10.291654 26.4743775,13.3077817 26.4743775,17.5009348 L26.4743775,35.8919573 C26.4743775,39.4230337 24.354462,43.1748023 19.1643239,43.1748023 Z M73.6973237,52.9588262 L76.6213452,41.7035204 L92.4110605,41.7035204 L95.4081828,52.9588262 L107.762174,52.9588262 L92.7765633,0.434065934 L77.7178532,0.434065934 L62.5129418,52.9588262 L73.6973237,52.9588262 Z M89.9256423,32.4344451 L79.1798639,32.4344451 L84.4431025,12.2778844 L84.6624042,12.2778844 L89.9256423,32.4344451 Z M121.724376,52.9588262 L130.130938,35.2298805 L138.756801,52.9588262 L151.622495,52.9588262 L137.952695,25.9608052 L150.672188,0.507630024 L138.756801,0.507630024 L131.373646,16.838858 L123.844292,0.507630024 L110.759295,0.507630024 L123.405689,26.0343693 L109.808988,52.9588262 L121.724376,52.9588262 Z"/>
      </g>
    </g>
    <polygon fill="url(#logo_lightbg-b)" fill-rule="nonzero" points="51.899 26.114 25.949 26.114 25.949 52.228 77.848 78.342 0 78.342 0 0 77.848 0 77.848 78.342 51.899 52.228"/>
    <path fill="#021B79" fill-rule="nonzero" d="M103.22407,78.8639381 C105.471276,78.8639381 107.144008,77.7024336 107.144008,75.2798673 L107.144008,70.4181416 C107.144008,68.0951327 105.45438,67.0331858 103.22407,67.0331858 L99,67.0331858 L99,78.8639381 L103.22407,78.8639381 Z M103.004419,77.2710177 L100.993762,77.2710177 L100.993762,68.6261062 L103.004419,68.6261062 C104.457499,68.6261062 105.13335,69.5055309 105.13335,70.6504424 L105.13335,75.2300885 C105.13335,76.1924779 104.525085,77.2710177 103.004419,77.2710177 Z M111.013257,69.090708 L111.013257,67.0331858 L109.171562,67.0331858 L109.171562,69.090708 L111.013257,69.090708 Z M111.013257,78.8639381 L111.013257,70.2522123 L109.171562,70.2522123 L109.171562,78.8639381 L111.013257,78.8639381 Z M116.18352,81.9834071 C118.464518,81.9834071 119.748635,80.7389381 119.748635,78.5320796 L119.748635,70.2356195 L118.177281,70.2356195 L118.109696,71.4303097 L118.0928,71.4303097 C117.670392,70.5176991 116.639719,70.0365044 115.761112,70.0365044 C114.291136,70.0365044 112.973226,71.0320796 112.973226,72.6913717 L112.973226,76.0597345 C112.973226,77.5199115 113.851832,78.5818584 115.541461,78.5818584 C116.420067,78.5818584 117.383156,78.1172567 117.890044,77.0719027 L117.90694,77.0719027 L117.90694,78.8971239 C117.90694,80.0420354 117.247985,80.5066372 116.031453,80.5066372 C115.203535,80.5066372 114.324928,80.2411505 113.598388,79.909292 L113.040811,81.3528761 C113.868729,81.7842921 115.051469,81.9834071 116.18352,81.9834071 Z M116.132831,77.221239 C115.152846,77.221239 114.814921,76.5741151 114.814921,75.7610619 L114.814921,72.9734513 C114.814921,71.9280973 115.237328,71.3473451 116.166623,71.3473451 C116.926956,71.3473451 117.890044,72.0940265 117.890044,73.255531 L117.890044,74.9977876 C117.890044,76.2588495 116.994541,77.221239 116.132831,77.221239 Z M123.769951,69.090708 L123.769951,67.0331858 L121.928256,67.0331858 L121.928256,69.090708 L123.769951,69.090708 Z M123.769951,78.8639381 L123.769951,70.2522123 L121.928256,70.2522123 L121.928256,78.8639381 L123.769951,78.8639381 Z M128.855732,79.0132743 C129.36262,79.0132743 129.920197,78.9303097 130.494671,78.7311947 L130.494671,77.2710177 C130.190538,77.3539823 129.869509,77.420354 129.531583,77.420354 C128.838836,77.420354 128.568494,77.1216814 128.568494,76.5575221 L128.568494,71.778761 L130.68053,71.778761 L130.68053,70.335177 L128.568494,70.335177 L128.568494,68.0287611 L126.709904,68.0287611 L126.709904,70.335177 L125.40889,70.335177 L125.40889,71.778761 L126.709904,71.778761 L126.709904,77.1216814 C126.709904,78.6316372 127.808162,79.0132743 128.855732,79.0132743 Z M134.211853,79.0464602 C134.921498,79.0464602 136.104237,78.7975664 136.67871,77.6360619 L136.746296,77.6360619 C136.780088,78.2665929 136.813881,78.6980089 136.813881,78.8639381 L138.520405,78.8639381 C138.503509,78.5154867 138.435924,77.5033185 138.435924,76.7732301 L138.435924,72.5918141 C138.435924,70.8329646 136.99974,70.0530973 135.293216,70.0530973 C133.468417,70.0530973 131.99844,70.8993362 131.99844,72.4424778 L131.99844,72.9568584 L133.671173,72.9568584 L133.671173,72.5254425 C133.671173,71.7953539 134.262542,71.3473451 135.124252,71.3473451 C136.019755,71.3473451 136.560437,71.7621682 136.560437,72.5752212 L136.560437,73.7533186 L135.293216,73.7533186 C133.738757,73.7533186 131.744996,74.5 131.744996,76.5741151 C131.744996,78.25 132.893944,79.0464602 134.211853,79.0464602 Z M134.95529,77.6858407 C134.211853,77.6858407 133.620483,77.2544247 133.620483,76.3086283 C133.620483,75.2134955 134.549779,74.931416 135.445282,74.931416 L136.560437,74.931416 L136.560437,75.9269912 C136.560437,76.9225664 135.833897,77.6858407 134.95529,77.6858407 Z M142.609306,78.9966815 C143.048609,78.9966815 143.487912,78.9303097 143.927216,78.7809734 L143.927216,77.403761 C143.72446,77.4369469 143.45412,77.4701328 143.26826,77.4701328 C142.592409,77.4701328 142.389655,77.1216814 142.389655,76.6570796 L142.389655,67.0331858 L140.531063,67.0331858 L140.531063,77.0719027 C140.531063,78.3163717 141.308292,78.9966815 142.609306,78.9966815 Z M149.621264,78.8639381 L150.516766,75.6946903 L154.386015,75.6946903 L155.281518,78.8639381 L157.275279,78.8639381 L153.72706,67 L151.36158,67 L147.779568,78.8639381 L149.621264,78.8639381 Z M153.946712,74.1847345 L150.939173,74.1847345 L152.442942,68.9413717 L152.476735,68.9413717 L153.946712,74.1847345 Z M161.668313,79.0630531 C163.594489,79.0630531 164.86171,78.0176991 164.86171,76.4745575 L164.86171,75.9269912 L163.155186,75.9269912 L163.155186,76.2588495 C163.155186,76.8230089 162.884845,77.6526548 161.786587,77.6526548 C160.671432,77.6526548 160.198336,76.988938 160.198336,76.0099557 L160.198336,73.1061947 C160.198336,72.1603982 160.63764,71.4800885 161.735898,71.4800885 C162.800364,71.4800885 163.155186,72.193584 163.155186,72.7909292 L163.155186,73.1725663 L164.86171,73.1725663 L164.86171,72.6747787 C164.86171,71.0818584 163.611385,70.0530973 161.668313,70.0530973 C159.860411,70.0530973 158.339746,71.1316372 158.339746,73.2389381 L158.339746,75.960177 C158.339746,78.0840708 159.775929,79.0630531 161.668313,79.0630531 Z M169.744736,79.0630531 C171.670912,79.0630531 172.938134,78.0176991 172.938134,76.4745575 L172.938134,75.9269912 L171.231609,75.9269912 L171.231609,76.2588495 C171.231609,76.8230089 170.961268,77.6526548 169.86301,77.6526548 C168.747856,77.6526548 168.274759,76.988938 168.274759,76.0099557 L168.274759,73.1061947 C168.274759,72.1603982 168.714062,71.4800885 169.812321,71.4800885 C170.876787,71.4800885 171.231609,72.193584 171.231609,72.7909292 L171.231609,73.1725663 L172.938134,73.1725663 L172.938134,72.6747787 C172.938134,71.0818584 171.687809,70.0530973 169.744736,70.0530973 C167.936834,70.0530973 166.416168,71.1316372 166.416168,73.2389381 L166.416168,75.960177 C166.416168,78.0840708 167.852353,79.0630531 169.744736,79.0630531 Z M177.956329,79.0630531 C179.003899,79.0630531 180.085261,78.8639381 180.946972,78.2334071 L180.456979,77.0055309 C179.966987,77.221239 179.189758,77.5696903 178.277359,77.5696903 C177.111516,77.5696903 176.351183,77.1050885 176.351183,75.8772124 L176.351183,75.0475664 L181.166623,75.0475664 L181.166623,73.2057522 C181.166623,71.2311947 179.882506,70.0530973 177.922537,70.0530973 C176.047049,70.0530973 174.492591,71.2643805 174.492591,73.5044248 L174.492591,75.8938053 C174.492591,78.1338495 175.996361,79.0630531 177.956329,79.0630531 Z M179.392514,73.7699115 L176.351183,73.7699115 L176.351183,73.0066372 C176.351183,72.1769911 176.841175,71.4137168 177.871848,71.4137168 C179.003899,71.4137168 179.392514,72.2267699 179.392514,73.0564159 L179.392514,73.7699115 Z M185.745516,79.0630531 C187.485833,79.0630531 188.989603,78.0674779 188.989603,76.4247788 C188.989603,75.2466814 188.195477,74.3174778 186.793085,73.8362832 L185.661034,73.454646 C184.917598,73.2057522 184.596569,72.9568584 184.596569,72.3595133 C184.596569,71.8119469 185.086561,71.4966814 185.846894,71.4966814 C186.488952,71.4966814 187.164804,71.778761 187.823758,72.2599558 L188.702365,71.0320796 C188.009618,70.3849557 186.962049,70.0530973 185.86379,70.0530973 C183.886925,70.0530973 182.923837,71.380531 182.923837,72.6084071 C182.923837,73.7533186 183.582792,74.6327434 184.985183,75.0641593 L185.829998,75.329646 C186.624123,75.5785398 187.249285,75.8440265 187.249285,76.590708 C187.249285,77.2378318 186.708604,77.6360619 185.779308,77.6360619 C184.917598,77.6360619 184.022095,77.1382743 183.396932,76.6073008 L182.416948,77.8185841 C183.194177,78.6482301 184.427606,79.0630531 185.745516,79.0630531 Z M193.213673,79.0630531 C194.95399,79.0630531 196.45776,78.0674779 196.45776,76.4247788 C196.45776,75.2466814 195.663634,74.3174778 194.261242,73.8362832 L193.129191,73.454646 C192.385755,73.2057522 192.064726,72.9568584 192.064726,72.3595133 C192.064726,71.8119469 192.554718,71.4966814 193.315051,71.4966814 C193.95711,71.4966814 194.632961,71.778761 195.291915,72.2599558 L196.170522,71.0320796 C195.477775,70.3849557 194.430206,70.0530973 193.331947,70.0530973 C191.355082,70.0530973 190.391994,71.380531 190.391994,72.6084071 C190.391994,73.7533186 191.050949,74.6327434 192.45334,75.0641593 L193.298155,75.329646 C194.09228,75.5785398 194.717442,75.8440265 194.717442,76.590708 C194.717442,77.2378318 194.176761,77.6360619 193.247465,77.6360619 C192.385755,77.6360619 191.490252,77.1382743 190.865089,76.6073008 L189.885105,77.8185841 C190.662334,78.6482301 191.895763,79.0630531 193.213673,79.0630531 Z M200.022875,69.090708 L200.022875,67.0331858 L198.18118,67.0331858 L198.18118,69.090708 L200.022875,69.090708 Z M200.022875,78.8639381 L200.022875,70.2522123 L198.18118,70.2522123 L198.18118,78.8639381 L200.022875,78.8639381 Z M206.308292,79.0630531 C207.845853,79.0630531 209.011698,77.8683628 209.011698,76.175885 L209.011698,72.7909292 C209.011698,71.3639381 208.268261,70.0365044 206.54484,70.0365044 C205.700026,70.0365044 204.618664,70.534292 204.128671,71.4966814 L204.077983,71.4966814 L204.077983,67.0331858 L202.236288,67.0331858 L202.236288,78.8639381 L203.858331,78.8639381 L203.90902,77.5696903 L203.942813,77.5696903 C204.331427,78.4988938 205.463478,79.0630531 206.308292,79.0630531 Z M205.885885,77.7522123 C204.990382,77.7522123 204.077983,76.8561947 204.077983,75.6780974 L204.077983,73.5707964 C204.077983,72.2599558 204.990382,71.4800885 205.784507,71.4800885 C206.68001,71.4800885 207.170002,71.8949115 207.170002,72.8738938 L207.170002,76.2256637 C207.170002,77.2378318 206.68001,77.7522123 205.885885,77.7522123 Z M212.830257,69.090708 L212.830257,67.0331858 L210.988562,67.0331858 L210.988562,69.090708 L212.830257,69.090708 Z M212.830257,78.8639381 L212.830257,70.2522123 L210.988562,70.2522123 L210.988562,78.8639381 L212.830257,78.8639381 Z M217.054328,78.9966815 C217.493632,78.9966815 217.932935,78.9303097 218.372238,78.7809734 L218.372238,77.403761 C218.169483,77.4369469 217.899142,77.4701328 217.713283,77.4701328 C217.037432,77.4701328 216.834676,77.1216814 216.834676,76.6570796 L216.834676,67.0331858 L214.976085,67.0331858 L214.976085,77.0719027 C214.976085,78.3163717 215.753314,78.9966815 217.054328,78.9966815 Z M221.751494,69.090708 L221.751494,67.0331858 L219.9098,67.0331858 L219.9098,69.090708 L221.751494,69.090708 Z M221.751494,78.8639381 L221.751494,70.2522123 L219.9098,70.2522123 L219.9098,78.8639381 L221.751494,78.8639381 Z M226.837275,79.0132743 C227.344164,79.0132743 227.901742,78.9303097 228.476215,78.7311947 L228.476215,77.2710177 C228.172082,77.3539823 227.851052,77.420354 227.513127,77.420354 C226.820379,77.420354 226.550039,77.1216814 226.550039,76.5575221 L226.550039,71.778761 L228.662074,71.778761 L228.662074,70.335177 L226.550039,70.335177 L226.550039,68.0287611 L224.691448,68.0287611 L224.691448,70.335177 L223.390434,70.335177 L223.390434,71.778761 L224.691448,71.778761 L224.691448,77.1216814 C224.691448,78.6316372 225.789706,79.0132743 226.837275,79.0132743 Z M231.331687,82 C232.446842,82 233.460619,81.4690265 234.0013,79.7267699 L237.025734,70.2522123 L235.353002,70.2522123 L233.5451,76.375 L233.528203,76.375 L231.652716,70.2522123 L229.709644,70.2522123 L232.565116,78.6814159 L232.277878,79.6603982 C232.058227,80.2909292 231.669613,80.4900443 231.128931,80.4900443 C230.824798,80.4900443 230.469976,80.4402655 230.148947,80.3738938 L230.148947,81.8672566 C230.503769,81.9502212 230.875487,82 231.331687,82 Z M248.734858,78.8639381 L248.734858,77.204646 L243.581492,77.204646 L243.581492,73.6205752 L247.670392,73.6205752 L247.670392,71.994469 L243.581492,71.994469 L243.581492,68.675885 L248.717962,68.675885 L248.717962,67.0331858 L241.587731,67.0331858 L241.587731,78.8639381 L248.734858,78.8639381 Z M251.59033,78.8639381 L253.36444,75.6283186 L255.138549,78.8639381 L257.098518,78.8639381 L254.580972,74.4004425 L257.014037,70.2522123 L255.223031,70.2522123 L253.651676,73.2057522 L252.029633,70.2522123 L250.052768,70.2522123 L252.435144,74.4336283 L249.782428,78.8639381 L251.59033,78.8639381 Z M260.258123,81.8340708 L260.258123,77.7522123 L260.291916,77.7522123 C260.663634,78.5984514 261.677411,79.0630531 262.488432,79.0630531 C264.144268,79.0630531 265.191837,77.7853982 265.191837,76.1261062 L265.191837,72.7577434 C265.191837,71.3141593 264.397712,70.0365044 262.708084,70.0365044 C261.846374,70.0365044 260.781908,70.5011062 260.207434,71.6128319 L260.173642,71.6128319 L260.173642,70.2522123 L258.416428,70.2522123 L258.416428,81.8340708 L260.258123,81.8340708 Z M262.066026,77.7522123 C261.187419,77.7522123 260.258123,76.8893805 260.258123,75.6117256 L260.258123,73.6537611 C260.258123,72.3263274 261.052249,71.4800885 261.964648,71.4800885 C263.012217,71.4800885 263.350143,72.0608407 263.350143,72.8904868 L263.350143,76.2422566 C263.350143,77.2710177 262.860151,77.7522123 262.066026,77.7522123 Z M270.378996,79.0630531 C271.426566,79.0630531 272.507928,78.8639381 273.369639,78.2334071 L272.879646,77.0055309 C272.389654,77.221239 271.612425,77.5696903 270.700026,77.5696903 C269.534183,77.5696903 268.77385,77.1050885 268.77385,75.8772124 L268.77385,75.0475664 L273.589291,75.0475664 L273.589291,73.2057522 C273.589291,71.2311947 272.305173,70.0530973 270.345204,70.0530973 C268.469716,70.0530973 266.915259,71.2643805 266.915259,73.5044248 L266.915259,75.8938053 C266.915259,78.1338495 268.419028,79.0630531 270.378996,79.0630531 Z M271.815181,73.7699115 L268.77385,73.7699115 L268.77385,73.0066372 C268.77385,72.1769911 269.263842,71.4137168 270.294515,71.4137168 C271.426566,71.4137168 271.815181,72.2267699 271.815181,73.0564159 L271.815181,73.7699115 Z M277.340265,78.8639381 L277.340265,73.6205752 C277.357161,72.193584 278.472316,71.7621682 279.384715,71.7621682 C279.536782,71.7621682 279.807123,71.7621682 280.178841,71.8119469 L280.178841,70.2190266 C279.976085,70.1692478 279.671952,70.1526548 279.486093,70.1526548 C278.489212,70.1526548 277.830257,70.5840708 277.27268,71.6792035 L277.255784,71.6792035 L277.255784,70.2522123 L275.49857,70.2522123 L275.49857,78.8639381 L277.340265,78.8639381 Z M284.757733,79.0132743 C285.264622,79.0132743 285.822199,78.9303097 286.396673,78.7311947 L286.396673,77.2710177 C286.092539,77.3539823 285.77151,77.420354 285.433584,77.420354 C284.740837,77.420354 284.470497,77.1216814 284.470497,76.5575221 L284.470497,71.778761 L286.582531,71.778761 L286.582531,70.335177 L284.470497,70.335177 L284.470497,68.0287611 L282.611905,68.0287611 L282.611905,70.335177 L281.310892,70.335177 L281.310892,71.778761 L282.611905,71.778761 L282.611905,77.1216814 C282.611905,78.6316372 283.710164,79.0132743 284.757733,79.0132743 Z M290.755913,79.0630531 C292.496231,79.0630531 294,78.0674779 294,76.4247788 C294,75.2466814 293.205875,74.3174778 291.803484,73.8362832 L290.671433,73.454646 C289.927996,73.2057522 289.606966,72.9568584 289.606966,72.3595133 C289.606966,71.8119469 290.096959,71.4966814 290.857291,71.4966814 C291.49935,71.4966814 292.175201,71.778761 292.834157,72.2599558 L293.712763,71.0320796 C293.020015,70.3849557 291.972446,70.0530973 290.874187,70.0530973 C288.897323,70.0530973 287.934234,71.380531 287.934234,72.6084071 C287.934234,73.7533186 288.593189,74.6327434 289.995581,75.0641593 L290.840395,75.329646 C291.63452,75.5785398 292.259683,75.8440265 292.259683,76.590708 C292.259683,77.2378318 291.719002,77.6360619 290.789707,77.6360619 C289.927996,77.6360619 289.032493,77.1382743 288.407331,76.6073008 L287.427346,77.8185841 C288.204575,78.6482301 289.438004,79.0630531 290.755913,79.0630531 Z"/>
  </g>
</svg>
