<svg xmlns="http://www.w3.org/2000/svg" width="108" height="101" viewBox="0 0 108 101">
  <defs>
    <linearGradient id="logo_anysurfer-a" x1="49.998%" x2="49.998%" y1="0%" y2="100%">
      <stop offset="0%" stop-color="#FFF"/>
      <stop offset="100%" stop-color="#FFF" stop-opacity=".5"/>
    </linearGradient>
  </defs>
  <g fill="none">
    <path fill="#1CBAC9" d="M91.7322,91.7322 C107.066147,76.3990871 111.625825,53.3254376 103.276807,33.3122375 C94.9277886,13.2990374 75.3221984,0.306547373 53.637592,0.415976045 C31.9529855,0.526793948 12.4803655,13.7177391 4.33504315,33.8147042 C-3.81027923,53.9116693 0.983512245,76.9378181 16.4724,92.1144 C16.4724,92.1144 29.9796,85.7766 31.2564,85.5036 C32.5332,85.2306 46.1496,85.5372 53.9112,85.5372 C59.073,85.5372 69.5142,84.651 77.0112,85.3776 L91.7322,91.7322 Z"/>
    <path fill="#FFF" d="M77.6076,86.7258 C91.834507,76.4435283 97.8121016,58.1629486 92.4085794,41.4616929 C87.0050572,24.7604373 71.4522319,13.445807 53.8986,13.445807 C36.3449681,13.445807 20.7921428,24.7604373 15.3886206,41.4616929 C9.98509836,58.1629486 15.962693,76.4435283 30.1896,86.7258 L54.2304,94.8108 L77.6076,86.7258 Z"/>
    <path fill="#FFB721" d="M83.9076,53.9112 C83.9076,66.0456922 76.5977338,76.9852652 65.3867623,81.6285419 C54.1757908,86.2718186 41.2716684,83.7043247 32.6918873,75.1233423 C24.1121063,66.54236 21.5464191,53.6378782 26.1912653,42.4275569 C30.8361116,31.2172356 41.7767079,23.9089012 53.9112,23.9105997 C70.4784336,23.9129194 83.9076,37.3439662 83.9076,53.9112 Z"/>
    <path fill="#FFF" d="M54.2304,94.4286 L54.201,94.4286 C49.7384675,94.2647058 45.4112039,92.8533253 41.7102,90.3546 C34.9015622,86.1800649 26.3206046,86.2028175 19.5342,90.4134 C18.858,90.8334 18.417,91.077 18.0894,91.2534 C17.5751941,91.5376063 17.082478,91.8590649 16.6152,92.2152 C16.0658189,92.513174 15.3810402,92.3633996 15.0062167,91.8632841 C14.6313933,91.3631686 14.6798191,90.6638766 15.12,90.2202 C15.6637917,89.8061054 16.2364467,89.4313532 16.8336,89.0988 C17.1528,88.914 17.577,88.6788 18.2364,88.2588 C31.2858,80.4006 42.6678,87.969 43.1466,88.2966 C46.4404838,90.486932 50.2701152,91.7358827 54.222,91.9086 C58.1605589,91.7373557 61.9779617,90.4958648 65.2638,88.3176 C65.394,88.2252 77.6706,79.6068 90.2706,88.3176 C91.041455,88.8757989 91.8420319,89.3917574 92.6688,89.8632 C93.1814334,90.2390533 93.3338286,90.9378909 93.0242206,91.49305 C92.7146127,92.048209 92.0399705,92.2858143 91.4508,92.0472 C90.5543475,91.534806 89.6864627,90.9739757 88.851,90.3672 C77.6832,82.6644 66.8388,90.279 66.7296,90.3672 C63.0333437,92.8654672 58.7098299,94.2755933 54.2514,94.437 L54.2304,94.4286 Z"/>
    <path fill="#999" d="M54.2304,100.1826 L54.18,100.1826 C49.3538613,100.000825 44.6755508,98.4685509 40.677,95.76 C40.257,95.4702 30.471,88.5696 20.664,95.76 C19.3279127,96.7400293 17.4503293,96.4513873 16.4703,95.1153 C15.4902707,93.7792127 15.7789127,91.9016293 17.115,90.9216 C27.8376,83.0634 39.5346,87.486 44.2218,90.9216 C47.2068427,92.8816111 50.6633478,94.0042863 54.2304,94.1724 C57.7955637,94.0011018 61.2498967,92.8786611 64.2348,90.9216 C68.9262,87.486 80.6148,83.0634 91.3458,90.9216 C92.2100969,91.5585688 92.6689214,92.6082492 92.5494387,93.6752367 C92.4299559,94.7422242 91.7503183,95.664418 90.7665387,96.0944367 C89.782759,96.5244554 88.6442969,96.3969688 87.78,95.76 C77.973,88.5696 68.1702,95.4702 67.7586,95.76 C63.7646597,98.4565103 59.0963114,99.9825612 54.2808,100.1658 L54.2304,100.1826 Z"/>
    <path fill="#FFF" d="M15.7626,0.3738 L23.457,0.3738 L38.7912,40.2402 L30.9036,40.2402 L27.7872,32.025 L11.5206,32.025 L8.2782,40.2402 L0.3906,40.2402 L15.7626,0.3738 Z M19.6602,10.9452 L14.3094,24.6288 L24.9732,24.6288 L19.6602,10.9452 Z" transform="translate(34.44 29.82)"/>
    <path fill="url(#logo_anysurfer-a)" d="M1.5792,42.8022 C14.7504,49.8036 32.6928,54.117 52.4706,54.117 C73.5588,54.117 92.5596,49.2156 105.9198,41.3784 C100.061939,17.0857546 78.1675632,0.08409668 53.1809488,0.425056398 C28.1943344,0.766016115 6.77202295,18.3587604 1.5792,42.8022 L1.5792,42.8022 Z" opacity=".5"/>
  </g>
</svg>
