<svg xmlns="http://www.w3.org/2000/svg" width="295" height="82" viewBox="0 0 295 82">
  <defs>
    <filter id="logo_darkbg-a">
      <feColorMatrix in="SourceGraphic" values="0 0 0 0 0.019020 0 0 0 0 0.458868 0 0 0 0 0.901848 0 0 0 1.000000 0"/>
    </filter>
    <filter id="logo_darkbg-b">
      <feColorMatrix in="SourceGraphic" values="0 0 0 0 0.007843 0 0 0 0 0.105882 0 0 0 0 0.474510 0 0 0 1.000000 0"/>
    </filter>
    <linearGradient id="logo_darkbg-c" x1=".628%" x2="101.347%" y1="28.011%" y2="101%">
      <stop offset="0%" stop-color="#0575E6"/>
      <stop offset="100%" stop-color="#021B79"/>
    </linearGradient>
  </defs>
  <g fill="none" fill-rule="evenodd">
    <g filter="url(#logo_darkbg-a)">
      <g transform="translate(98.527)">
        <g filter="url(#logo_darkbg-b)">
          <polygon fill="#000" fill-rule="nonzero" points="57.314 0 57.314 17.275 46.056 5.946 46.056 0"/>
          <path fill="#000" fill-rule="nonzero" d="M57.3139074,17.2751329 L57.3139074,52.5247603 L46.0563056,52.5247603 L46.0564248,17.2751329 L57.3139074,17.2751329 Z M46.0563056,11.6105315 L57.3139074,17.2751329 L46.0563056,17.2747482 L46.0563056,11.6105315 Z"/>
          <path fill="#08004B" fill-rule="nonzero" d="M20.4070331,52.9588262 C30.5680075,52.9588262 38.682167,47.882904 38.682167,36.2597778 L38.682167,16.2503453 C38.682167,5.36285997 30.5680075,0.507630024 20.3339325,0.507630024 L0.523687257,0.507630024 L0.523687257,52.9588262 L20.4070331,52.9588262 Z M19.1643239,43.1748023 L12.6583762,43.1748023 L12.6583762,10.291654 L19.0181228,10.291654 C23.9158587,10.291654 26.4743775,13.3077817 26.4743775,17.5009348 L26.4743775,35.8919573 C26.4743775,39.4230337 24.354462,43.1748023 19.1643239,43.1748023 Z M73.6973237,52.9588262 L76.6213452,41.7035204 L92.4110605,41.7035204 L95.4081828,52.9588262 L107.762174,52.9588262 L92.7765633,0.434065934 L77.7178532,0.434065934 L62.5129418,52.9588262 L73.6973237,52.9588262 Z M89.9256423,32.4344451 L79.1798639,32.4344451 L84.4431025,12.2778844 L84.6624042,12.2778844 L89.9256423,32.4344451 Z M121.724376,52.9588262 L130.130938,35.2298805 L138.756801,52.9588262 L151.622495,52.9588262 L137.952695,25.9608052 L150.672188,0.507630024 L138.756801,0.507630024 L131.373646,16.838858 L123.844292,0.507630024 L110.759295,0.507630024 L123.405689,26.0343693 L109.808988,52.9588262 L121.724376,52.9588262 Z"/>
        </g>
        <path fill="#021B79" fill-rule="nonzero" d="M4.69696361,78.8639381 C6.94416944,78.8639381 8.61690126,77.7024336 8.61690126,75.2798673 L8.61690126,70.4181416 C8.61690126,68.0951327 6.92727327,67.0331858 4.69696361,67.0331858 L0.472893215,67.0331858 L0.472893215,78.8639381 L4.69696361,78.8639381 Z M4.47731257,77.2710177 L2.46665481,77.2710177 L2.46665481,68.6261062 L4.47731257,68.6261062 C5.93039248,68.6261062 6.6062435,69.5055309 6.6062435,70.6504424 L6.6062435,75.2300885 C6.6062435,76.1924779 5.99797801,77.2710177 4.47731257,77.2710177 Z M12.4861504,69.090708 L12.4861504,67.0331858 L10.6444552,67.0331858 L10.6444552,69.090708 L12.4861504,69.090708 Z M12.4861504,78.8639381 L12.4861504,70.2522123 L10.6444552,70.2522123 L10.6444552,78.8639381 L12.4861504,78.8639381 Z M17.6564131,81.9834071 C19.9374113,81.9834071 21.2215286,80.7389381 21.2215286,78.5320796 L21.2215286,70.2356195 L19.6501738,70.2356195 L19.5825892,71.4303097 L19.565693,71.4303097 C19.1432853,70.5176991 18.1126122,70.0365044 17.2340055,70.0365044 C15.7640294,70.0365044 14.4461188,71.0320796 14.4461188,72.6913717 L14.4461188,76.0597345 C14.4461188,77.5199115 15.3247256,78.5818584 17.0143544,78.5818584 C17.8929603,78.5818584 18.8560488,78.1172567 19.3629372,77.0719027 L19.3798334,77.0719027 L19.3798334,78.8971239 C19.3798334,80.0420354 18.7208786,80.5066372 17.5043459,80.5066372 C16.6764285,80.5066372 15.7978217,80.2411505 15.0712813,79.909292 L14.5137043,81.3528761 C15.3416217,81.7842921 16.5243621,81.9834071 17.6564131,81.9834071 Z M17.6057237,77.221239 C16.6257391,77.221239 16.287814,76.5741151 16.287814,75.7610619 L16.287814,72.9734513 C16.287814,71.9280973 16.7102208,71.3473451 17.6395161,71.3473451 C18.3998488,71.3473451 19.3629372,72.0940265 19.3629372,73.255531 L19.3629372,74.9977876 C19.3629372,76.2588495 18.4674343,77.221239 17.6057237,77.221239 Z M25.2428442,69.090708 L25.2428442,67.0331858 L23.4011489,67.0331858 L23.4011489,69.090708 L25.2428442,69.090708 Z M25.2428442,78.8639381 L25.2428442,70.2522123 L23.4011489,70.2522123 L23.4011489,78.8639381 L25.2428442,78.8639381 Z M30.3286251,79.0132743 C30.8355136,79.0132743 31.3930906,78.9303097 31.9675646,78.7311947 L31.9675646,77.2710177 C31.663431,77.3539823 31.3424021,77.420354 31.0044762,77.420354 C30.311729,77.420354 30.0413877,77.1216814 30.0413877,76.5575221 L30.0413877,71.778761 L32.1534233,71.778761 L32.1534233,70.335177 L30.0413877,70.335177 L30.0413877,68.0287611 L28.1827972,68.0287611 L28.1827972,70.335177 L26.8817828,70.335177 L26.8817828,71.778761 L28.1827972,71.778761 L28.1827972,77.1216814 C28.1827972,78.6316372 29.281055,79.0132743 30.3286251,79.0132743 Z M35.6847465,79.0464602 C36.3943908,79.0464602 37.5771303,78.7975664 38.1516034,77.6360619 L38.2191889,77.6360619 C38.2529813,78.2665929 38.2867745,78.6980089 38.2867745,78.8639381 L39.9932986,78.8639381 C39.9764025,78.5154867 39.9088169,77.5033185 39.9088169,76.7732301 L39.9088169,72.5918141 C39.9088169,70.8329646 38.4726332,70.0530973 36.766109,70.0530973 C34.94131,70.0530973 33.471333,70.8993362 33.471333,72.4424778 L33.471333,72.9568584 L35.1440657,72.9568584 L35.1440657,72.5254425 C35.1440657,71.7953539 35.735435,71.3473451 36.5971456,71.3473451 C37.4926486,71.3473451 38.0333302,71.7621682 38.0333302,72.5752212 L38.0333302,73.7533186 L36.766109,73.7533186 C35.2116504,73.7533186 33.2178888,74.5 33.2178888,76.5741151 C33.2178888,78.25 34.3668368,79.0464602 35.6847465,79.0464602 Z M36.4281831,77.6858407 C35.6847465,77.6858407 35.0933764,77.2544247 35.0933764,76.3086283 C35.0933764,75.2134955 36.0226725,74.931416 36.9181754,74.931416 L38.0333302,74.931416 L38.0333302,75.9269912 C38.0333302,76.9225664 37.3067898,77.6858407 36.4281831,77.6858407 Z M44.0821988,78.9966815 C44.5215026,78.9966815 44.9608056,78.9303097 45.4001094,78.7809734 L45.4001094,77.403761 C45.1973537,77.4369469 44.9270132,77.4701328 44.7411537,77.4701328 C44.0653027,77.4701328 43.8625478,77.1216814 43.8625478,76.6570796 L43.8625478,67.0331858 L42.0039564,67.0331858 L42.0039564,77.0719027 C42.0039564,78.3163717 42.7811853,78.9966815 44.0821988,78.9966815 Z M51.0941567,78.8639381 L51.9896597,75.6946903 L55.8589079,75.6946903 L56.7544109,78.8639381 L58.7481725,78.8639381 L55.1999531,67 L52.8344732,67 L49.2524615,78.8639381 L51.0941567,78.8639381 Z M55.419605,74.1847345 L52.4120664,74.1847345 L53.9158357,68.9413717 L53.949628,68.9413717 L55.419605,74.1847345 Z M63.1412063,79.0630531 C65.0673823,79.0630531 66.3346035,78.0176991 66.3346035,76.4745575 L66.3346035,75.9269912 L64.6280794,75.9269912 L64.6280794,76.2588495 C64.6280794,76.8230089 64.3577381,77.6526548 63.2594803,77.6526548 C62.1443255,77.6526548 61.6712293,76.988938 61.6712293,76.0099557 L61.6712293,73.1061947 C61.6712293,72.1603982 62.1105331,71.4800885 63.2087909,71.4800885 C64.2732573,71.4800885 64.6280794,72.193584 64.6280794,72.7909292 L64.6280794,73.1725663 L66.3346035,73.1725663 L66.3346035,72.6747787 C66.3346035,71.0818584 65.0842785,70.0530973 63.1412063,70.0530973 C61.3333042,70.0530973 59.8126388,71.1316372 59.8126388,73.2389381 L59.8126388,75.960177 C59.8126388,78.0840708 61.2488225,79.0630531 63.1412063,79.0630531 Z M71.2176296,79.0630531 C73.1438057,79.0630531 74.4110269,78.0176991 74.4110269,76.4745575 L74.4110269,75.9269912 L72.7045019,75.9269912 L72.7045019,76.2588495 C72.7045019,76.8230089 72.4341615,77.6526548 71.3359037,77.6526548 C70.2207488,77.6526548 69.7476527,76.988938 69.7476527,76.0099557 L69.7476527,73.1061947 C69.7476527,72.1603982 70.1869556,71.4800885 71.2852143,71.4800885 C72.3496806,71.4800885 72.7045019,72.193584 72.7045019,72.7909292 L72.7045019,73.1725663 L74.4110269,73.1725663 L74.4110269,72.6747787 C74.4110269,71.0818584 73.1607019,70.0530973 71.2176296,70.0530973 C69.4097267,70.0530973 67.8890613,71.1316372 67.8890613,73.2389381 L67.8890613,75.960177 C67.8890613,78.0840708 69.3252459,79.0630531 71.2176296,79.0630531 Z M79.4292223,79.0630531 C80.4767925,79.0630531 81.5581541,78.8639381 82.4198647,78.2334071 L81.9298724,77.0055309 C81.4398801,77.221239 80.6626512,77.5696903 79.7502521,77.5696903 C78.5844088,77.5696903 77.8240761,77.1050885 77.8240761,75.8772124 L77.8240761,75.0475664 L82.6395166,75.0475664 L82.6395166,73.2057522 C82.6395166,71.2311947 81.3553993,70.0530973 79.39543,70.0530973 C77.5199425,70.0530973 75.9654847,71.2643805 75.9654847,73.5044248 L75.9654847,75.8938053 C75.9654847,78.1338495 77.469254,79.0630531 79.4292223,79.0630531 Z M80.865407,73.7699115 L77.8240761,73.7699115 L77.8240761,73.0066372 C77.8240761,72.1769911 78.3140684,71.4137168 79.3447415,71.4137168 C80.4767925,71.4137168 80.865407,72.2267699 80.865407,73.0564159 L80.865407,73.7699115 Z M87.2184091,79.0630531 C88.9587265,79.0630531 90.4624958,78.0674779 90.4624958,76.4247788 C90.4624958,75.2466814 89.6683699,74.3174778 88.2659784,73.8362832 L87.1339274,73.454646 C86.3904909,73.2057522 86.069462,72.9568584 86.069462,72.3595133 C86.069462,71.8119469 86.5594543,71.4966814 87.319787,71.4966814 C87.9618457,71.4966814 88.6376967,71.778761 89.2966516,72.2599558 L90.1752583,71.0320796 C89.4825111,70.3849557 88.4349418,70.0530973 87.3366832,70.0530973 C85.3598178,70.0530973 84.3967302,71.380531 84.3967302,72.6084071 C84.3967302,73.7533186 85.055685,74.6327434 86.4580764,75.0641593 L87.3028908,75.329646 C88.0970159,75.5785398 88.7221784,75.8440265 88.7221784,76.590708 C88.7221784,77.2378318 88.1814976,77.6360619 87.2522015,77.6360619 C86.3904909,77.6360619 85.494988,77.1382743 84.8698254,76.6073008 L83.8898417,77.8185841 C84.6670706,78.6482301 85.9004994,79.0630531 87.2184091,79.0630531 Z M94.6865662,79.0630531 C96.4268835,79.0630531 97.9306528,78.0674779 97.9306528,76.4247788 C97.9306528,75.2466814 97.1365269,74.3174778 95.7341355,73.8362832 L94.6020845,73.454646 C93.8586479,73.2057522 93.537619,72.9568584 93.537619,72.3595133 C93.537619,71.8119469 94.0276113,71.4966814 94.787944,71.4966814 C95.4300027,71.4966814 96.1058537,71.778761 96.7648086,72.2599558 L97.6434154,71.0320796 C96.9506682,70.3849557 95.9030989,70.0530973 94.8048402,70.0530973 C92.8279748,70.0530973 91.8648872,71.380531 91.8648872,72.6084071 C91.8648872,73.7533186 92.523842,74.6327434 93.9262334,75.0641593 L94.7710479,75.329646 C95.5651729,75.5785398 96.1903354,75.8440265 96.1903354,76.590708 C96.1903354,77.2378318 95.6496546,77.6360619 94.7203585,77.6360619 C93.8586479,77.6360619 92.963145,77.1382743 92.3379825,76.6073008 L91.3579987,77.8185841 C92.1352276,78.6482301 93.3686565,79.0630531 94.6865662,79.0630531 Z M101.495768,69.090708 L101.495768,67.0331858 L99.6540731,67.0331858 L99.6540731,69.090708 L101.495768,69.090708 Z M101.495768,78.8639381 L101.495768,70.2522123 L99.6540731,70.2522123 L99.6540731,78.8639381 L101.495768,78.8639381 Z M107.781185,79.0630531 C109.318747,79.0630531 110.484591,77.8683628 110.484591,76.175885 L110.484591,72.7909292 C110.484591,71.3639381 109.741154,70.0365044 108.017733,70.0365044 C107.17292,70.0365044 106.091557,70.534292 105.601565,71.4966814 L105.550876,71.4966814 L105.550876,67.0331858 L103.709181,67.0331858 L103.709181,78.8639381 L105.331224,78.8639381 L105.381913,77.5696903 L105.415706,77.5696903 C105.80432,78.4988938 106.936371,79.0630531 107.781185,79.0630531 Z M107.358778,77.7522123 C106.463275,77.7522123 105.550876,76.8561947 105.550876,75.6780974 L105.550876,73.5707964 C105.550876,72.2599558 106.463275,71.4800885 107.2574,71.4800885 C108.152903,71.4800885 108.642896,71.8949115 108.642896,72.8738938 L108.642896,76.2256637 C108.642896,77.2378318 108.152903,77.7522123 107.358778,77.7522123 Z M114.303151,69.090708 L114.303151,67.0331858 L112.461455,67.0331858 L112.461455,69.090708 L114.303151,69.090708 Z M114.303151,78.8639381 L114.303151,70.2522123 L112.461455,70.2522123 L112.461455,78.8639381 L114.303151,78.8639381 Z M118.527221,78.9966815 C118.966525,78.9966815 119.405828,78.9303097 119.845132,78.7809734 L119.845132,77.403761 C119.642376,77.4369469 119.372035,77.4701328 119.186176,77.4701328 C118.510325,77.4701328 118.307569,77.1216814 118.307569,76.6570796 L118.307569,67.0331858 L116.448979,67.0331858 L116.448979,77.0719027 C116.448979,78.3163717 117.226207,78.9966815 118.527221,78.9966815 Z M123.224388,69.090708 L123.224388,67.0331858 L121.382693,67.0331858 L121.382693,69.090708 L123.224388,69.090708 Z M123.224388,78.8639381 L123.224388,70.2522123 L121.382693,70.2522123 L121.382693,78.8639381 L123.224388,78.8639381 Z M128.310169,79.0132743 C128.817057,79.0132743 129.374635,78.9303097 129.949108,78.7311947 L129.949108,77.2710177 C129.644975,77.3539823 129.323945,77.420354 128.98602,77.420354 C128.293272,77.420354 128.022932,77.1216814 128.022932,76.5575221 L128.022932,71.778761 L130.134968,71.778761 L130.134968,70.335177 L128.022932,70.335177 L128.022932,68.0287611 L126.164341,68.0287611 L126.164341,70.335177 L124.863327,70.335177 L124.863327,71.778761 L126.164341,71.778761 L126.164341,77.1216814 C126.164341,78.6316372 127.262599,79.0132743 128.310169,79.0132743 Z M132.80458,82 C133.919735,82 134.933512,81.4690265 135.474193,79.7267699 L138.498628,70.2522123 L136.825896,70.2522123 L135.017993,76.375 L135.001097,76.375 L133.125609,70.2522123 L131.182537,70.2522123 L134.038009,78.6814159 L133.750772,79.6603982 C133.531121,80.2909292 133.142506,80.4900443 132.601824,80.4900443 C132.297692,80.4900443 131.94287,80.4402655 131.621841,80.3738938 L131.621841,81.8672566 C131.976662,81.9502212 132.34838,82 132.80458,82 Z M150.207751,78.8639381 L150.207751,77.204646 L145.054385,77.204646 L145.054385,73.6205752 L149.143286,73.6205752 L149.143286,71.994469 L145.054385,71.994469 L145.054385,68.675885 L150.190855,68.675885 L150.190855,67.0331858 L143.060624,67.0331858 L143.060624,78.8639381 L150.207751,78.8639381 Z M153.063223,78.8639381 L154.837333,75.6283186 L156.611443,78.8639381 L158.571411,78.8639381 L156.053866,74.4004425 L158.48693,70.2522123 L156.695924,70.2522123 L155.12457,73.2057522 L153.502526,70.2522123 L151.525662,70.2522123 L153.908038,74.4336283 L151.255321,78.8639381 L153.063223,78.8639381 Z M161.731016,81.8340708 L161.731016,77.7522123 L161.764809,77.7522123 C162.136527,78.5984514 163.150304,79.0630531 163.961326,79.0630531 C165.617161,79.0630531 166.664731,77.7853982 166.664731,76.1261062 L166.664731,72.7577434 C166.664731,71.3141593 165.870606,70.0365044 164.180978,70.0365044 C163.319267,70.0365044 162.254801,70.5011062 161.680327,71.6128319 L161.646535,71.6128319 L161.646535,70.2522123 L159.889322,70.2522123 L159.889322,81.8340708 L161.731016,81.8340708 Z M163.538919,77.7522123 C162.660312,77.7522123 161.731016,76.8893805 161.731016,75.6117256 L161.731016,73.6537611 C161.731016,72.3263274 162.525142,71.4800885 163.437541,71.4800885 C164.48511,71.4800885 164.823036,72.0608407 164.823036,72.8904868 L164.823036,76.2422566 C164.823036,77.2710177 164.333044,77.7522123 163.538919,77.7522123 Z M171.851889,79.0630531 C172.89946,79.0630531 173.980821,78.8639381 174.842532,78.2334071 L174.35254,77.0055309 C173.862547,77.221239 173.085318,77.5696903 172.172919,77.5696903 C171.007076,77.5696903 170.246743,77.1050885 170.246743,75.8772124 L170.246743,75.0475664 L175.062184,75.0475664 L175.062184,73.2057522 C175.062184,71.2311947 173.778066,70.0530973 171.818097,70.0530973 C169.94261,70.0530973 168.388152,71.2643805 168.388152,73.5044248 L168.388152,75.8938053 C168.388152,78.1338495 169.891921,79.0630531 171.851889,79.0630531 Z M173.288074,73.7699115 L170.246743,73.7699115 L170.246743,73.0066372 C170.246743,72.1769911 170.736735,71.4137168 171.767409,71.4137168 C172.89946,71.4137168 173.288074,72.2267699 173.288074,73.0564159 L173.288074,73.7699115 Z M178.813158,78.8639381 L178.813158,73.6205752 C178.830054,72.193584 179.945209,71.7621682 180.857608,71.7621682 C181.009675,71.7621682 181.280016,71.7621682 181.651734,71.8119469 L181.651734,70.2190266 C181.448978,70.1692478 181.144846,70.1526548 180.958986,70.1526548 C179.962105,70.1526548 179.30315,70.5840708 178.745573,71.6792035 L178.728677,71.6792035 L178.728677,70.2522123 L176.971464,70.2522123 L176.971464,78.8639381 L178.813158,78.8639381 Z M186.230627,79.0132743 C186.737515,79.0132743 187.295092,78.9303097 187.869566,78.7311947 L187.869566,77.2710177 C187.565432,77.3539823 187.244403,77.420354 186.906478,77.420354 C186.21373,77.420354 185.94339,77.1216814 185.94339,76.5575221 L185.94339,71.778761 L188.055425,71.778761 L188.055425,70.335177 L185.94339,70.335177 L185.94339,68.0287611 L184.084799,68.0287611 L184.084799,70.335177 L182.783785,70.335177 L182.783785,71.778761 L184.084799,71.778761 L184.084799,77.1216814 C184.084799,78.6316372 185.183057,79.0132743 186.230627,79.0132743 Z M192.228807,79.0630531 C193.969124,79.0630531 195.472893,78.0674779 195.472893,76.4247788 C195.472893,75.2466814 194.678768,74.3174778 193.276377,73.8362832 L192.144326,73.454646 C191.400889,73.2057522 191.079859,72.9568584 191.079859,72.3595133 C191.079859,71.8119469 191.569852,71.4966814 192.330184,71.4966814 C192.972243,71.4966814 193.648094,71.778761 194.30705,72.2599558 L195.185657,71.0320796 C194.492909,70.3849557 193.445339,70.0530973 192.347081,70.0530973 C190.370216,70.0530973 189.407128,71.380531 189.407128,72.6084071 C189.407128,73.7533186 190.066082,74.6327434 191.468474,75.0641593 L192.313288,75.329646 C193.107413,75.5785398 193.732576,75.8440265 193.732576,76.590708 C193.732576,77.2378318 193.191895,77.6360619 192.2626,77.6360619 C191.400889,77.6360619 190.505386,77.1382743 189.880224,76.6073008 L188.900239,77.8185841 C189.677468,78.6482301 190.910897,79.0630531 192.228807,79.0630531 Z"/>
      </g>
    </g>
    <polygon fill="url(#logo_darkbg-c)" fill-rule="nonzero" points="51.899 26.114 25.949 26.114 25.949 52.228 77.848 78.342 0 78.342 0 0 77.848 0 77.848 78.342 51.899 52.228"/>
  </g>
</svg>
