<svg xmlns="http://www.w3.org/2000/svg" width="525" height="410" viewBox="0 0 525 410">
  <g fill="none">
    <circle cx="6.5" cy="6.5" r="6.5" fill="#021B79"/>
    <path fill="#021B79" d="M33.3028346,3.00048492 C31.4700437,3.03177848 30,4.58936267 30,6.5 C30,8.41064098 31.4700437,9.96822517 33.3028346,9.99951873 L191.587041,9.99951873 C193.441272,10.0312472 194.969098,8.49018124 195,6.55745146 C195.029978,4.62472169 193.551504,3.03221354 191.697274,3.00048492 C191.66053,2.99983836 191.623786,2.99983836 191.587041,3.00048492 L33.3028346,3.00048492 Z"/>
    <circle cx="6.5" cy="38.5" r="6.5" fill="#021B79"/>
    <path fill="#021B79" d="M33.3027151,34.0004849 C31.4699623,34.0318802 30,35.5894443 30,37.5000239 C30,39.4106036 31.4699623,40.9681676 33.3027151,40.9995629 L191.589571,40.9995629 C193.442846,41.0297836 194.969115,39.4891175 195,37.5574295 C195.029962,35.6257416 193.553033,34.0336871 191.699806,34.0004849 C191.663061,33.9998384 191.626316,33.9998384 191.589571,34.0004849 L33.3027151,34.0004849 Z"/>
    <circle cx="6.5" cy="69.5" r="6.5" fill="#E6E6E6"/>
    <path fill="#E6E6E6" d="M33.3027151,66.000488 C31.4699623,66.0318833 30,67.5894467 30,69.5000255 C30,71.4106043 31.4699623,72.9681676 33.3027151,72.9995629 L191.589571,72.9995629 C193.442846,73.0297835 194.969115,71.4891182 195,69.5574311 C195.029962,67.625744 193.553033,66.0336902 191.699806,66.000488 C191.663061,65.9998373 191.626316,65.9998373 191.589571,66.000488 L33.3027151,66.000488 Z"/>
    <circle cx="6.5" cy="101.5" r="6.5" fill="#021B79"/>
    <path fill="#021B79" d="M33.3028346,97.000488 C31.4700437,97.0317816 30,98.5893651 30,100.5 C30,102.410642 31.4700437,103.968225 33.3028346,103.999519 L191.587041,103.999519 C193.441271,104.031247 194.969098,102.490182 195,100.557453 C195.029978,98.624724 193.551504,97.0322166 191.697274,97.000488 C191.66053,96.9998373 191.623786,96.9998373 191.587041,97.000488 L33.3028346,97.000488 Z"/>
    <circle cx="6.5" cy="132.5" r="6.5" fill="#E6E6E6"/>
    <path fill="#E6E6E6" d="M33.3027151,129.000485 C31.4699623,129.03188 30,130.589444 30,132.500024 C30,134.410604 31.4699623,135.968168 33.3027151,135.999563 L191.589571,135.999563 C193.442846,136.029784 194.969115,134.489118 195,132.55743 C195.029962,130.625742 193.553033,129.033687 191.699806,129.000485 C191.663061,128.999838 191.626316,128.999838 191.589571,129.000485 L33.3027151,129.000485 Z"/>
    <circle cx="6.5" cy="164.5" r="6.5" fill="#021B79"/>
    <path fill="#021B79" d="M33.3027151,160.000488 C31.4699623,160.031883 30,161.589447 30,163.500025 C30,165.410604 31.4699623,166.968168 33.3027151,166.999563 L191.589571,166.999563 C193.442846,167.029784 194.969115,165.489118 195,163.557431 C195.029962,161.625744 193.553033,160.03369 191.699806,160.000488 C191.663061,159.999837 191.626316,159.999837 191.589571,160.000488 L33.3027151,160.000488 Z"/>
    <circle cx="6.5" cy="195.5" r="6.5" fill="#E6E6E6"/>
    <path fill="#E6E6E6" d="M33.3028346 192.000488C31.4700437 192.031782 30 193.589365 30 195.5 30 197.410642 31.4700437 198.968225 33.3028346 198.999519L191.587041 198.999519C193.441271 199.031247 194.969098 197.490182 195 195.557453 195.029978 193.624724 193.551504 192.032217 191.697274 192.000488 191.66053 191.999837 191.623786 191.999837 191.587041 192.000488L33.3028346 192.000488zM525 309.7489C524.256072 312.573597 508.456523 370.812208 462.031889 394.252448 460.095315 395.231573 458.101667 396.147424 456.050946 397L455.566802 396.25822 455 395.391822 455.779353 395.563914C457.418952 395.927272 459.087362 395.085106 459.776489 393.546274 475.98939 385.796159 488.075264 356.647182 488.075264 321.979364 488.142835 309.912454 486.577665 297.892339 483.422764 286.249317L483.936428 283.899359 485.495134 276.80201C487.295941 272.529389 489.037647 268.327919 490.679011 264.22736 499.60024 241.926494 505.675591 222.76484 504.583405 214 505.138363 217.418121 516.049292 287.157285 488.09881 349.543929 505.616649 334.01401 522.656055 317.415929 525 309.7489z"/>
    <rect width="359" height="1" x="166" y="396" fill="#3F3D56"/>
    <path fill="#3F3D56" d="M363.500715,249 C349.539501,249 337.297326,263.444722 330.546521,285.014246 C330.06901,286.527897 329.621344,288.082937 329.203523,289.661627 C326.360604,300.71906 324.948583,312.089705 325.00143,323.5 C325.00143,364.581429 342.269404,398 363.500715,398 C384.732026,398 402,364.581429 402,323.5 C402,282.418571 384.732032,249 363.500715,249 Z M363.500715,396.81746 C342.93195,396.81746 326.195206,363.925119 326.195206,323.5 C326.13978,312.041439 327.570082,300.623263 330.451019,289.525635 C330.844965,288.041548 331.266766,286.587024 331.716422,285.162063 C338.28816,264.189722 350.076701,250.18254 363.500715,250.18254 C384.06948,250.18254 400.806224,283.074881 400.806224,323.5 C400.806224,363.925119 384.069498,396.81746 363.500715,396.81746 Z"/>
    <path fill="#3F3D56" d="M373,366 C365.710008,366 360,347.112025 360,323 C360,298.887981 365.710008,280 373,280 C380.289992,280 386,298.887975 386,323 C386,347.112031 380.289998,366 373,366 Z M373,281.180498 C366.594061,281.180498 361.181818,300.331317 361.181818,323.000003 C361.181818,345.668689 366.594061,364.819502 373,364.819502 C379.405939,364.819502 384.818182,345.668683 384.818182,323.000003 C384.818182,300.331323 379.405939,281.180498 373,281.180498 Z"/>
    <ellipse cx="374" cy="323" fill="#CFCCE0" rx="5" ry="10"/>
    <polygon fill="#3F3D56" points="364 175.294 445 175 445 206.749 364 210"/>
    <polygon fill="#3F3D56" points="294.182 284 293 283.936 296.585 219 370 219 370 220.181 297.706 220.181"/>
    <polygon fill="#3F3D56" points="293 390 250.012 383.039 250 381 292.987 387.961"/>
    <polygon fill="#3F3D56" points="350.929 410 294 404.997 294.071 403 351 408.004"/>
    <path fill="#3F3D56" d="M419,283.966957 C418.556701,285.433937 418.139015,286.931329 417.746942,288.45913 L416.511615,288.59913 L378.068729,293 L290,283.869565 L381.61512,279 L417.841512,283.814783 L419,283.966957 Z"/>
    <polygon fill="#9F616A" points="287.061 343 281 362.72 292.515 372 301 347.06"/>
    <path fill="#9F616A" d="M332.853659,358 L327,379.103448 L347.487805,392 C347.487805,392 348.073171,367.965517 351,363.275862 L332.853659,358 Z"/>
    <path fill="#2F2E41" d="M357.918269,244.324607 L354.961538,250.240838 C354.961538,250.240838 321.254808,234.858639 312.384615,256.157068 C303.514423,277.455497 284,344.900524 284,344.900524 L301.149038,352 L332.490385,280.413613 L404.043269,278.638743 L407,239 L357.918269,244.324607 Z"/>
    <path fill="#2F2E41" d="M382.732775 253.318151C382.732775 253.318151 333.801903 243.272694 330.221596 267.499973 326.641288 291.727253 332.011749 337.818174 332.608467 339 333.205185 340.181811 330.221596 362.045454 330.221596 362.045454L351.703442 365C351.703442 365 365.427955 300.590892 359.460775 284.045432L399.834586 281.572406C413.771328 280.71872 425.156784 269.81658 425.95826 256.011935 426.265068 250.727658 424.929268 245.931821 420.326042 243.27273 406.004811 235 379.749221 235 379.749221 235L382.732775 253.318151zM288.866916 361.906994C288.866916 361.906994 284.705951 352.9218 278.761715 357.11489 272.817478 361.307981 259.145735 370.293176 259.145735 370.293176 259.145735 370.293176 237.996737 377.797874 256.76804 382.872449 273.46502 387.386251 277.572867 386.466527 277.572867 386.466527 277.572867 386.466527 291.244611 388.862579 293.027882 387.664553 294.811153 386.466527 296 367.298111 296 367.298111 296 367.298111 287.678069 365.501072 288.866916 361.906994zM335.055601 380.627563C335.055601 380.627563 329.126244 372.329779 324.975695 375.885972 320.825145 379.442165 306.001753 389.518046 306.001753 389.518046 306.001753 389.518046 281.098455 396.630432 303.037075 403.150119 324.975695 409.669807 349.286057 408.484409 349.878993 406.113613 350.471928 403.742818 348.693121 386.554551 348.693121 386.554551 348.693121 386.554551 336.241472 385.961852 335.055601 380.627563z"/>
    <polygon fill="#3F3D56" points="445.177 215 444 215 444 170 463 175.525 462.671 176.657 445.177 171.57"/>
    <path fill="#3F3D56" d="M483.621261,284.558214 C476.906341,262.687143 464.574763,248 450.50029,248 C436.539225,248 424.297179,262.444722 417.546446,284.014246 C417.068941,285.527897 416.621279,287.082937 416.203462,288.661627 C413.360869,299.719115 411.948867,311.089722 412.001414,322.5 C412.001414,363.581429 429.269205,397 450.50029,397 C451.994334,397 453.483733,396.835204 454.941091,396.509246 C469.260285,393.316389 481.209859,374.862857 486.325136,349.793016 C488.12623,340.805445 489.021968,331.662922 488.999591,322.5 C488.999591,308.65246 487.035485,295.674075 483.621261,284.558214 Z M459.196858,393.807143 C456.486178,395.112874 453.514411,395.799834 450.50029,395.81746 C429.931743,395.81746 413.195178,362.925119 413.195178,322.5 C413.142556,311.041604 414.572799,299.623782 417.450945,288.525635 C417.844887,287.041548 418.266684,285.587024 418.716334,284.162063 C425.288003,263.189722 437.076419,249.18254 450.50029,249.18254 C464.497169,249.18254 476.721308,264.419563 483.101974,286.899643 C486.29141,298.500404 487.873713,310.476889 487.805403,322.5 C487.805409,357.041996 475.58722,386.085171 459.19687,393.807155 L459.196858,393.807143 Z"/>
    <path fill="#3F3D56" d="M460,366 C452.710008,366 447,347.112025 447,323 C447,298.887981 452.710008,280 460,280 C467.289992,280 473,298.887975 473,323 C473,347.112031 467.289998,366 460,366 Z M460,281.180498 C453.594061,281.180498 448.181818,300.331317 448.181818,323.000003 C448.181818,345.668689 453.594061,364.819502 460,364.819502 C466.405939,364.819502 471.818182,345.668683 471.818182,323.000003 C471.818182,300.331323 466.405939,281.180498 460,281.180498 Z"/>
    <ellipse cx="461" cy="323" fill="#CFCCE0" rx="5" ry="10"/>
    <polygon fill="#3F3D56" points="453 169 465 173.632 462.714 180 453 175.947"/>
    <polygon fill="#3F3D56" points="314 216 314 225 349 225 349 216.598"/>
    <path fill="#9F616A" d="M354,238.049341 L329.773163,239.977735 C325.876418,240.287906 322.449211,237.322131 322.039785,233.285562 L322.039785,233.285562 C321.808425,231.004625 322.594733,228.73913 324.174144,227.136089 C325.753554,225.533048 327.952417,224.768709 330.142751,225.061363 L352.826335,228.092117 L354,238.049341 Z"/>
    <path fill="#E6E6E6" d="M401,167.639268 C400.987752,170.246645 400.723711,172.846702 400.211183,175.402805 L396.686899,225.723997 L361.261664,235.974938 L350.812367,239 L350.335794,236.211271 L348.55306,225.830347 L348,222.616219 L360.455609,220.365147 L380.64817,216.713803 L383.054567,153.512466 L391.273975,152.011752 C391.884569,150.703855 392.426602,149.364775 392.897852,148 C395.227044,150.070854 397.112684,152.5956 398.440216,155.420854 C399.12351,156.87215 399.66727,158.385638 400.064093,159.940722 C400.698675,162.456888 401.013013,165.043696 401,167.639268 L401,167.639268 Z"/>
    <path fill="#2F2E41" d="M432.069592,108.863025 C431.472242,107.707763 430.787987,106.599087 430.022675,105.546474 C426.036595,100.008641 419.96809,96.3116876 413.199023,95.2974506 C411.495532,95.0392668 409.770612,94.9488228 408.049287,95.0274305 C396.251494,95.5909507 386.152584,104.237464 383.958195,116.464678 C383.934599,116.617298 383.911004,116.758178 383.887373,116.904928 L383.851979,117.133858 L380,142.292687 L382.707593,142.703587 L393.284344,144.306098 L415.387508,147.657869 L430.836717,150 L434.688696,124.841171 C435.543825,119.37349 434.626442,113.776888 432.069592,108.863025 L432.069592,108.863025 Z"/>
    <circle cx="405.5" cy="121.5" r="19.5" fill="#9F616A"/>
    <path fill="#9F616A" d="M419,158.412737 L399.56719,160.46091 L385,162 C387.205057,159.031263 389.114841,155.855197 390.702269,152.51684 C391.318059,151.206453 391.864705,149.864822 392.339965,148.497448 C392.870579,146.974125 393.292917,145.415389 393.603839,143.832823 C394.058836,141.555599 394.247986,139.233473 394.16751,136.912839 C394.115685,135.682641 393.986871,134.456875 393.78182,133.242703 L417.397876,133 C417.01812,134.172076 416.699679,135.340205 416.442553,136.504389 C415.660494,140.017592 415.456083,143.634261 415.837318,147.212901 C416.013355,148.848258 416.308847,150.468609 416.721436,152.061033 C417.293482,154.240615 418.05592,156.365982 419,158.412737 Z"/>
    <path fill="#E6E6E6" d="M429,157.083615 L428.231898,198.036695 C428.05327,198.232218 427.874642,198.42774 427.707922,198.629188 C419.56247,207.984644 417.978633,221.327574 418.306118,234.202436 C418.335889,235.624418 418.395432,237.040475 418.472838,238.444682 C412.500697,241.063499 406.242752,243.800814 400.026486,245.945637 C398.805859,246.366306 397.591187,246.769201 396.382469,247.136547 C386.355465,250.205658 376.626176,251.390643 368.617673,247.729039 C365.696449,246.384671 363.088658,244.449575 360.960443,242.047036 L360.680592,236.673129 L359.864856,221.019449 L359.00744,204.518533 C353.833173,198.303287 358.995531,182.34154 370.654006,160.24157 C372.15418,157.398535 374.88625,155.401105 378.061127,154.826189 L382.735235,153.978925 L391.05336,152.473994 L391.190309,152.450294 C392.970638,154.464769 395.38212,155.54903 398.30567,155.892676 C403.307263,156.461468 409.785517,154.855814 417.121187,152 L417.162867,152.017775 L427.457812,156.425919 L429,157.083615 Z"/>
    <path fill="#2F2E41" d="M430,107.676387 L422.801857,122 L381,115.044735 C382.979353,104.297804 391.738731,95.9634922 402.803075,94.299697 C413.86742,92.6359019 424.793767,98.0099822 430,107.676387 L430,107.676387 Z"/>
    <path fill="#CCC" d="M342.816578,211.53523 C342.176767,210.919469 341.183158,210.823992 340.432646,211.306156 L325.870115,220.565713 C325.385633,220.873814 325.069608,221.379046 325.010163,221.940521 C324.950718,222.501997 325.154213,223.059648 325.563903,223.457971 L362.59792,259.455098 C362.961477,259.80849 363.455046,260.00475 363.968067,260 C364.481088,259.995076 364.970682,259.789547 365.327179,259.429366 L377.463752,247.166688 C378.193755,246.425842 378.176267,245.249223 377.424554,244.529365 L342.816578,211.53523 Z"/>
    <path fill="#FFF" d="M329.238661,221.730954 L330.727479,220.789251 C330.4045,221.36009 330.520952,222.076483 331.008437,222.517665 C331.495922,222.958846 332.225684,223.008289 332.769104,222.636953 L342.403466,216.065969 C342.850297,215.761715 343.083177,215.231359 343.00346,214.699556 C342.923743,214.167754 342.545379,213.727573 342.028642,213.56547 L342.795689,213.080305 C343.000781,212.950574 343.26934,212.980505 343.440302,213.152149 L375.850987,244.749979 C375.948681,244.848051 376.002375,244.981066 376,245.118925 C375.997464,245.256785 375.939066,245.387835 375.83794,245.482421 L364.067129,256.860521 C363.864268,257.050267 363.546176,257.045885 363.348704,256.850625 L329.151778,222.525345 C329.040845,222.415658 328.98612,222.261933 329.003015,222.107461 C329.01991,221.952989 329.106596,221.814485 329.238661,221.730954 L329.238661,221.730954 Z"/>
    <polygon fill="#021B79" points="367 237.679 356.937 247 333 223.768 345.148 216"/>
    <path fill="#E6E6E6" d="M333.890541 229.893658C334.036486 229.746916 334.036486 229.509491 333.890541 229.36275L331.639213 227.106342C331.490964 226.964553 331.257714 226.964553 331.109465 227.106342 330.963512 227.253083 330.963512 227.490515 331.109465 227.637256L333.360787 229.893658C333.509038 230.035447 333.74229 230.035447 333.890541 229.893658L333.890541 229.893658zM336.890297 233.360637L334.639354 231.109694C334.493092 230.963434 334.255955 230.963435 334.109695 231.109698 333.963434 231.25596 333.963435 231.493097 334.109698 231.639358L336.360634 233.890294C336.455248 233.984909 336.593151 234.021861 336.722398 233.98723 336.851644 233.9526 336.952597 233.851648 336.987229 233.722402 337.021861 233.593156 336.984911 233.455252 336.890297 233.360637L336.890297 233.360637z"/>
    <circle cx="366" cy="246" r="2" fill="#6C63FF"/>
    <path fill="#9F616A" d="M401,252.049333 L376.773161,253.977735 C372.876414,254.287903 369.449208,251.322123 369.039782,247.28555 L369.039782,247.28555 C368.808431,245.004614 369.594742,242.739125 371.174151,241.136087 C372.753561,239.533049 374.952419,238.768711 377.142749,239.061362 L399.826334,242.092118 L401,252.049333 Z"/>
    <path fill="#E6E6E6" d="M397.821619,256 L395,239.52956 L427.77839,233.602915 L427.328378,157 L427.328378,157 C441.804502,162.001922 450.382619,176.982384 447.415505,192.079311 L443.875096,242.654031 L397.821619,256 Z"/>
    <polygon fill="#3F3D56" points="445.833 249.353 445.267 225.178 390.906 225.178 389.168 290 388 289.968 389.768 224 446.397 224 446.416 224.569 447 249.313"/>
    <polygon fill="#3F3D56" points="404 221 404 230 439 230 439 221.598"/>
  </g>
</svg>
