<svg xmlns="http://www.w3.org/2000/svg" width="75" height="98" viewBox="0 0 75 98">
  <defs>
    <filter id="diensten_lightbg_opleidingenopmaat-a">
      <feColorMatrix in="SourceGraphic" values="0 0 0 0 0.007810 0 0 0 0 0.105916 0 0 0 0 0.474448 0 0 0 1.000000 0"/>
    </filter>
  </defs>
  <g fill="none" fill-rule="evenodd" filter="url(#diensten_lightbg_opleidingenopmaat-a)" transform="translate(-518 -1709)">
    <g transform="translate(518 1709)">
      <path fill="#000" fill-rule="nonzero" d="M63.8435639 18.9722716L63.8435639 29.878866C62.1138717 31.0457965 59.7259972 33.9856432 65.0707973 40 70.4111579 33.9901243 68.0322762 31.0502776 66.3024702 29.878866L66.3069165 18.0165285 75 14.6233989 37.4977233 0 0 14.6233989 37.4977233 29.2467979 63.8435639 18.9722716zM60.46 39.2229402C60.3145275 39.3344628 59.0141903 40.3337124 56.849764 41.5827574 62.404034 46.7172786 66.01427 53.961977 66.419846 62.0678534L55.3951522 62.0678534C55.2408663 55.2828078 54.0286747 49.0822348 52.0494321 43.9740938 51.1413548 44.3577354 50.167126 44.7279928 49.1444967 45.0759357 51.0180006 49.8758524 52.2080965 55.7419352 52.380077 62.0722387L38.5031478 62.0722387 38.5031478 47.1280996C38.0050251 47.1504039 37.5113147 47.1816306 37.0044124 47.1816306 36.49751 47.1816306 36.0037658 47.1459433 35.5056769 47.1280996L35.5056769 62.0722387 21.6242338 62.0722387C21.7917455 55.7466174 22.9819091 49.8757382 24.8598141 45.0759357 23.8371283 44.7235276 22.8585662 44.3577239 21.9548787 43.9740938 19.9756361 49.086346 18.763422 55.2824652 18.6046447 62.0724214L7.57995088 62.0724214C7.98550433 53.9668876 11.600164 46.7228743 17.1500329 41.5873254 14.9856066 40.3382119 13.680857 39.3389668 13.5441979 39.2275081L13.2532643 39C6.93196588 45.2542467 3 53.9658369 3 63.59285 3 82.5648033 18.2525474 98 37 98 55.7474526 98 71 82.5693713 71 63.59285 71 53.9661795 67.0723223 45.2535615 60.7467357 39.004568L60.46 39.2229402zM7.58051512 65.1005338L18.6052089 65.1005338C18.7418567 71.0290837 19.6807979 76.5160243 21.2368263 81.2175012L13.258128 81.2175012C9.93881443 76.658431 7.88464071 71.1179309 7.58051512 65.1005338zM15.7752046 84.2552063L22.3786233 84.2552063C23.5512277 87.0521791 24.9662299 89.4878248 26.570704 91.4684999 22.4491533 89.88935 18.7726755 87.4135061 15.7752046 84.2552063L15.7752046 84.2552063zM35.5055641 93.3599853C34.7165077 93.3198373 33.9406997 93.2529233 33.1648691 93.1503265 30.3084583 91.6336437 27.7516592 88.4842515 25.7636145 84.2552178L35.501163 84.2552178 35.5055641 93.3599853zM35.5055641 81.2171586L24.5116778 81.2171586C22.8277586 76.5867138 21.7874121 71.0373061 21.6243466 65.1001912L35.5057898 65.1001912 35.5055641 81.2171586zM38.5030349 65.1001912L52.3799642 65.1001912C52.2256783 71.0376487 51.1765522 76.5875132 49.4970341 81.2171586L38.5030349 81.2171586 38.5030349 65.1001912zM40.84373 93.1544263C40.0723117 93.2570265 39.2920688 93.3194787 38.5030349 93.364085L38.5030349 84.2593061 48.2405835 84.2593061C46.2569398 88.4882257 43.7002536 91.6331641 40.84373 93.1544149L40.84373 93.1544263zM47.4383464 91.4681573C49.0429334 89.4874822 50.4535345 87.0518365 51.6260261 84.2548637L58.2338458 84.2548637C55.2363749 87.4131635 51.5598971 89.8890074 47.4383464 91.4681573L47.4383464 91.4681573zM60.7510352 81.2169302L52.772337 81.2169302C54.3239981 76.5151107 55.2672953 71.0281701 55.3995533 65.0999628L66.4242471 65.0999628C66.1245 71.1177025 64.0703488 76.6580884 60.7510352 81.2169302z"/>
      <path fill="#000" fill-rule="nonzero" d="M16,24 L16,36.8399146 C16,36.8399146 25.4703592,44 38,44 C50.5296408,44 60,36.8399146 60,36.8399146 L60,24 L38,32.273407 L16,24 Z"/>
    </g>
  </g>
</svg>
