<svg xmlns="http://www.w3.org/2000/svg" width="82" height="97" viewBox="0 0 82 97">
  <defs>
    <filter id="diensten_darkbg_wcagauditsenexpertreviews-a">
      <feColorMatrix in="SourceGraphic" values="0 0 0 0 0.019608 0 0 0 0 0.458824 0 0 0 0 0.901961 0 0 0 1.000000 0"/>
    </filter>
  </defs>
  <g fill="none" fill-rule="evenodd" filter="url(#diensten_darkbg_wcagauditsenexpertreviews-a)" transform="translate(-323 -2354)">
    <g transform="translate(323 2354)">
      <rect width="28" height="5" x="37" y="44" fill="#000" rx="1"/>
      <rect width="28" height="5" x="37" y="67" fill="#000" rx="1"/>
      <rect width="28" height="5" x="37" y="23" fill="#000" rx="1"/>
      <path fill="#000" fill-rule="nonzero" d="M24.336,60.934 C19.5157,60.934 15.5938,64.8559 15.5938,69.6723 C15.5938,74.4926 19.5157,78.4106 24.336,78.4106 C29.1563,78.4106 33.0743,74.4887 33.0743,69.6723 C33.070393,64.8559 29.1524,60.934 24.336,60.934 L24.336,60.934 Z M29.7969,69.6723 C29.7969,72.684 27.3438,75.1371 24.3321,75.1371 C21.3165,75.1371 18.8673,72.684 18.8673,69.6723 C18.8673,66.6567 21.3204,64.2075 24.3321,64.2075 C27.3477,64.2075 29.7969,66.6606 29.7969,69.6723 L29.7969,69.6723 Z"/>
      <path stroke="#000" stroke-width="5" d="M77,2.5 C77.6903559,2.5 78.3153559,2.77982203 78.767767,3.23223305 C79.220178,3.68464406 79.5,4.30964406 79.5,5 L79.5,5 L79.5,92 C79.5,92.6903559 79.220178,93.3153559 78.767767,93.767767 C78.3153559,94.220178 77.6903559,94.5 77,94.5 L77,94.5 L5,94.5 C4.30964406,94.5 3.68464406,94.220178 3.23223305,93.767767 C2.77982203,93.3153559 2.5,92.6903559 2.5,92 L2.5,92 L2.5,5 C2.5,4.30964406 2.77982203,3.68464406 3.23223305,3.23223305 C3.68464406,2.77982203 4.30964406,2.5 5,2.5 L5,2.5 Z"/>
      <path fill="#000" d="M16.7344386 24.856845L21.2972252 30.180096C21.6566473 30.5994219 22.2879473 30.6479834 22.7072731 30.2885613 22.7267054 30.2719051 22.745491 30.254509 22.7635886 30.2364114L32.4203111 20.5796889C32.7573755 20.2426245 32.8096697 19.7145045 32.5452546 19.3178819L31.6766255 18.0149382C31.370273 17.5554095 30.7494037 17.4312356 30.289875 17.7375881 30.2350828 17.7741162 30.1840328 17.8159672 30.1374684 17.8625316L22.815301 25.184699C22.4247767 25.5752233 21.7916117 25.5752233 21.4010874 25.184699 21.3676279 25.1512395 21.3365855 25.1154473 21.3081942 25.0775923L19.5675919 22.7567892C19.2491517 22.3322022 18.6544888 22.2303408 18.2128917 22.5247389L16.938995 23.3740033C16.4794663 23.6803558 16.3552924 24.3012251 16.6616449 24.7607538 16.683955 24.794219 16.7082637 24.8263076 16.7344386 24.856845zM16.7344386 46.856845L21.2972252 52.180096C21.6566473 52.5994219 22.2879473 52.6479834 22.7072731 52.2885613 22.7267054 52.2719051 22.745491 52.254509 22.7635886 52.2364114L32.4203111 42.5796889C32.7573755 42.2426245 32.8096697 41.7145045 32.5452546 41.3178819L31.6766255 40.0149382C31.370273 39.5554095 30.7494037 39.4312356 30.289875 39.7375881 30.2350828 39.7741162 30.1840328 39.8159672 30.1374684 39.8625316L22.815301 47.184699C22.4247767 47.5752233 21.7916117 47.5752233 21.4010874 47.184699 21.3676279 47.1512395 21.3365855 47.1154473 21.3081942 47.0775923L19.5675919 44.7567892C19.2491517 44.3322022 18.6544888 44.2303408 18.2128917 44.5247389L16.938995 45.3740033C16.4794663 45.6803558 16.3552924 46.3012251 16.6616449 46.7607538 16.683955 46.794219 16.7082637 46.8263076 16.7344386 46.856845z"/>
    </g>
  </g>
</svg>
