<svg xmlns="http://www.w3.org/2000/svg" width="78" height="81" viewBox="0 0 78 81">
  <defs>
    <filter id="diensten_darkbg_operationeleondersteuning-a">
      <feColorMatrix in="SourceGraphic" values="0 0 0 0 0.019608 0 0 0 0 0.458824 0 0 0 0 0.901961 0 0 0 1.000000 0"/>
    </filter>
  </defs>
  <g fill="none" fill-rule="evenodd" filter="url(#diensten_darkbg_operationeleondersteuning-a)" transform="translate(-98 -2354)">
    <g transform="translate(98 2354)">
      <path fill="#000" fill-rule="nonzero" d="M63.51149,66.29133 C63.51149,69.280253 59.025785,69.280253 59.025785,66.29133 C59.025785,63.302407 63.51149,63.302407 63.51149,66.29133"/>
      <path fill="#000" fill-rule="nonzero" d="M77.93548 32.96657L77.93548 32.920085C77.93548 32.8550075 77.9447763 32.7899347 77.9447763 32.7248536L77.5589545 20.6761036C77.521767 19.6627472 77.1080516 18.7098666 76.3921952 17.9939626 75.6252045 17.2269719 74.5653072 16.8132565 73.4496822 16.8268619 69.7587782 16.9480597 66.8488712 20.0531743 66.9604932 23.7487193L67.1464307 29.4197833 66.2725185 32.9478953C65.1057592 33.0315666 63.9622525 33.4964139 63.0743935 34.3795843L56.7990475 40.6549303 54.7397525 41.0128585C53.1918005 41.2778239 51.7879575 41.9983213 50.6816145 43.1092815L46.2888485 47.5020475C44.9082105 48.8826855 44.1226915 50.7140955 44.0761625 52.6664095L43.9181186 59.6298135C43.2301558 59.9040728 42.5979326 60.3084824 42.0494616 60.8430185 40.9663712 61.9028563 40.3574006 63.3205985 40.3434776 64.8314225L40.2412114 74.3653455C40.2226176 75.8760505 40.7990239 77.3032175 41.8635384 78.3862365 42.9233762 79.4693269 44.3411184 80.0782975 45.8519424 80.0922205L61.6706124 80.2642112 61.7310418 80.2642112C64.8315868 80.2642112 67.3649778 77.7586662 67.3974648 74.6582402L67.4997298 65.1243172C67.5229729 62.8047692 66.1424158 60.7966442 64.1528548 59.8995032 64.3992205 58.4352082 65.0732484 57.1103812 66.1237328 56.0598492L73.5473098 48.6409132C75.5181878 46.6700352 76.7639988 44.0621502 77.0522168 41.3056342L77.8378072 33.8310062C77.8889403 33.5613998 77.9168303 33.2871405 77.9261278 32.9989344L77.93548 32.96657zM63.8316 74.61657C63.8269519 75.1743825 63.5991811 75.6950075 63.1994125 76.090147 62.7950029 76.4852627 62.2464843 76.6990938 61.7119125 76.6945153L45.8932425 76.5224502C45.33543 76.5178009 44.814805 76.2900313 44.4196655 75.8902627 44.0245498 75.4858531 43.8107187 74.9605752 43.8152972 74.4027627L43.9176378 64.8688397C43.922286 64.3110272 44.1500567 63.7904022 44.5498253 63.3952627 44.9495939 63.004788 45.465566 62.7909688 46.0141203 62.7909688L46.0373622 62.7909688 61.8560322 62.9583066C63.0134976 62.9722522 63.9431732 63.9205287 63.9339601 65.0779346L63.8316 74.61657zM73.504991 40.92886C73.3004538 42.876533 72.4219006 44.717344 71.02277 46.111905L63.599193 53.530841C62.004831 55.125203 60.982145 57.142729 60.619552 59.373979L47.497422 59.2345229 47.6415191 52.7499749C47.6647622 51.7226717 48.0784752 50.7557729 48.8082784 50.0305869L53.2010444 45.6378209C53.7774566 45.0614206 54.5351534 44.6709459 55.3393554 44.5361427L57.9610444 44.0805988C58.0865537 44.0573569 58.2074101 44.0248176 58.3236255 43.9783326 58.3329218 43.9736844 58.3375711 43.9690363 58.3468674 43.964387 58.5606985 43.8760676 58.751277 43.7459149 58.9093328 43.5878591 58.9139809 43.5832109 58.9186303 43.5832109 58.9186303 43.5785628L65.5891753 36.9033768C66.1562817 36.3362704 67.0766753 36.3362704 67.6438293 36.9033768 67.9180886 37.1729832 68.0668386 37.5402172 68.0668386 37.93068 68.0668386 38.3211428 67.9180886 38.6837239 67.6438293 38.9579832L59.9785633 46.6232492C59.2812947 47.3205178 59.2812947 48.4501372 59.9785633 49.1473582 60.3271976 49.4959925 60.7827415 49.6679832 61.2429383 49.6679832 61.6984822 49.6679832 62.158679 49.4959925 62.5073133 49.1473582L70.1725793 41.4820922C71.1208665 40.533805 71.6415153 39.2740472 71.6415153 37.9306562 71.6415153 36.5872652 71.1208903 35.3275312 70.1725793 34.3792202 70.0238293 34.2304702 69.8518386 34.1142548 69.6891418 33.9841045L70.6653107 30.0329475C70.66996 30.0143537 70.66996 29.9911119 70.6746081 29.9725181 70.6885537 29.9120887 70.6932019 29.8516617 70.7024982 29.7912335 70.7117956 29.7308041 70.7164438 29.6657242 70.7164438 29.605296 70.7164438 29.5867023 70.7210931 29.5681085 70.7210931 29.5448666L70.5305027 23.6319946C70.4793696 21.9028056 71.8414067 20.4477926 73.5473907 20.3919816 73.7007936 20.4012779 73.82165 20.4663566 73.8681314 20.5174909 73.9471545 20.5965141 73.9889878 20.6894816 73.9936407 20.7963912L74.3748096 32.7154312 74.286489 33.5567969C74.2818409 33.5846869 74.2771927 33.6172263 74.2771927 33.6451175L73.504991 40.92886zM36.4854 60.84351C35.9368814 60.3089382 35.3046939 59.9045286 34.616743 59.630305L34.4633401 52.671542C34.4168551 50.723869 33.6312683 48.89234 32.2506541 47.511821L27.8578881 43.119055C26.746916 42.0080829 25.3430611 41.282885 23.8045101 41.022632L21.7405741 40.6647038 15.4652281 34.3893578C14.577381 33.5015107 13.4338981 33.0366848 12.2671031 32.9530278L11.3931909 29.4249158 11.5791284 23.7492108C11.6906909 20.0536658 8.7807244 16.9532398 5.0666154 16.8276948 3.9695901 16.8044529 2.9097404 17.2321044 2.1474264 17.9944541 1.43157 18.7103105 1.0178546 19.6631911.9806671 20.6812361L.5948453 32.7442661C.5948453 32.813993.60414158 32.8790693.60414158 32.9488033L.60414158 32.9673971.60414158 32.9813427C.61343905 33.2695488.64132908 33.553102.69246219 33.8320023L1.47805259 41.3019893C1.76625869 44.0585053 3.01208159 46.6662713 4.98295959 48.6372683L12.4065366 56.0562043C13.4570805 57.1067482 14.1310846 58.4362043 14.3774146 59.8958583 12.3878536 60.7930112 11.0073346 62.8011243 11.0305396 65.1206723L11.1328058 74.6545953C11.165344 77.7597813 13.7034438 80.2605663 16.7992288 80.2605663L16.8596582 80.2605663 32.6783282 80.0885756C34.1890332 80.0699818 35.6021582 79.465682 36.6667322 78.3825916 37.7312229 77.2995012 38.3029822 75.8677646 38.2893076 74.3617006L38.1867942 64.8277776C38.1774967 63.3217136 37.5685535 61.9085886 36.4854512 60.8440146L36.4854 60.84351zM7.51604 46.11726C6.121479 44.722699 5.238261 42.877247 5.033819 40.929574L4.2668283 33.645465C4.2668283 33.6175738 4.25753083 33.5850344 4.25753083 33.5571444L4.16921022 32.7157787 4.55037912 20.8062587C4.55502726 20.6946962 4.5968629 20.6017215 4.67588842 20.5227055 4.7223722 20.4762205 4.85717302 20.4018491 4.97338842 20.3971962 6.70257742 20.4529774 8.06465142 21.9079012 8.01348142 23.6372092L7.82289102 29.5547222C7.82289102 29.5733148 7.82753916 29.5919097 7.82753916 29.6151516 7.82753916 29.675581 7.8321873 29.7406609 7.84148477 29.8010891 7.84613291 29.8615185 7.85542919 29.9219455 7.8693748 29.9823737 7.87402413 30.0009686 7.87402413 30.0242105 7.87867227 30.0428043L8.85484117 33.9939613C8.69214437 34.1194706 8.52480657 34.2356741 8.37140367 34.389077 7.42311647 35.3373523 6.90246767 36.597122 6.90246767 37.940513 6.90246767 39.283904 7.42309267 40.543638 8.37140367 41.491949L16.0366697 49.157215C16.385304 49.5058493 16.8408479 49.67784 17.3010447 49.67784 17.7565886 49.67784 18.2167854 49.5058493 18.5654197 49.157215 19.2626883 48.4599464 19.2626883 47.330327 18.5654197 46.633106L10.8862307 38.958558C10.6119714 38.6889516 10.4632214 38.3217176 10.4632214 37.9312548 10.4632214 37.540792 10.6119714 37.1782109 10.8862307 36.9039516 11.4533371 36.3368452 12.3737307 36.3368452 12.9362437 36.9039516L19.6114297 43.5791376C19.6160778 43.5837857 19.620726 43.5837857 19.620726 43.5884338 19.7787699 43.7464777 19.9693603 43.871987 20.1831914 43.9649617 20.1924876 43.9696111 20.1971358 43.9742592 20.2064332 43.9789074 20.3226439 44.0253923 20.4388521 44.0579317 20.5690143 44.0811736L23.1953443 44.5367175C23.9948696 44.6715207 24.7525783 45.0619954 25.3290143 45.6383957L29.7217803 50.0311617C30.4515835 50.7609649 30.8652989 51.7278637 30.8885396 52.7505497L31.0326367 59.2397387 17.9105067 59.3791948C17.5525785 57.1525858 16.5298687 55.1305378 14.9308657 53.5360568L7.51604 46.11726zM34.12325 75.89106C33.7281343 76.2954696 33.2075093 76.5185946 32.649673 76.5232475L16.826243 76.6952382C16.2358959 76.6859407 15.7431526 76.48606 15.338743 76.0909443 14.9343334 75.6958286 14.7112084 75.1752036 14.7065555 74.6173673L14.6041364 65.0834443C14.5903449 63.9259789 15.5246841 62.9730983 16.6821495 62.9638163L32.5008195 62.7964043C33.1097663 62.7918304 33.5839099 63.0056567 33.9883195 63.4007724 34.3927291 63.7958881 34.6158541 64.3165131 34.620507 64.8743494L34.7228474 74.4082724C34.7274213 74.961432 34.513595 75.4913628 34.1231203 75.8911314L34.12325 75.89106z"/>
      <path fill="#000" fill-rule="nonzero" d="M19.51362 66.29133C19.51362 69.280253 15.027915 69.280253 15.027915 66.29133 15.027915 63.302407 19.51362 63.302407 19.51362 66.29133M44.23468 39.1629L44.23468 37.061836C45.1039393 36.7875767 45.940664 36.4389424 46.744866 36.0252389L48.237007 37.5173799C48.8691945 38.1495674 49.696661 38.4656671 50.524068 38.4656671 51.3514869 38.4656671 52.178882 38.1495793 52.811129 37.5173799L55.260863 35.0676459C56.520597 33.8079119 56.520597 31.7580179 55.260863 30.4935239L53.764081 29.0013829C54.1824374 28.1972047 54.5264188 27.3604919 54.8006781 26.4911969L56.9017421 26.4911969C58.6867421 26.4911969 60.1417551 25.0408249 60.1417551 23.2558249L60.1417551 19.8020879C60.1417551 18.0170879 58.6867421 16.5620749 56.9017421 16.5620749L54.8006781 16.5620749C54.5264188 15.6928156 54.1777845 14.8560909 53.764081 14.0518889L55.256222 12.5597479C56.515956 11.3000139 56.515956 9.2501199 55.256222 7.9856259L52.806488 5.5358919C51.546754 4.2761579 49.49686 4.2761579 48.232366 5.5358919L46.740225 7.0280329C45.9360468 6.6096765 45.099334 6.2656951 44.230039 5.9914358L44.230039 3.8903718C44.230039 2.1053718 42.779667.6503588 40.994667.6503588L37.54093.6503588C35.75593.6503588 34.305558 2.1053718 34.305558 3.8903718L34.305558 5.9914358C33.4362987 6.2656951 32.599574 6.6143294 31.795372 7.0280329L30.303231 5.5358919C29.043497 4.2761579 26.993603 4.2761579 25.729109 5.5358919L23.279375 7.9856259C22.019641 9.2453599 22.019641 11.3000139 23.279375 12.5597479L24.771516 14.0518889C24.3531596 14.8560671 24.0091782 15.6927799 23.7349189 16.5620749L21.6338549 16.5620749C19.8488549 16.5620749 18.3938419 18.0170879 18.3938419 19.8020879L18.3938419 23.2558249C18.3938419 25.0408249 19.8488549 26.4911969 21.6338549 26.4911969L23.7349189 26.4911969C24.0091782 27.3604562 24.3578125 28.1971809 24.771516 29.0013829L23.279375 30.4935239C22.019641 31.7532579 22.019641 33.8079119 23.279375 35.0676459L25.729109 37.5173799C26.3612965 38.1495674 27.188763 38.4656671 28.01617 38.4656671 28.8435889 38.4656671 29.670984 38.1495793 30.303231 37.5173799L31.795372 36.0252389C32.5995502 36.4435953 33.436263 36.7875767 34.305558 37.061836L34.305558 39.1629C34.305558 40.9479 35.75593 42.402913 37.54093 42.402913L40.994667 42.402913C42.779667 42.402913 44.23468 40.9479 44.23468 39.1629L44.23468 39.1629zM40.66468 38.8328654L37.875558 38.8328654 37.875558 35.6951924C37.875558 35.6533568 37.8662605 35.6115199 37.8616124 35.5696831 37.8569643 35.4999562 37.8523161 35.425586 37.8383705 35.355852 37.829073 35.3000696 37.8058311 35.2442895 37.7918855 35.1885023 37.773293 35.1327222 37.7639955 35.0769398 37.7407536 35.0211645 37.7175105 34.9607339 37.6849724 34.909602 37.6570811 34.8538148 37.6338393 34.807331 37.6105974 34.7608472 37.5827061 34.7143587 37.550168 34.6632256 37.5083311 34.6213899 37.4711436 34.5749026 37.4386055 34.5330658 37.4060661 34.486582 37.3642305 34.4493933 37.3223936 34.4075565 37.280558 34.3750183 37.2340683 34.3378308 37.1922326 34.3006433 37.150397 34.2634558 37.103918 34.2262683 37.0527849 34.1890808 36.9923555 34.1611896 36.9412212 34.1332995 36.8947362 34.1100565 36.8529006 34.0775183 36.806418 34.0589245 36.732043 34.0263852 36.657668 34.0077914 36.5786401 33.9845495 36.5461019 33.9752521 36.5135625 33.9613065 36.476375 33.9520102 35.035404 33.6312695 33.687253 33.073457 32.464766 32.2925552 32.3810948 32.2367739 32.2881224 32.1949383 32.1951596 32.157752 32.181214 32.1531027 32.1719166 32.1438064 32.1579721 32.139157 31.9534349 32.0554858 31.7396157 32.0183006 31.5257846 32.0183006 31.511839 32.0183006 31.4978934 32.0136525 31.4839478 32.0136525 31.2654757 32.0136525 31.0562856 32.0601363 30.8517603 32.1345089 30.8378147 32.139157 30.8285184 32.1438064 30.8145728 32.1484545 30.6053946 32.2367751 30.4101632 32.3622856 30.2428135 32.5249824 30.2381654 32.5296317 30.2335172 32.5296317 30.2335172 32.5342799L30.2195716 32.5482243C30.2149235 32.5528736 30.2149235 32.5528736 30.2102753 32.5575218L28.0115123 34.7562848 26.0358743 32.7806468 28.2346373 30.5818838 28.2392867 30.5772344 28.2532323 30.56329C28.2578804 30.5586419 28.2578804 30.5539926 28.2625286 30.5493444 28.4252254 30.3820066 28.5507347 30.1914162 28.6390565 29.982238 28.6437046 29.9682936 28.6483539 29.954348 28.6530021 29.9404024 28.7320252 29.7405181 28.7738585 29.526687 28.7738585 29.3128678 28.7738585 29.2989234 28.7692091 29.2849777 28.7692091 29.2710321 28.764561 29.057201 28.7273735 28.8433699 28.6436998 28.6388446 28.6390517 28.6249002 28.6297554 28.6156027 28.6251073 28.6063053 28.5879198 28.5133377 28.546083 28.4250207 28.4903041 28.3366989 27.7047137 27.1142119 27.1469131 25.7614199 26.8308491 24.3250899 26.8215516 24.2832542 26.8029591 24.2507149 26.7936616 24.2088792 26.7704197 24.1391524 26.7518259 24.0647821 26.7239347 23.9950481 26.705341 23.9485644 26.6774509 23.9113769 26.6542091 23.8648978 26.6216697 23.8044673 26.5937785 23.7440414 26.5519428 23.6882542 26.5240516 23.6464186 26.4915134 23.6138792 26.4589741 23.5766917 26.4171384 23.5255586 26.3753016 23.4697774 26.3288119 23.4232888 26.2962725 23.3907495 26.259085 23.3628583 26.2218975 23.3349682 26.1661163 23.2931326 26.1149832 23.2466476 26.0592007 23.2094589 26.0220132 23.1815689 25.9755283 23.1676233 25.9336914 23.1443814 25.873262 23.111842 25.8174796 23.0793027 25.7570478 23.0560608 25.7012666 23.0328189 25.6408372 23.0188733 25.5804042 23.0002795 25.5292711 22.9863339 25.478138 22.9677402 25.4270013 22.9584439 25.3433289 22.9398501 25.2550106 22.935202 25.1666888 22.9305527 25.1387976 22.9305527 25.1109064 22.9212564 25.0830164 22.9212564L25.0644226 22.9212564 25.0458289 22.9212564 21.9452839 22.9212564 21.9452839 20.1321344 25.0783159 20.1321344 25.082964 20.1321344C25.0876121 20.1321344 25.0922615 20.1274851 25.0922615 20.1274851 25.278199 20.1274851 25.4501897 20.0902976 25.6175394 20.0391656 25.6454294 20.0298682 25.6779688 20.0205719 25.7058588 20.0112744 25.8685556 19.950845 26.0173056 19.8671773 26.1521088 19.7649087 26.18 19.746315 26.1985938 19.7230731 26.2264838 19.7044793 26.361287 19.5929168 26.4821434 19.4627665 26.5751181 19.3186575 26.5844156 19.3000638 26.5937118 19.28147 26.6030093 19.2628763 26.6959781 19.1048324 26.7703471 18.9374827 26.8121875 18.7561981 26.8168356 18.7469006 26.8214838 18.7422525 26.8214838 18.7329562 27.1375835 17.2966262 27.695396 15.9438342 28.4809388 14.7213472 28.53672 14.6330266 28.5785557 14.5447036 28.615742 14.4517408 28.6203901 14.4377952 28.6296876 14.4284989 28.6343357 14.4192026 28.718007 14.2146654 28.7551921 14.0008462 28.759845 13.7870151 28.759845 13.7730695 28.7644932 13.7591239 28.7644932 13.7498276 28.7644932 13.5313555 28.7180082 13.3221654 28.6436368 13.122293 28.6389886 13.1083474 28.6343405 13.0944018 28.6296924 13.0804574 28.5413717 12.8712792 28.4158613 12.6760478 28.2531645 12.513351 28.2485151 12.5087028 28.2485151 12.5040535 28.243867 12.5040535L28.2299214 12.4901091 28.2252732 12.485461 26.0265102 10.282057 27.9973882 8.31117896 30.2147152 10.528506C30.2240127 10.5378034 30.2286608 10.5378034 30.2379571 10.5424516 30.39136 10.6912016 30.5633507 10.8027641 30.7539292 10.886433 30.7957649 10.9050255 30.8376005 10.9189711 30.8840914 10.9375649 31.0746818 11.0072917 31.2745542 11.0537755 31.4744385 11.0537755L31.4790867 11.0537755C31.678971 11.0537755 31.8788553 11.0072917 32.0740867 10.9375649 32.1298679 10.9189711 32.1856492 10.8910811 32.2414245 10.8631899 32.3065032 10.8306505 32.3762277 10.812058 32.4413088 10.7748705 33.6637958 9.98928007 35.0119468 9.43147947 36.4529178 9.11541547 36.4947546 9.10611919 36.5319421 9.08752544 36.5737742 9.07357983 36.643501 9.05498608 36.7132303 9.03639233 36.7783114 9.00850111 36.8294445 8.98525922 36.8759283 8.95272105 36.9270614 8.92947797 36.9781945 8.90158794 37.0339757 8.87369672 37.0804643 8.84115855 37.1315974 8.80861919 37.173433 8.76678355 37.2199204 8.72494672 37.261756 8.68775922 37.3082398 8.65522105 37.3454297 8.61803355 37.3826172 8.57619672 37.4198047 8.52971294 37.452344 8.48787135 37.4895315 8.44138757 37.526719 8.39955193 37.5592584 8.35306815 37.5871496 8.30658437 37.6103915 8.2600994 37.6382815 8.20897105 37.6661727 8.15783794 37.6987121 8.10670483 37.721954 8.05092715 37.7451959 7.99514947 37.7591415 7.93471651 37.7777352 7.87428355 37.7916797 7.82315044 37.8102746 7.77201733 37.8195709 7.72088065 37.8335165 7.64650565 37.8381646 7.56283675 37.8428128 7.48846175 37.8474621 7.45127425 37.8521102 7.41873489 37.8521102 7.38154739L37.8521102 7.3583055 37.8521102 7.34900803 37.8753521 4.22525803 40.6644741 4.22525803 40.6644741 7.33044403 40.6644741 7.3397415 40.6644741 7.36298339C40.6644741 7.40017089 40.6737716 7.43271025 40.6737716 7.46989775 40.6784197 7.54892089 40.6830679 7.62794165 40.6970135 7.70231665 40.7063098 7.7580979 40.7249035 7.80458287 40.7388491 7.85571955 40.7574429 7.91615013 40.7713885 7.97657595 40.7946304 8.03236315 40.8178723 8.08815035 40.8504116 8.13927751 40.8783017 8.19040705 40.9061929 8.23689202 40.9247866 8.28802513 40.957326 8.33450415 40.9898642 8.38098912 41.0270517 8.4274729 41.0642392 8.46930735 41.1014267 8.51114299 41.133966 8.55762677 41.1711535 8.59945765 41.208341 8.63664515 41.254826 8.67383265 41.2966628 8.70637201 41.3431478 8.74355951 41.3849834 8.78539515 41.4361189 8.82258265 41.4826039 8.85512201 41.5383851 8.88301323 41.5895218 8.91090326 41.6360056 8.93879448 41.6871387 8.96668451 41.7382718 8.98992759 41.8033494 9.01781762 41.873075 9.03641137 41.942809 9.05500512 41.9846447 9.06895073 42.0218322 9.08754448 42.0636654 9.09684076 43.5046364 9.41292856 44.8527874 9.97075296 46.0752744 10.7562958 46.1403531 10.7981326 46.2100776 10.8167263 46.2751587 10.8446164 46.33094 10.8725076 46.3820719 10.9003976 46.4424965 10.9189914 46.6377279 10.9887182 46.8376122 11.0352032 47.0374965 11.0352032L47.0421447 11.0352032C47.2466819 11.0352032 47.4419133 10.9887182 47.6324918 10.9189914 47.6743274 10.9050458 47.716163 10.8864532 47.762654 10.8678583 47.9485915 10.784187 48.1252351 10.6726269 48.2786261 10.5238769 48.2879235 10.5145806 48.2925717 10.5145806 48.3018691 10.5099312L50.5191961 8.29260425 52.4900741 10.2634822 50.2913111 12.4668862 50.2866618 12.4715356 50.2727174 12.4854812C50.2680693 12.4901293 50.2680693 12.4947775 50.2634199 12.4947775 50.1007231 12.6621153 49.9705728 12.8527057 49.886892 13.0618839 49.8822439 13.0758295 49.8775946 13.0897751 49.8729464 13.1037207 49.7939233 13.303605 49.75209 13.5174361 49.75209 13.7312553 49.75209 13.7452009 49.7567382 13.7591465 49.7567382 13.7684428 49.7613863 13.9822739 49.7985738 14.196105 49.8822475 14.4006303 49.8868956 14.4145759 49.8961931 14.4238734 49.9008412 14.4331697 49.9380287 14.5261384 49.9798643 14.6144543 50.0356444 14.7027761 50.8212348 15.9252631 51.3790354 17.2734141 51.6950994 18.7143851 51.6950994 18.7236825 51.6997475 18.7283307 51.7043969 18.73298 51.7462325 18.9189175 51.8206075 19.0909082 51.918228 19.2489521 51.9275254 19.2675458 51.9368217 19.2814915 51.9461192 19.3000852 52.0437361 19.4488352 52.1645913 19.5743445 52.2947535 19.690548 52.3179966 19.7091418 52.3412385 19.7323836 52.3691285 19.7509774 52.5039317 19.8532436 52.6526817 19.9369149 52.8153785 19.9973431 52.8432697 20.0066394 52.8711609 20.0159357 52.9036991 20.0252331 53.0710369 20.0810144 53.2430395 20.1135537 53.428977 20.1135537 53.4336251 20.1135537 53.4382733 20.1182019 53.4382733 20.1182019L53.4429214 20.1182019 56.5759534 20.1182019 56.5759534 22.9073239 53.4382804 22.9073239C53.3824992 22.9073239 53.3360142 22.9166202 53.2802365 22.9212695 53.2198059 22.9259176 53.1593801 22.9305658 53.0989519 22.9398632 53.0292251 22.9538077 52.9641487 22.9770507 52.8944147 23.0002926 52.8525779 23.0142382 52.8107423 23.0235345 52.7689054 23.0374801 52.6991786 23.0653702 52.6341022 23.1025577 52.5643682 23.1397452 52.5318289 23.1583401 52.4946414 23.1722845 52.4621032 23.1955276 52.4016726 23.2373632 52.3458914 23.283847 52.2901125 23.3303308 52.2575731 23.3582208 52.225035 23.3814639 52.1924956 23.4093539 52.1413625 23.4558389 52.0995269 23.511619 52.0576924 23.5673978 52.0298012 23.6045853 51.9972618 23.6371235 51.9693718 23.674311 51.9275362 23.7347404 51.8949968 23.7998203 51.8624574 23.8602485 51.8438637 23.897436 51.8159737 23.9346235 51.7973799 23.9764603 51.7648405 24.0508353 51.7415987 24.1298632 51.7183568 24.2088792 51.7090593 24.2414186 51.6951137 24.2693086 51.6858174 24.301848 51.3650767 25.742819 50.8072642 27.09097 50.0263624 28.313457 49.9705823 28.4017776 49.9287455 28.4901006 49.8915592 28.5830634 49.8869111 28.597009 49.8776136 28.6063053 49.8729655 28.6156027 49.7892942 28.8201399 49.7521091 29.0339591 49.7474562 29.2477902 49.7474562 29.2617359 49.7428068 29.2756803 49.7428068 29.2896259 49.7474562 29.503457 49.7892918 29.7172881 49.8636632 29.9171605 49.8683114 29.9311061 49.8729595 29.9450505 49.8776076 29.9589961 49.9659283 30.1681743 50.0914387 30.3587647 50.2541355 30.5261025 50.2587837 30.5307507 50.2587837 30.5353988 50.2634318 30.5400469L50.2773774 30.5539926C50.2820256 30.5586419 50.2820256 30.5586419 50.2820256 30.5586419L52.4807886 32.7574049 50.5051506 34.7330429 48.3063876 32.5342799C48.3063876 32.5296317 48.3017394 32.5296317 48.3017394 32.5296317L48.2877938 32.5156861C48.2831457 32.5110368 48.2784964 32.5110368 48.2738482 32.5063887 48.1065104 32.3436919 47.91592 32.2181826 47.7067418 32.1298608 47.6881481 32.1205645 47.6742025 32.1205645 47.6602568 32.1159152 47.4650254 32.0415402 47.2511943 31.9950588 47.0420161 31.9950588 47.0234224 31.9950588 47.0094768 31.9997069 46.990883 31.9997069 46.7817048 32.004355 46.5725266 32.0415425 46.3679894 32.1205633 46.3540438 32.1252114 46.3447464 32.1345077 46.3308019 32.1391559 46.2424813 32.1763434 46.1495173 32.2181802 46.0658365 32.2739591 44.8433495 33.0595495 43.4951985 33.6173501 42.0542275 33.9334141 42.01704 33.9427115 41.9891488 33.9566559 41.9519613 33.9659534 41.8729382 33.9891953 41.7985584 34.0077891 41.7241834 34.0403284 41.6776996 34.0635703 41.6312147 34.0868122 41.5893802 34.1147034 41.533599 34.1472416 41.4778177 34.1751328 41.4266834 34.2076722 41.3801996 34.2402115 41.3383628 34.2820472 41.2965212 34.3192347 41.2546796 34.3564222 41.2082006 34.3889615 41.166359 34.4307972 41.1291715 34.4679847 41.0966322 34.5144684 41.0594447 34.5563065 41.0222572 34.6027914 40.9804215 34.6492764 40.9478822 34.6957626 40.9199921 34.7375982 40.8967502 34.7887313 40.8735072 34.8352187 40.8456171 34.8909987 40.8130778 34.9421318 40.7898359 35.0025565 40.7665928 35.0583389 40.7572965 35.114119 40.7387028 35.1699062 40.720109 35.2256862 40.7015153 35.2768193 40.6922178 35.337244 40.6782734 35.4069708 40.6736252 35.4767001 40.6689759 35.5510751 40.6643278 35.5929107 40.6550303 35.6347463 40.6550303 35.6765844L40.66468 38.8328654z"/>
      <path fill="#000" fill-rule="nonzero" d="M47.005,21.5271 C47.005,17.259879 43.537221,13.7921 39.27,13.7921 C35.002779,13.7921 31.535,17.259879 31.535,21.5271 C31.535,25.794321 35.002779,29.2621 39.27,29.2621 C43.537221,29.2621 47.005,25.794321 47.005,21.5271 Z M39.27,25.6921 C36.973657,25.6921 35.105,23.823443 35.105,21.5271 C35.105,19.230757 36.973657,17.3621 39.27,17.3621 C41.566343,17.3621 43.435,19.230757 43.435,21.5271 C43.435,23.823443 41.566343,25.6921 39.27,25.6921 Z"/>
    </g>
  </g>
</svg>
