<svg xmlns="http://www.w3.org/2000/svg" width="82" height="97" viewBox="0 0 82 97">
  <defs>
    <filter id="diensten_lightbg_adviesverleningencoaching-a">
      <feColorMatrix in="SourceGraphic" values="0 0 0 0 0.007810 0 0 0 0 0.105916 0 0 0 0 0.474448 0 0 0 1.000000 0"/>
    </filter>
  </defs>
  <g fill="none" fill-rule="evenodd" filter="url(#diensten_lightbg_adviesverleningencoaching-a)" transform="translate(-845 -1710)">
    <g transform="translate(845 1710)">
      <path fill="#000" fill-rule="nonzero" d="M24.336,60.934 C19.5157,60.934 15.5938,64.8559 15.5938,69.6723 C15.5938,74.4926 19.5157,78.4106 24.336,78.4106 C29.1563,78.4106 33.0743,74.4887 33.0743,69.6723 C33.070393,64.8559 29.1524,60.934 24.336,60.934 L24.336,60.934 Z M29.7969,69.6723 C29.7969,72.684 27.3438,75.1371 24.3321,75.1371 C21.3165,75.1371 18.8673,72.684 18.8673,69.6723 C18.8673,66.6567 21.3204,64.2075 24.3321,64.2075 C27.3477,64.2075 29.7969,66.6606 29.7969,69.6723 L29.7969,69.6723 Z"/>
      <path stroke="#000" stroke-width="5" d="M77,2.5 C77.6903559,2.5 78.3153559,2.77982203 78.767767,3.23223305 C79.220178,3.68464406 79.5,4.30964406 79.5,5 L79.5,5 L79.5,92 C79.5,92.6903559 79.220178,93.3153559 78.767767,93.767767 C78.3153559,94.220178 77.6903559,94.5 77,94.5 L77,94.5 L5,94.5 C4.30964406,94.5 3.68464406,94.220178 3.23223305,93.767767 C2.77982203,93.3153559 2.5,92.6903559 2.5,92 L2.5,92 L2.5,5 C2.5,4.30964406 2.77982203,3.68464406 3.23223305,3.23223305 C3.68464406,2.77982203 4.30964406,2.5 5,2.5 L5,2.5 Z"/>
      <path fill="#000" d="M16.7344386 24.856845L21.2972252 30.180096C21.6566473 30.5994219 22.2879473 30.6479834 22.7072731 30.2885613 22.7267054 30.2719051 22.745491 30.254509 22.7635886 30.2364114L32.4203111 20.5796889C32.7573755 20.2426245 32.8096697 19.7145045 32.5452546 19.3178819L31.6766255 18.0149382C31.370273 17.5554095 30.7494037 17.4312356 30.289875 17.7375881 30.2350828 17.7741162 30.1840328 17.8159672 30.1374684 17.8625316L22.815301 25.184699C22.4247767 25.5752233 21.7916117 25.5752233 21.4010874 25.184699 21.3676279 25.1512395 21.3365855 25.1154473 21.3081942 25.0775923L19.5675919 22.7567892C19.2491517 22.3322022 18.6544888 22.2303408 18.2128917 22.5247389L16.938995 23.3740033C16.4794663 23.6803558 16.3552924 24.3012251 16.6616449 24.7607538 16.683955 24.794219 16.7082637 24.8263076 16.7344386 24.856845zM49.7344386 24.856845L54.2972252 30.180096C54.6566473 30.5994219 55.2879473 30.6479834 55.7072731 30.2885613 55.7267054 30.2719051 55.745491 30.254509 55.7635886 30.2364114L65.4203111 20.5796889C65.7573755 20.2426245 65.8096697 19.7145045 65.5452546 19.3178819L64.6766255 18.0149382C64.370273 17.5554095 63.7494037 17.4312356 63.289875 17.7375881 63.2350828 17.7741162 63.1840328 17.8159672 63.1374684 17.8625316L55.815301 25.184699C55.4247767 25.5752233 54.7916117 25.5752233 54.4010874 25.184699 54.3676279 25.1512395 54.3365855 25.1154473 54.3081942 25.0775923L52.5675919 22.7567892C52.2491517 22.3322022 51.6544888 22.2303408 51.2128917 22.5247389L49.938995 23.3740033C49.4794663 23.6803558 49.3552924 24.3012251 49.6616449 24.7607538 49.683955 24.794219 49.7082637 24.8263076 49.7344386 24.856845zM16.7344386 46.856845L21.2972252 52.180096C21.6566473 52.5994219 22.2879473 52.6479834 22.7072731 52.2885613 22.7267054 52.2719051 22.745491 52.254509 22.7635886 52.2364114L32.4203111 42.5796889C32.7573755 42.2426245 32.8096697 41.7145045 32.5452546 41.3178819L31.6766255 40.0149382C31.370273 39.5554095 30.7494037 39.4312356 30.289875 39.7375881 30.2350828 39.7741162 30.1840328 39.8159672 30.1374684 39.8625316L22.815301 47.184699C22.4247767 47.5752233 21.7916117 47.5752233 21.4010874 47.184699 21.3676279 47.1512395 21.3365855 47.1154473 21.3081942 47.0775923L19.5675919 44.7567892C19.2491517 44.3322022 18.6544888 44.2303408 18.2128917 44.5247389L16.938995 45.3740033C16.4794663 45.6803558 16.3552924 46.3012251 16.6616449 46.7607538 16.683955 46.794219 16.7082637 46.8263076 16.7344386 46.856845z"/>
      <path fill="#000" fill-rule="nonzero" d="M59.0913861,36.2117684 L59.9117363,37.7889555 L66.265017,50.0036321 C66.5198672,50.4936013 66.3292655,51.0973967 65.8392963,51.3522469 C65.3843248,51.5888934 64.8312074,51.4414514 64.5504646,51.0268841 L64.4906815,50.9265261 L59.898,42.098 L59.629289,50.2860787 C59.4697858,52.1688721 59.2563913,53.8170629 58.9805807,55.1961161 C57.0692862,64.7525885 48.9551175,74 41,74 C40.4477153,74 40,73.5522847 40,73 C40,72.4477153 40.4477153,72 41,72 C47.839036,72 55.2751211,63.5253748 57.0194193,54.8038839 C57.2526695,53.6376328 57.4413916,52.2435337 57.5866017,50.6918681 L57.6333949,50.1689068 L57.9,42.032 L52.7401423,50.5413946 C52.4742117,50.9798938 51.924953,51.1411171 51.4697506,50.9326144 L51.3665453,50.8778932 C50.9280462,50.6119625 50.7668229,50.0627038 50.9753255,49.6075014 L51.0300468,49.5042962 L58.1695208,37.7318533 L59.0913861,36.2117684 Z"/>
    </g>
  </g>
</svg>
