<svg xmlns="http://www.w3.org/2000/svg" xmlns:xlink="http://www.w3.org/1999/xlink" width="102" height="102" viewBox="0 0 102 102">
  <defs>
    <path id="logo_elevenways-a" d="M50.8,0 C71.636,0 89.542,12.544 97.378,30.492 C88.7208,37.05 82.7892,43.4392 75.0916,54.2924 L75.0916,34.7264 C75.0916,33.036 74.004,31.5372 72.396,31.0132 C70.788,30.4896 69.0264,31.0612 68.0312,32.4276 C65.358,36.098 62.6852,39.7684 60.0124,43.4384 L51.994,54.4496 L51.994,54.4496 L51.994,34.7264 C51.994,32.9028 50.7316,31.322 48.9524,30.9188 C47.174,30.5148 45.3532,31.396 44.5664,33.0412 C42.464,37.4372 39.9048,40.222 35.0836,43.866 L39.634,50.2132 C41.3752,48.8988 42.8732,47.6728 44.1844,46.4668 L44.1844,66.4448 C44.1844,68.1348 45.272,69.6336 46.88,70.158 C48.488,70.6812 50.2496,70.1096 51.2452,68.7432 L55.2544,63.23795 L55.2544,63.23795 L67.282,46.7212 L67.282,46.7212 L67.282,66.4628 C67.282,68.1408 68.3548,69.6316 69.946,70.1648 C71.5376,70.6984 73.2912,70.1548 74.3028,68.8156 C74.3028,68.8156 76.7968,65.5152 79.8648,61.0864 C87.1492,50.572 92.57,44.3296 100.0544,38.3232 C101.0644,42.3148 101.6,46.4948 101.6,50.8 C101.6,78.856 78.856,101.6 50.8,101.6 C22.744,101.6 0,78.856 0,50.8 C0,22.744 22.744,0 50.8,0 Z M23.8452,32.962 C21.4516,37.7796 19.0564,40.3296 14.4,43.8588 L18.9,50.2344 C20.6492,48.9124 22.1344,47.7032 23.4344,46.504 L23.4344,66.488 C23.4344,68.6476 25.174,70.4 27.3172,70.4 C29.4596,70.4 31.2,68.6476 31.2,66.488 L31.2,34.7124 C31.2,32.8988 29.962,31.3228 28.2096,30.9052 C26.4568,30.4884 24.6508,31.34 23.8452,32.962 Z"/>
  </defs>
  <g fill="none" fill-rule="evenodd">
    <mask id="logo_elevenways-b" fill="#fff">
      <use xlink:href="#logo_elevenways-a"/>
    </mask>
    <polygon fill="#009066" points="-.024 101.6 101.64 101.6 101.64 -.016 -.024 -.016" mask="url(#logo_elevenways-b)"/>
  </g>
</svg>
