<svg xmlns="http://www.w3.org/2000/svg" width="72" height="98" viewBox="0 0 72 98">
  <g fill="none" transform="translate(-.003)">
    <path fill="#46210F" d="M36.3589062,6.2086 C36.3589062,6.2086 35.4857062,3.774 36.6623062,2.1164 C37.8389062,0.4588 36.5883062,-8.66862138e-13 36.5883062,-8.66862138e-13 L26.1691062,5.5648 C26.1691062,5.5648 25.5253062,6.7118 27.1681062,6.7784 C28.8109062,6.845 31.5415062,8.029 33.0881062,15.3032 L33.0881062,15.3032 C33.2856941,16.5610211 34.416549,17.4559426 35.6861124,17.3591771 C36.9556758,17.2624116 37.9378343,16.2064372 37.9425062,14.9332 C37.8168179,11.9661857 37.283966,9.03052053 36.3589062,6.2086 Z"/>
    <path fill="#CB4F19" d="M65.8627062,55.278 L65.8627062,54.3678 C62.5391132,53.3227635 59.1593765,52.4654765 55.7395062,51.8 C55.5989062,56.4694 54.3113062,73.26 43.2927062,82.0512 C41.4501062,83.5312 39.2597062,84.7078 37.7353062,86.0398 C37.1149681,86.6716132 36.3543868,87.1482441 35.5153062,87.431 L35.5153062,87.431 L35.4191062,87.431 L35.4191062,87.431 C34.5170301,87.1792364 33.6959056,86.697272 33.0363062,86.0324 C31.5045062,84.7004 29.3363062,83.509 27.4789062,82.0438 C19.6423062,75.7908 16.7341062,65.5048 15.6389062,58.3638 C15.3092072,56.3459715 15.1065417,54.3094309 15.0321062,52.2662 C15.0321062,52.133 15.0321062,51.9998 15.0321062,51.8814 C11.5622139,52.5671325 8.13515674,53.4541646 4.76830619,54.538 L4.76830619,55.2188 C4.76830619,55.2188 4.14670619,79.5944 23.4681062,91.4122 C26.2357062,93.0994 29.5139062,94.4684 31.8153062,96.0002 C32.8744097,96.791305 34.0946896,97.3395467 35.3895062,97.606 L35.3895062,97.606 L35.5375062,97.606 L35.5375062,97.606 C36.7328731,97.2976684 37.8548404,96.7542942 38.8379062,96.0076 C41.1319062,94.4758 44.4101062,93.1068 47.1777062,91.4196 C66.5213062,79.6536 65.8627062,55.278 65.8627062,55.278 Z"/>
    <path fill="#46210F" d="M71.1469463,49.4172 L71.1469463,49.0916 C69.9105062,33.2926 56.6645062,20.5868 39.8369062,18.7516 L39.8369062,18.7516 C39.1709062,18.685 38.5123062,18.6258 37.8389062,18.5888 L37.6835062,18.5888 C37.0101062,18.5888 36.3367062,18.537 35.6559062,18.537 L35.5227062,18.537 C34.8197062,18.537 34.1241062,18.537 33.4285062,18.5962 L33.2583062,18.5962 C15.5427062,19.6174 1.31990619,32.6932 0.00270618689,49.0916 L0.00270618689,49.4172 C3.97903932e-13,49.4442312 3.97903932e-13,49.4715688 0.00270618689,49.4986 C-0.000902062297,49.555276 -0.000902062297,49.612124 0.00270618689,49.6688 C0.000731186165,50.2346325 0.22463341,50.7778599 0.624739868,51.1779663 C1.02484633,51.5780728 1.56807365,51.801975 2.13390619,51.800013 C2.4410018,51.7995509 2.74421338,51.7313283 3.02190619,51.6002 L3.02190619,51.6002 C11.03686,48.8992085 19.3710883,47.259729 27.8119062,46.7236 L27.8119062,46.7236 C30.3427062,46.546 32.9179062,46.4424 35.5375062,46.4424 C37.0175062,46.4424 38.4457062,46.4794 39.8813062,46.5312 L39.8813062,46.5312 C49.4780472,46.8306844 58.9792528,48.533472 68.0827062,51.5854 L68.0827062,51.5854 C68.7392055,51.8919393 69.5068906,51.8413399 70.1174763,51.4512852 C70.7280621,51.0612304 71.0966793,50.3859364 71.0945062,49.6614 C71.0981548,49.6047253 71.0981548,49.5478747 71.0945062,49.4912 C71.0945062,49.4912 71.1537062,49.4468 71.1469463,49.4172 Z"/>
  </g>
</svg>
