<svg xmlns="http://www.w3.org/2000/svg" width="609" height="330" viewBox="0 0 609 330">
  <defs>
    <linearGradient id="home_heroimage-a" x1=".034%" x2="100.002%" y1="50.001%" y2="50.001%">
      <stop offset="0%" stop-color="gray" stop-opacity=".25"/>
      <stop offset="54%" stop-color="gray" stop-opacity=".12"/>
      <stop offset="100%" stop-color="gray" stop-opacity=".1"/>
    </linearGradient>
    <filter id="home_heroimage-b">
      <feColorMatrix in="SourceGraphic" values="0 0 0 0 0.019608 0 0 0 0 0.458824 0 0 0 0 0.901961 0 0 0 1.000000 0"/>
    </filter>
  </defs>
  <g fill="none" fill-rule="evenodd">
    <path fill="#021B79" fill-rule="nonzero" d="M600.953395,299.541978 C598.664129,302.198313 596.040529,304.546734 593.148102,306.528609 C580.051539,315.584357 561.416603,319.330266 543.367198,321.694972 C539.352638,322.221656 535.325543,322.696389 531.285915,323.11917 C506.263853,325.774089 480.892621,326.660854 455.542876,327.316522 C451.911507,327.41326 448.278348,327.504624 444.643399,327.590613 C419.07878,328.21941 393.492674,328.848207 367.91194,329.305025 C337.201092,329.842458 306.484873,330.159544 275.795512,329.917699 C245.664824,329.686603 215.560995,328.93957 185.505512,327.381014 C182.615459,327.237699 179.727196,327.081843 176.840724,326.913448 C150.518675,325.414009 123.74539,323.151416 98.5782884,317.814705 C85.5386115,315.141312 72.7570438,311.33438 60.3790863,306.437245 C50.7097622,302.524732 41.4325829,297.687834 33.9872033,291.862059 C28.1856088,287.320749 23.4906148,282.188262 20.5575865,276.405482 C13.8266625,263.11476 17.382825,248.174119 25.0860533,235.14674 C32.7892815,222.119361 44.3548675,210.424816 54.3303869,198.192838 C75.5975281,172.100459 89.4676364,139.145059 69.8442802,112.413135 C64.2038412,104.733216 56.044006,97.9938041 51.451077,89.9753018 C44.8437055,78.4258637 46.2618731,65.4361049 48.6738323,53.0966401 C51.8969403,36.7049295 57.8543183,19.0287537 76.3227274,8.79065253 C95.5217076,-1.85052352 122.767714,-1.31309039 146.591855,2.4919362 C181.992325,8.14573277 214.814308,19.6897965 247.754472,30.4384592 L248.103642,30.5513201 L252.336658,31.927149 L254.227548,32.5344484 C256.988677,33.4265874 259.76234,34.3079777 262.548538,35.1786194 L263.563817,35.4903306 L263.639023,35.4903306 L264.068771,35.6246889 L264.466287,35.7429242 L265.137768,35.9578975 C268.57575,37.0327637 272.029848,38.0735926 275.500061,39.080384 L275.569895,39.080384 C276.053361,39.2254909 276.531455,39.3652235 277.014921,39.4995818 L277.047152,39.4995818 C279.027573,40.0800096 281.011575,40.6461058 282.999159,41.1978705 L283.681383,41.3913464 L283.804936,41.4235924 L283.880142,41.4235924 C308.724933,48.3242339 334.40236,53.5534583 360.955398,54.3219876 C394.459607,55.2947416 433.550535,48.0393943 455.795353,29.1916143 C477.395548,10.8758931 518.001338,9.48394127 547.283274,20.5496895 C575.216877,31.0995019 593.28777,53.435223 591.923321,75.738698 C589.946481,108.205034 552.359669,133.131182 529.937581,161.534524 C519.489339,174.776876 512.10305,190.684897 519.295953,204.964495 C532.365656,230.906393 584.048193,236.909521 602.74222,261.077889 C611.879731,272.944412 610.778503,288.121524 600.953395,299.541978 Z" opacity=".1"/>
    <path fill="#FABDBD" fill-rule="nonzero" d="M254,81.7041292 L255.928494,88.3336497 L263.449085,100.009919 C263.449085,100.009919 267.096571,103.948195 267.096571,104.481115 C267.096571,105.014035 280.526197,115.336688 286.193499,118.209125 C291.860801,121.081562 299.08594,123.442396 299.623125,125.510124 C300.16031,127.577853 303.38342,143.011206 312.515566,138.00709 C321.647711,133.002975 309.942449,121.721066 309.942449,121.721066 L302.421859,115.12352 C302.421859,115.12352 286.376142,102.669188 285.011692,98.5230734 C283.647242,94.3769585 278.280764,90.7531049 278.280764,90.7531049 L274.520468,83.9370625 L260.467708,75 L254,81.7041292 Z" transform="matrix(1 0 0 -1 0 214)"/>
    <path stroke="#535461" stroke-width="2" d="M66,220 C66,220 60.2519773,187.20876 38.9281497,170.953181 C29.9826223,164.134241 23.4218559,154.864575 20.577253,144.296833 C19.2291451,139.293836 18.3660184,134.170899 18,129"/>
    <path fill="#6C63FF" fill-rule="nonzero" d="M4.74587131 119.266438C6.53990494 122.818904 18.4146989 130 18.4146989 130 18.4146989 130 19.909727 116.584408 18.1210327 113.031941 16.3323385 109.479475 11.8846301 107.994294 8.18977515 109.718845 4.49492018 111.443396 2.95717707 115.719412 4.74587131 119.266438zM3.5665155 143.151959C7.05851939 145.178997 21 144.995701 21 144.995701 21 144.995701 14.7112088 133.059901 11.1926699 131.032864 7.71852656 129.005053 3.2924946 130.047329 1.05099901 133.421102.0449879296 135.032949-.255440443 136.997341.22174867 138.843268.698937784 140.689195 1.9107104 142.250187 3.5665155 143.151959zM21.1960799 176.999625C25.2177534 177.058221 37 170.234472 37 170.234472 37 170.234472 25.4429252 163.048495 21.4003055 163.000553 17.3576858 162.952611 14.0691298 166.026228 14.0010546 169.893551 13.9329794 173.760875 17.1691698 176.935702 21.1960799 176.999625zM40.0328839 198.927577C44.0413651 199.643781 57 194.812074 57 194.812074 57 194.812074 46.740197 185.83814 42.7370181 185.121936 38.7338391 184.405731 34.8738202 186.917791 34.1262067 190.733985 33.3785931 194.550178 36.029705 198.189993 40.0328839 198.927577zM35.54411 139.316091C34.1251917 142.920083 22.9200699 151 22.9200699 151 22.9200699 151 19.9793347 138.179935 21.3765901 134.575944 22.7738455 130.971952 27.1226675 129.111827 31.0328164 130.417085 34.9429652 131.722343 36.968444 135.712099 35.54411 139.316091zM57.4912806 165.263804C55.0179719 168.334823 42 173 42 173 42 173 43.3028564 159.830873 45.7761652 156.759853 48.3462507 153.668447 52.8491067 153.094265 56.1036856 155.442941 57.643819 156.513064 58.6696276 158.182448 58.9331514 160.047568 59.1966751 161.912687 58.6739322 163.803808 57.4912806 165.263804L57.4912806 165.263804zM76.1827188 194.563169C74.2926367 198.089719 62.2956451 205 62.2956451 205 62.2956451 205 61.2367756 191.415641 63.1268577 187.883598 65.1523014 184.312126 69.4984236 182.97952 73.0696424 184.834944 74.7676597 185.65034 76.0651881 187.15785 76.6547659 189.000254 77.2443437 190.842658 77.0735003 192.855989 76.1827188 194.563169L76.1827188 194.563169z"/>
    <path fill="#021B79" fill-rule="nonzero" d="M4.74587131 119.266438C6.53990494 122.818904 18.4146989 130 18.4146989 130 18.4146989 130 19.909727 116.584408 18.1210327 113.031941 16.3323385 109.479475 11.8846301 107.994294 8.18977515 109.718845 4.49492018 111.443396 2.95717707 115.719412 4.74587131 119.266438zM3.5665155 143.151959C7.05851939 145.178997 21 144.995701 21 144.995701 21 144.995701 14.7112088 133.059901 11.1926699 131.032864 7.71852656 129.005053 3.2924946 130.047329 1.05099901 133.421102.0449879296 135.032949-.255440443 136.997341.22174867 138.843268.698937784 140.689195 1.9107104 142.250187 3.5665155 143.151959zM21.1960799 176.999625C25.2177534 177.058221 37 170.234472 37 170.234472 37 170.234472 25.4429252 163.048495 21.4003055 163.000553 17.3576858 162.952611 14.0691298 166.026228 14.0010546 169.893551 13.9329794 173.760875 17.1691698 176.935702 21.1960799 176.999625zM40.0328839 198.927577C44.0413651 199.643781 57 194.812074 57 194.812074 57 194.812074 46.740197 185.83814 42.7370181 185.121936 38.7338391 184.405731 34.8738202 186.917791 34.1262067 190.733985 33.3785931 194.550178 36.029705 198.189993 40.0328839 198.927577zM35.54411 139.316091C34.1251917 142.920083 22.9200699 151 22.9200699 151 22.9200699 151 19.9793347 138.179935 21.3765901 134.575944 22.7738455 130.971952 27.1226675 129.111827 31.0328164 130.417085 34.9429652 131.722343 36.968444 135.712099 35.54411 139.316091zM57.4912806 165.263804C55.0179719 168.334823 42 173 42 173 42 173 43.3028564 159.830873 45.7761652 156.759853 48.3462507 153.668447 52.8491067 153.094265 56.1036856 155.442941 57.643819 156.513064 58.6696276 158.182448 58.9331514 160.047568 59.1966751 161.912687 58.6739322 163.803808 57.4912806 165.263804L57.4912806 165.263804zM76.1827188 194.563169C74.2926367 198.089719 62.2956451 205 62.2956451 205 62.2956451 205 61.2367756 191.415641 63.1268577 187.883598 65.1523014 184.312126 69.4984236 182.97952 73.0696424 184.834944 74.7676597 185.65034 76.0651881 187.15785 76.6547659 189.000254 77.2443437 190.842658 77.0735003 192.855989 76.1827188 194.563169L76.1827188 194.563169z" opacity=".25"/>
    <path stroke="#535461" stroke-width="2" d="M66.0337446,220 C66.0337446,220 74.8164984,188.025583 62.1566246,165.102648 C56.8417393,155.473411 54.7954815,144.560275 56.6963473,133.877172 C57.6187506,128.794781 59.0325503,123.812647 60.9181002,119"/>
    <path fill="#021B79" fill-rule="nonzero" d="M52.0057714 103.220878C52.1512726 107.07099 60.0568409 118 60.0568409 118 60.0568409 118 67.1432909 106.593045 66.9977897 102.737622 66.8522884 98.882199 63.3872029 95.8764558 59.2431116 96.0039078 55.0990203 96.1313598 51.8441033 99.370765 52.0057714 103.220878zM41.2842177 125.370331C43.5462025 128.642895 56 134 56 134 56 134 55.3095536 120.376233 53.0475689 117.098169 50.6707316 113.804452 46.3174098 113.022769 43.0618595 115.305134 41.5193271 116.338933 40.4506522 118.012666 40.1132248 119.923216 39.7757974 121.833766 40.2002009 123.807966 41.2842177 125.370331L41.2842177 125.370331zM42.3258306 162.30096C46.069225 163.892154 60 162.269136 60 162.269136 60 162.269136 52.2993029 151.263377 48.5666039 149.645663 44.8339049 148.027949 40.4166994 149.555496 38.6893903 153.050819 36.9620811 156.546141 38.5931316 160.68855 42.3258306 162.30096zM51.2798931 189.323027C54.72275 191.434804 69 192 69 192 69 192 63.2999779 180.310721 59.857121 178.193806 56.4083452 176.082232 51.8195437 176.839459 49.3327482 179.930499 48.1952955 181.396831 47.7586675 183.245669 48.1285075 185.029682 48.4983476 186.813696 49.6409623 188.370357 51.2798931 189.323027zM72.8729837 133.273159C69.9585593 135.923723 56 139 56 139 56 139 58.9637286 126.694893 61.8836313 124.044329 64.8733428 121.392364 69.5639291 121.310739 72.6593323 123.856813 74.1096101 125.040909 74.957881 126.73257 74.9984739 128.521638 75.0390668 130.310705 74.2682749 132.033806 72.8729837 133.273159zM81.068637 165.774733C77.3782548 167.580993 63 166.856419 63 166.856419 63 166.856419 70.0358177 155.65657 73.7262 153.85031 77.3872115 152.035172 81.9101009 153.214311 84.0691258 156.546761 85.0352896 158.133222 85.2608604 160.02776 84.6919206 161.777528 84.1229809 163.527296 82.8106598 164.975048 81.068637 165.774733L81.068637 165.774733zM85.1887478 199.195169C81.9788976 201.547814 68 203 68 203 68 203 72.7077803 190.835993 75.92833 188.488553 79.174044 186.139771 83.7312262 186.618309 86.3870918 189.586801 87.6113857 190.98699 88.178291 192.821395 87.9506884 194.646321 87.7230859 196.471247 86.721703 198.1205 85.1887478 199.195169L85.1887478 199.195169z"/>
    <path fill="#65617D" fill-rule="nonzero" d="M168 231.9344L98.5415799 317C85.5118971 314.346037 72.7401257 310.566771 60.3716552 305.705226 50.709742 301.821147 41.4396731 297.019401 34 291.235965L110.275437 229 168 231.9344zM601 299.413978C598.718681 302.071308 596.104189 304.420609 593.221802 306.403226 580.170703 315.462366 561.600457 319.209677 543.613709 321.575269 539.613085 322.102151 535.59997 322.577061 531.574365 323L458 231.956989 515.589713 229 601 299.413978zM280 234L279.876721 236.411817 279.876721 236.411817 279.839201 237.077887 277.212819 288.107431 277.212819 288.171889 276.939461 294.059087 276.800102 296.696509 276.800102 296.696509 275.090273 330C245.026236 329.769024 214.988998 329.022381 185 327.464637L222.953904 234.026858 280 234zM455 327.01983C451.387173 327.116162 447.772565 327.207143 444.156176 327.292772 418.72209 327.918934 393.266627 328.545096 367.816508 329L338 234 393.736936 234 455 327.01983z"/>
    <path fill="#000" fill-rule="nonzero" d="M168 231.9344L98.5415799 317C85.5118971 314.346037 72.7401257 310.566771 60.3716552 305.705226 50.709742 301.821147 41.4396731 297.019401 34 291.235965L110.275437 229 168 231.9344zM601 299.413978C598.718681 302.071308 596.104189 304.420609 593.221802 306.403226 580.170703 315.462366 561.600457 319.209677 543.613709 321.575269 539.613085 322.102151 535.59997 322.577061 531.574365 323L458 231.956989 515.589713 229 601 299.413978zM280 234L279.876721 236.411817 279.876721 236.411817 279.839201 237.077887 277.212819 288.107431 277.212819 288.171889 276.939461 294.059087 276.800102 296.696509 276.800102 296.696509 275.090273 330C245.026236 329.769024 214.988998 329.022381 185 327.464637L222.953904 234.026858 280 234zM455 327.01983C451.387173 327.116162 447.772565 327.207143 444.156176 327.292772 418.72209 327.918934 393.266627 328.545096 367.816508 329L338 234 393.736936 234 455 327.01983z" opacity=".1"/>
    <path fill="#3F3D56" fill-rule="nonzero" d="M314.890037,286.017756 C313.315569,285.949123 304.718644,289.470539 304.718644,289.470539 C304.718644,289.470539 301.99465,290.943514 295.037569,291.888542 C290.493947,292.511521 289.889221,290.389169 290.014524,288.84228 C290.057246,288.334716 290.172765,287.8354 290.357747,287.358745 L290.357747,277.99822 C290.357747,277.99822 304.522516,269.61968 305.612114,269.091731 C305.749463,269.03304 305.897845,269.002484 306.047953,269.00198 C307.796757,268.933347 312.808906,270.659738 315.516556,272.512837 C318.507501,274.566556 322.315645,273.310039 322.315645,273.310039 C322.315645,273.310039 329.703117,267.539563 331.648048,271.76315 C331.763111,272.005424 331.852552,272.258371 331.915,272.518116 C333.336925,278.09853 316.469954,286.065271 314.890037,286.017756 Z"/>
    <path fill="#000" fill-rule="nonzero" d="M292,279.557285 L292,277.245828 C292,277.245828 305.880826,268.634837 306.948582,268.092241 C307.083178,268.031922 307.228585,268.000518 307.375685,268 C308.010999,268.667393 308.582249,269.264248 308.923931,269.627787 C309.93296,270.658718 300.723566,282.400486 292,279.557285 Z" opacity=".1"/>
    <path fill="#65617D" fill-rule="nonzero" d="M288.990913,278.56392 L287.723318,272.803644 L287.723318,272.803644 C287.723318,272.803644 287.723318,267.825694 285.973082,266.861182 C284.222846,265.896671 279.454779,232.481711 279.454779,232.481711 C279.454779,232.481711 279.613891,225.09784 278.340993,224.133329 C277.068094,223.168818 278.340993,222.107855 278.340993,222.107855 C278.336135,221.044797 278.145824,219.990928 277.778796,218.994627 C277.361472,217.910916 277.071322,216.781519 276.914285,215.629554 C276.914285,215.629554 277.550735,213.218275 276.914285,212.580626 C276.468771,212.130521 277.036271,211.289253 275.996737,209.606716 C275.326141,208.60713 274.510898,207.714849 273.578229,206.959668 C269.976986,203.883949 273.530496,169.043655 274.506385,160.089775 C274.65489,158.755534 274.745053,158 274.745053,158 L283.231046,158 L284.291795,161.852687 L285.983689,168.973996 C285.983689,168.973996 287.097476,169.718813 287.097476,170.683324 C287.097476,171.647836 293.769587,192.031176 293.769587,192.031176 C294.258986,192.852167 294.684564,193.710302 295.042486,194.597848 C295.201599,195.240855 296.63361,196.366119 296.63361,196.366119 C296.081696,197.589821 296.081696,198.995103 296.63361,200.218806 C297.58298,202.14247 300.28789,210.169348 299.333216,214.022035 C298.378542,217.874722 297.264755,218.196226 297.264755,218.196226 C297.264755,218.196226 296.315385,221.046893 297.901205,222.107855 C299.487025,223.168818 298.378542,225.09784 298.378542,225.09784 L300.447002,243.080619 C300.447002,243.080619 300.28789,251.118213 302.669272,253.995672 C305.050653,256.873131 305.368878,263.785463 305.368878,263.785463 L303.576212,264.557072 L303.252684,264.701748 L303.146609,264.749974 C303.146609,264.749974 306.800889,268.602661 307.919979,269.727924 C309.03907,270.853188 298.203518,284.350988 288.990913,278.56392 Z"/>
    <path fill="#000" fill-rule="nonzero" d="M309,269.564337 C308.000789,272.414876 297.958991,282.712581 289.319401,277.595284 L288,271.941539 C290.362776,270.116563 297.73265,264.788895 304.147476,264 L304.037066,264.047334 L304.484227,264.489115 L304.147476,264.631116 L304.037066,264.678449 C304.037066,264.678449 307.840694,268.459884 309,269.564337 Z" opacity=".1"/>
    <path fill="#65617D" fill-rule="nonzero" d="M289.313837,278.590155 L288,272.938543 C290.352813,271.114255 297.691611,265.788597 304.079389,265 L303.969445,265.047316 C303.969445,265.047316 307.757034,268.827324 308.916949,269.93136 C310.076864,271.035396 298.862521,284.268053 289.313837,278.590155 Z"/>
    <circle cx="313.5" cy="273.5" r="1" fill="#FFF" fill-rule="nonzero"/>
    <circle cx="310.5" cy="273.5" r="1" fill="#FFF" fill-rule="nonzero"/>
    <circle cx="315.5" cy="273.5" r="1" fill="#FFF" fill-rule="nonzero"/>
    <circle cx="308.5" cy="272.5" r="1" fill="#FFF" fill-rule="nonzero"/>
    <path fill="#000" fill-rule="nonzero" d="M314.890037,286.79216 C313.315569,286.720939 304.718644,290.37515 304.718644,290.37515 C304.718644,290.37515 301.99465,291.903673 295.037569,292.884339 C290.493947,293.530811 289.889221,291.328423 290.014524,289.723199 C291.164915,290.246004 292.462969,290.339242 293.675572,289.986171 C296.775477,289.169863 307.497118,287.444111 307.497118,287.444111 C307.497118,287.444111 314.579502,284.847265 314.786526,283.368049 L331.648048,272 C331.763111,272.251411 331.852552,272.513896 331.915,272.783437 C333.336925,278.574293 316.469954,286.841467 314.890037,286.79216 Z" opacity=".1"/>
    <rect width="3" height="124" x="305" y="159" fill="#6C63FF" fill-rule="nonzero"/>
    <path fill="#6C63FF" fill-rule="nonzero" d="M308.475188,160.706244 C308.725634,158.022575 310.76331,155.93709 313.272009,155.796879 C315.780708,155.656668 318.009055,157.503724 318.517681,160.144968 C318.961516,160.457336 319.377966,160.812403 319.761884,161.205779 C320.173808,161.614688 320.780101,161.702946 321.278567,161.426563 C321.777033,161.150181 322.060989,160.56831 321.988902,159.970973 C321.986034,159.939242 321.986034,159.907287 321.988902,159.875556 C321.517668,156.317768 319.153417,153.383862 315.941889,152.371544 C312.730362,151.359227 309.264109,152.455279 307.076303,155.174901 C304.888497,157.894523 304.382805,161.735924 305.782901,165 C306.277193,163.32062 307.211947,161.829841 308.475188,160.706244 L308.475188,160.706244 Z"/>
    <rect width="7" height="9" x="302" y="279" fill="#6C63FF" fill-rule="nonzero"/>
    <path fill="#FABDBD" fill-rule="nonzero" d="M275.848663,50.5066982 C274.457675,52.3080097 273.336892,54.3025045 272.521699,56.4272157 C269.882308,63.3899216 271.861851,69 271.861851,69 C271.861851,69 247.830081,63.6837301 250.158956,61.0283669 C251.56737,59.4151922 252.731808,53.2119533 253.43047,48.5775408 C253.885155,45.5563029 254.145768,43.2002917 254.145768,43.2002917 C254.145768,43.2002917 283.045996,41.0992841 275.848663,50.5066982 Z"/>
    <path fill="#3F3D56" fill-rule="nonzero" d="M281.968582,291.449762 C281.681557,293.03799 280.854625,294.476136 279.629652,295.517479 C277.859362,297.024641 260.987956,297.564843 257.56003,296.273761 C254.132103,294.98268 243.204582,294.491096 240.468678,294.383056 C237.732775,294.275016 236.6706,291.741471 236.075139,290.499008 C235.908839,290.142475 236.032223,289.359183 236.311178,288.419232 C236.992471,286.112572 238.580368,282.86056 238.918333,282.514831 C239.17583,282.255534 239.422598,281.196739 239.588898,280.267593 C239.73374,279.462693 239.830301,278.755029 239.830301,278.755029 C247.163596,283.789706 256.808997,275.232916 256.808997,275.232916 C257.170378,275.038677 257.583041,274.963123 257.989191,275.016835 C259.834585,275.24372 261.846279,277.680028 261.846279,278.755029 C261.846279,280.067718 266.931841,282.536439 266.931841,282.536439 C268.38026,284.211063 274.806952,287.33883 274.806952,287.33883 C274.806952,287.33883 279.200491,287.44687 281.131717,289.116092 C281.78957,289.698038 282.105428,290.578836 281.968582,291.449762 L281.968582,291.449762 Z"/>
    <path fill="#000" fill-rule="nonzero" d="M282 290.825416C281.712779 292.306148 280.885282 293.646958 279.659472 294.61782 277.887971 296.022973 261.005034 296.526613 257.574765 295.322915 254.144496 294.119217 243.209506 293.660905 240.471733 293.560177 237.733959 293.45945 236.671059 291.097381 236.07519 289.939011 235.908777 289.606609 236.032245 288.876332 236.31139 288 238.721043 288.554881 241.095704 289.235859 243.424234 290.039739 246.854503 291.298837 253.98345 293.106902 255.234237 292.557935 255.212764 292.573044 272.127911 297.000034 282 290.825416zM276.026565 209C275.350964 207.993136 274.529636 207.094359 273.590008 206.33368 269.961889 203.235567 273.541918 168.141614 274.52509 159.122544 278.719601 158.885058 281.658431 158.966019 281.909567 159.602913 282.775186 161.788864 277.170037 201.108988 276.026565 209zM258 276.01739L258 277.684823C245.813411 288.819127 240.938776 285.010672 239 280.802625 239.149563 280.067574 239.249271 279.42132 239.249271 279.42132 246.821574 284.019092 256.781341 276.204853 256.781341 276.204853 257.155725 276.030859 257.581772 275.965321 258 276.01739L258 276.01739z" opacity=".1"/>
    <path fill="#65617D" fill-rule="nonzero" d="M280.904144,164.423063 C280.207126,175.156331 274.781108,211.883565 274.781108,211.883565 C274.781108,211.883565 271.730313,225.332222 271.086912,225.813295 C270.443511,226.294368 266.432976,229.020447 266.432976,229.020447 C266.432976,229.020447 266.272126,235.269047 264.985323,237.038326 C263.69852,238.807605 263.215969,243.286927 263.215969,243.286927 C263.215969,243.286927 261.130277,252.250917 260.486876,256.735584 C259.843474,261.220251 257.596931,267.303149 257.596931,267.303149 L257.596931,277.074272 C242.766531,292.238755 239.115229,281.820857 238.257361,277.117034 C238.132859,276.466964 238.046923,275.810139 238,275.149981 L246.353494,224.551815 C246.353494,224.551815 248.117486,222.146451 247.795785,220.868936 C247.474084,219.59142 248.439186,217.982499 248.439186,217.982499 L248.412378,215.101408 C248.412378,215.101408 250.36939,212.541031 248.412378,211.097813 C246.455365,209.654595 248.412378,198.766314 248.412378,198.766314 C248.412378,198.766314 246.192643,192.523058 247.340042,190.748434 C248.487441,188.97381 247.340042,186.10341 248.138932,184.499834 C248.937822,182.896258 248.138932,184.499834 245.248988,180.175524 C243.736995,177.919827 242.450192,173.830708 241.560154,170.441818 C240.745179,167.325535 240.26799,164.802576 240.26799,164.802576 C240.26799,164.802576 279.944403,159.200751 280.909505,161.595424 C281.031934,162.534137 281.030131,163.484818 280.904144,164.423063 Z"/>
    <path fill="#000" fill-rule="nonzero" d="M274.876484,50.413699 C273.519107,52.1926945 272.425407,54.1624798 271.629912,56.2608683 C270.095263,56.7534507 268.494519,57.0027705 266.884506,57 C261.11643,57 257.918556,52.7021979 255.196847,48.0102278 C255.072395,47.7967075 253.11363,48.7274367 253,48.5084416 C253.443698,45.5246333 253.698013,43.1978104 253.698013,43.1978104 C253.698013,43.1978104 281.899901,41.1228318 274.876484,50.413699 Z" opacity=".1"/>
    <path fill="#FABDBD" fill-rule="nonzero" d="M282,41.4777126 C282.010424,48.9212019 276.727902,55.3209783 269.417321,56.7216096 C262.10674,58.1222408 254.832833,54.1281459 252.091295,47.2079066 C249.349757,40.2876674 251.914882,32.3957707 258.201275,28.4098655 C264.487667,24.4239603 272.719858,25.469788 277.809876,30.9009665 C280.499085,33.766504 281.997151,37.5479486 282,41.4777126 Z"/>
    <path fill="#000" fill-rule="nonzero" d="M280.924199,162.440318 C275.648877,163.364336 266.063757,165.174766 265.281629,166.25995 C264.202831,167.758793 256.111847,168.188568 251.257256,168.833232 C248.468564,169.203914 244.379919,168.897698 241.299951,168.489411 C240.480065,165.357421 240,162.821744 240,162.821744 C240,162.821744 279.915522,157.191681 280.886441,159.598425 C281.02394,160.539988 281.036634,161.495462 280.924199,162.440318 Z" opacity=".1"/>
    <path fill="#6C63FF" fill-rule="nonzero" d="M285,160.882528 C285,160.882528 267.211446,163.768855 266.144026,165.268245 C265.076606,166.767636 257.070956,167.190678 252.267567,167.833274 C247.464177,168.47587 238.839423,167.083579 238.198971,166.655182 C234.463001,164.154413 236.277615,134.787778 237.878745,131.146401 C239.479875,127.505024 238.946165,107.193637 237.451777,99.0647981 C235.957389,90.9359594 238.198971,80.7775885 238.198971,80.7775885 C238.198971,80.7775885 240.435216,73.6126437 240.013585,72.1132531 C239.591954,70.6138626 242.148425,67.4115928 242.148425,67.4115928 C242.148425,67.4115928 246.092542,60.883889 248.115303,59.9146401 C248.865304,59.5531987 249.422169,58.8831136 249.641713,58.0778867 C250.020648,56.8944391 249.972614,55.4004035 250.036659,54.1419865 C250.143401,52 252.272904,52 252.272904,52 C258.35186,52.958539 272.63394,61.9441723 272.63394,61.9441723 C272.10023,63.9737045 275.510636,69.751713 275.510636,69.751713 C275.569345,69.8427474 275.617378,69.9391368 275.670749,70.0408812 C279.406719,77.1040816 282.123303,98.7327902 282.123303,98.7327902 C282.123303,98.7327902 282.310102,109.06252 282.278079,116.666572 C282.278079,120.463243 282.187348,123.579833 282.011224,124.399143 C281.701672,125.855694 282.315439,132.619016 282.939879,139.055686 C283.366847,143.505663 283.80449,147.794991 283.937917,150.065496 C284.290166,155.640016 285,160.882528 285,160.882528 Z"/>
    <path fill="#000" fill-rule="nonzero" d="M268 131C268 131 264.142888 143.072598 265.175737 144.858021 266.208586 146.643445 268 131 268 131zM274 137C274 137 269.779149 145.214372 271.350566 146.841845 272.921983 148.469317 274 137 274 137zM258 273L258 275.665994C242.663155 289.698321 238.887164 280.058206 238 275.705563 240.789021 277.842315 247.187691 280.503363 258 273z" opacity=".1"/>
    <path fill="#65617D" fill-rule="nonzero" d="M258,273 L258,275.665994 C242.663155,289.698321 238.887164,280.058206 238,275.705563 C240.789021,277.842315 247.187691,280.503363 258,273 Z"/>
    <circle cx="256.5" cy="280.5" r="1" fill="#FFF" fill-rule="nonzero"/>
    <circle cx="263.5" cy="285.5" r="1" fill="#FFF" fill-rule="nonzero"/>
    <circle cx="259.5" cy="284.5" r="1" fill="#FFF" fill-rule="nonzero"/>
    <circle cx="264.5" cy="286.5" r="1" fill="#FFF" fill-rule="nonzero"/>
    <circle cx="258.5" cy="282.5" r="1" fill="#FFF" fill-rule="nonzero"/>
    <path fill="#000" fill-rule="nonzero" d="M260 179C260 179 256.308888 188.628984 251.932722 188.990735 247.556555 189.352487 260 179 260 179zM261 193C261 193 255.005871 202.89704 253.221842 202.99923 251.437812 203.101419 261 193 261 193zM265 228C265 228 257.553721 232.600952 259.25181 232.980733 260.949899 233.360514 265 228 265 228zM250 229C250 229 257.555398 226 258.881186 226 260.206975 226 250 229 250 229zM290 215.5C290 215.5 295.757009 214.375 295.993437 215.5 296.229864 216.625 290 215.5 290 215.5zM296 222C296 222 292.566272 222.095458 293.045954 223.590959 293.525637 225.08646 296 222 296 222zM276 72C271.914292 70.3706231 264.789215 67.2302671 261.572688 64.0335312 258.356162 60.8367953 252.454583 59.7824926 249 59.3991098 249.39307 58.1531157 249.343244 56.5801187 249.409678 55.2551929 249.520402 53 251.729342 53 251.729342 53 258.035063 54.0091988 272.849908 63.4697329 272.849908 63.4697329 272.296289 65.6065282 275.833914 71.689911 275.833914 71.689911 275.894812 71.7913947 275.944638 71.8928783 276 72z" opacity=".1"/>
    <path fill="#6C63FF" fill-rule="nonzero" d="M276,71 C271.914292,69.3706231 264.789215,66.2302671 261.572688,63.0391691 C258.356162,59.8480712 252.454583,58.7824926 249,58.3991098 C249.39307,57.1531157 249.343244,55.5801187 249.409678,54.2551929 C249.520402,52 251.729342,52 251.729342,52 C258.035063,53.0091988 272.849908,62.4697329 272.849908,62.4697329 C272.296289,64.6065282 275.833914,70.689911 275.833914,70.689911 C275.894812,70.7913947 275.944638,70.8928783 276,71 Z"/>
    <path fill="#000" fill-rule="nonzero" d="M282,140 C275.717745,135.891997 266.908816,128.924398 266.908816,128.492258 C266.908816,127.958751 263.306848,124.016135 263.306848,124.016135 L256.219448,111.046584 L254,105.711516 L260.356413,99 L274.218691,107.94691 L277.926599,114.765127 C279.15687,115.644254 280.307297,116.631553 281.364359,117.71542 C281.364359,121.497983 281.274309,124.602993 281.099508,125.419258 C280.771093,126.849057 281.38025,133.587248 282,140 Z" opacity=".1"/>
    <path fill="#FABDBD" fill-rule="nonzero" d="M254,104.704129 L255.928494,111.33365 L263.449085,123.009919 C263.449085,123.009919 267.096571,126.948195 267.096571,127.481115 C267.096571,128.014035 280.526197,138.336688 286.193499,141.209125 C291.860801,144.081562 299.08594,146.442396 299.623125,148.510124 C300.16031,150.577853 303.38342,166.011206 312.515566,161.00709 C321.647711,156.002975 309.942449,144.721066 309.942449,144.721066 L302.421859,138.12352 C302.421859,138.12352 286.376142,125.669188 285.011692,121.523073 C283.647242,117.376958 278.280764,113.753105 278.280764,113.753105 L274.520468,106.937063 L260.467708,98 L254,104.704129 Z"/>
    <path fill="#000" fill-rule="nonzero" d="M252.020285,69.3249632 C252.020285,69.3249632 238.634724,75.3248836 242.805348,84.8743547 C246.975973,94.4238258 256.081011,112 256.081011,112 C256.081011,112 254.987527,105.860671 257.399786,105.324485 C259.812044,104.788299 276,107.420972 276,107.420972 C276,107.420972 271.554631,100.2897 272.323916,96.2200486 C273.093201,92.1503975 266.510319,65.7914981 252.020285,69.3249632 Z" opacity=".1"/>
    <path fill="#000" fill-rule="nonzero" d="M253.0028,67.3262841 C253.0028,67.3262841 239.645342,73.3244252 243.801727,82.8474131 C247.958111,92.370401 257.055001,110 257.055001,110 C257.055001,110 255.95833,103.862367 258.371007,103.325861 C260.783684,102.789355 276,105.573823 276,105.573823 C276,105.573823 272.496135,98.2880662 273.258321,94.2159829 C274.020508,90.1438996 267.47338,63.7853421 253.0028,67.3262841 Z" opacity=".1"/>
    <path fill="#6C63FF" fill-rule="nonzero" d="M253.000324,67.3249035 C253.000324,67.3249035 239.641428,73.3248322 243.803744,82.8743167 C247.96606,92.4238012 257.052961,110 257.052961,110 C257.052961,110 255.956172,103.866025 258.369109,103.329838 C260.782046,102.793651 276,105.57646 276,105.57646 C276,105.57646 272.495758,98.2950451 273.258026,94.2253884 C274.020295,90.1557316 267.461494,63.7914333 253.000324,67.3249035 Z"/>
    <path fill="#000" fill-rule="nonzero" d="M279,30.7832019 C277.17087,31.3757902 275.223035,31.719703 273.604336,30.8255296 C272.487434,30.2170685 271.64571,29.0742197 270.366938,28.8361262 C269.217661,28.6191966 268.041407,29.2699855 267.302201,30.1588679 C266.61504,31.0944564 266.069805,32.1227768 265.683502,33.2117556 C264.867291,35.1142626 263.870081,36.9371207 262.705095,38.6561603 C261.982076,39.7143536 261.021648,40.8360385 259.726689,40.8889482 C257.951515,40.9683127 256.753678,39.0476918 255.037857,38.5820867 C250.845426,37.433947 253.268079,41.9630144 253.883185,43.6719966 C254.490973,45.3587873 254.704864,47.157853 254.509082,48.9365084 C254.370614,48.9679767 254.229931,48.9892002 254.08822,49 C250.132897,42.2634557 251.939861,33.6907078 258.294588,29.0437986 C264.649315,24.3968893 273.543908,25.144099 279,30.7832019 L279,30.7832019 Z" opacity=".1"/>
    <path fill="#7C5C5C" fill-rule="nonzero" d="M254.106165,37.3820546 C255.809118,37.856309 257.001723,39.8126082 258.769142,39.7371587 C260.063817,39.6778769 261.020049,38.5407442 261.734538,37.4575041 C262.894614,35.7123208 263.887503,33.860947 264.699934,31.9281293 C265.084549,30.8189211 265.627402,29.7714981 266.311562,28.8185295 C267.052911,27.9131348 268.218655,27.2502566 269.362911,27.471216 C270.609237,27.7137324 271.447284,28.8778113 272.586167,29.4975756 C274.616819,30.6347082 277.141703,29.8101523 279.312029,28.9586502 C280.386448,28.5490668 281.562936,27.9562489 281.745588,26.8460625 C281.874518,26.0646206 281.428634,25.2777895 281.530704,24.4909584 C281.632774,23.7041272 282.21296,23.1544233 282.605123,22.5077128 C282.997285,21.8610023 283.222913,20.9286613 282.669588,20.4059036 C282.266681,20.0286558 281.638146,20.0556021 281.122425,19.8669782 C279.838494,19.3657776 279.510796,17.6358269 278.366541,16.8597743 C277.130959,16.0244399 275.481726,16.5849224 273.988284,16.6549827 C271.839446,16.7519892 269.835655,15.7603665 267.842609,14.9681461 C265.849562,14.1759257 263.577166,13.56694 261.605608,14.3968851 C260.429119,14.8980858 259.515863,15.8412053 258.516654,16.6388149 C256.562511,18.1823883 254.229804,19.1690899 251.763932,19.4951197 C250.549838,19.6567973 249.222931,19.6837436 248.266699,20.4436284 C247.06335,21.4029157 246.880698,23.1705911 247.111698,24.69575 C247.342698,26.220909 247.879908,27.7191217 247.75635,29.2496699 C247.562954,31.6802236 245.752559,33.6796369 245.150884,36.0401303 C244.880096,36.8032797 244.977321,37.6492547 245.414117,38.3305633 C245.771565,38.6878884 246.183148,38.9861929 246.633582,39.214401 C247.801301,39.9773556 248.570852,41.2212574 248.734071,42.6096312 C248.814652,43.304845 248.734071,44.0108373 248.841513,44.7006619 C249.287756,46.8950481 251.398629,48.3307199 253.595816,47.9342144 C253.788183,46.1225297 253.575293,44.2906109 252.972653,42.5719064 C252.338746,40.8257881 249.932048,36.2395327 254.106165,37.3820546 Z"/>
    <path fill="#000" fill-rule="nonzero" d="M34.0019718.268421053C34.0167089.295025114 34.0346812.319768129 34.055493.342105263L34.0019718.268421053zM37.3684507 4.92631579C37.7752113 4.3 37.9892958 3.37894737 37.4326761 2.87368421 37.3403855 2.79157703 37.2356569 2.72410213 37.1222535 2.67368421 37.1293262 3.13839703 36.9910729 3.59403176 36.7261972 3.97894737 36.3194366 4.60526316 35.7467606 5.17894737 35.6557746 5.91578947 35.5647887 6.65263158 35.9929577 7.44736842 35.8698592 8.21052632 35.6878873 9.3 34.4890141 9.87368421 33.4453521 10.2736842 31.304507 11.1 28.7676056 11.9105263 26.7391549 10.8 25.6366197 10.1894737 24.8016901 9.05789474 23.56 8.82105263 22.42 8.60526316 21.2532394 9.25263158 20.52 10.1368421 19.8373483 11.0668852 19.2964326 12.0899551 18.9143662 13.1736842 18.1026179 15.0651936 17.1135615 16.8782801 15.96 18.5894737 15.2428169 19.6421053 14.295493 20.7578947 13.0056338 20.8105263 11.2447887 20.8842105 10.0566197 18.9789474 8.35464789 18.5157895 4.19605634 17.3736842 6.59915493 21.8789474 7.20929577 23.5789474 7.81385976 25.2656069 8.02601551 27.0641381 7.83014085 28.8421053 6.41799022 29.0970056 4.97378581 28.6009353 4.03014085 27.5368421 4.82550767 29.1836417 6.64118719 30.1054691 8.46704225 29.7894737 8.66350829 28.020559 8.45316018 26.2308393 7.8515493 24.5526316 7.24140845 22.8526316 4.83830986 18.3473684 8.99690141 19.4842105 10.6988732 19.9526316 11.8870423 21.8578947 13.6478873 21.7842105 14.9323944 21.7315789 15.8850704 20.6157895 16.5969014 19.5631579 17.7533001 17.8509014 18.7441941 16.0359691 19.5566197 14.1421053 19.9398046 13.0588501 20.4806387 12.0359344 21.1622535 11.1052632 21.8632072 10.1638448 23.0232383 9.66376217 24.2022535 9.79473684 25.4439437 10.0315789 26.2788732 11.1631579 27.3814085 11.7684211 29.4098592 12.8842105 31.9253521 12.0736842 34.0876056 11.2421053 35.1580282 10.8421053 36.3301408 10.2684211 36.5067606 9.17894737 36.6352113 8.41578947 36.1909859 7.64736842 36.2980282 6.88421053 36.4050704 6.12105263 36.9616901 5.55263158 37.3684507 4.92631579zM.893802817 20.2789474C.59943662 20.0894737.278309859 19.9263158 0 19.7157895.0588468236 19.9506445.166346963 20.1710301.315774648 20.3631579.674095709 20.7119013 1.08586891 21.0031663 1.53605634 21.2263158 1.91463277 21.4697848 2.25382457 21.7678546 2.54225352 22.1105263 2.16849771 21.3664955 1.59939233 20.7341676.893802817 20.2789474L.893802817 20.2789474z" opacity=".1" transform="translate(245 18)"/>
    <path fill="#000" fill-rule="nonzero" d="M284.911017,37.5477355 C284.911017,37.5477355 280.464427,34.6039891 277.818297,37.779324 L276.225163,37.779324 C274.632029,33.4614862 266.748198,35.4634396 266.748198,35.4634396 L256,37.1205835 L256.20187,37.779324 L266.748198,36.9661912 C266.748198,36.9661912 266.993716,41.0164157 268.423172,42.3287502 C269.852627,43.6410847 272.957056,42.9051481 272.957056,42.9051481 C274.833899,42.678706 275.734129,39.8996448 276.066941,38.5306998 L277.605516,38.6130423 C277.327263,40.0077194 277.141761,42.7301701 279.656949,43.6771095 C283.09419,44.9482728 284.185377,42.0559905 284.185377,42.0559905 C284.185377,42.0559905 285.320213,38.319697 284.911017,37.5477355 Z" opacity=".1"/>
    <path fill="#3F3D56" fill-rule="nonzero" d="M284.913023,37.5477355 C284.913023,37.5477355 280.466125,34.6039891 277.819811,37.779324 L276.226566,37.779324 C274.633322,33.4614862 266.748944,35.4634396 266.748944,35.4634396 L256,37.1257299 L256.201884,37.779324 L266.748944,36.9713376 C266.748944,36.9713376 266.994478,41.0164157 268.424033,42.3287502 C269.853588,43.6410847 272.958233,42.9051481 272.958233,42.9051481 C274.835206,42.678706 275.735498,39.8996448 276.068333,38.5306998 L277.607015,38.6130423 C277.328742,40.0077194 277.143228,42.7301701 279.65859,43.6771095 C283.090613,44.9482728 284.154595,42.0559905 284.154595,42.0559905 C284.154595,42.0559905 285.322247,38.3299898 284.913023,37.5477355 Z"/>
    <path fill="url(#home_heroimage-a)" fill-rule="nonzero" d="M332.915543,272.292449 C332.857721,272.025399 332.76896,271.76592 332.65104,271.519212 C331.306936,268.539027 327.355593,270.445272 325.061439,271.91657 L324.75915,272.10451 C323.91706,272.64148 323.361065,273.103274 323.361065,273.103274 L323.285493,273.103274 L323.285493,273.103274 C322.745692,273.269735 319.328752,274.177215 316.613553,272.265601 C314.024684,270.581276 311.14357,269.390445 308.117086,268.753815 L308.117086,160.8228 C309.563753,161.295333 311.25333,161.155721 313.212807,160.076411 C314.341314,159.502377 315.289819,158.631282 315.954996,157.558021 C316.061725,157.38615 316.155546,157.206671 316.235693,157.02105 L316.300469,157.074747 C317.282086,157.832737 317.959663,158.914221 318.211364,160.124738 C318.672336,160.422191 319.104266,160.761968 319.501489,161.139612 C319.808278,161.438741 320.238675,161.576842 320.663351,161.512419 C321.088026,161.447995 321.457479,161.188556 321.660692,160.81206 C321.809109,160.553479 321.866125,160.252878 321.822633,159.958278 C321.825594,159.927921 321.825594,159.89735 321.822633,159.866993 C321.358524,156.859423 319.366502,154.303271 316.554175,153.106538 C315.550145,148.36509 310.648753,143.607534 310.648753,143.607534 L303.091539,136.932994 C303.091539,136.932994 286.929898,124.330303 285.558803,120.125826 C284.91644,118.165885 283.399599,116.329447 281.963729,114.922585 C281.963729,107.496286 281.812585,98.4698169 281.812585,98.4698169 C281.812585,98.4698169 279.038008,76.6688256 275.232411,69.5539701 C275.178431,69.4519458 275.129849,69.3552911 275.07047,69.2640062 C275.07047,69.2640062 272.371466,64.705129 272.117759,62.2350659 C272.117759,62.1652598 272.117759,62.1061931 272.155545,62.0417566 L272.101565,62.0149081 C272.092953,61.8076206 272.111095,61.60009 272.155545,61.3973924 L270.681889,60.5006521 L270.644102,60.5006521 C270.753477,58.9401364 271.045134,57.3975955 271.513182,55.9041869 C271.54557,55.7914232 271.588754,55.6732897 271.62654,55.5497866 C271.718306,55.2651924 271.826267,54.9805981 271.934227,54.6852645 C271.977411,54.5617614 272.031391,54.4382582 272.079973,54.3093854 C272.247311,54.261058 272.41465,54.2019913 272.57659,54.1375549 C277.166784,52.4487133 280.703402,48.7281338 282.141863,44.0747328 C282.185047,43.9404903 282.228231,43.800878 282.266017,43.6666355 C282.357784,43.3444533 282.438754,43.0169015 282.508928,42.6893496 C282.546714,42.646392 282.589898,42.6141738 282.627684,42.5658465 C282.969831,42.2306402 283.238209,41.8283555 283.415794,41.384512 C283.413508,41.3757069 283.413508,41.3664686 283.415794,41.3576635 C283.475172,41.1428754 283.901614,39.6286193 284.112137,38.3559999 L284.112137,38.3559999 C284.112137,38.3559999 284.112137,38.3291514 284.112137,38.318412 C284.187577,37.9130212 284.220142,37.5008874 284.209301,37.0887502 C284.242344,36.8406264 284.214564,36.5882338 284.128331,36.353101 C283.559293,35.975487 282.946733,35.6672075 282.303803,35.4348819 C281.708251,33.1967602 280.616316,31.1197518 279.108182,29.3563789 C279.089474,29.3306171 279.067726,29.3071809 279.043406,29.2865728 C278.903057,29.1093726 278.746515,28.9429118 278.589973,28.776451 C278.433431,28.6099903 278.37945,28.5562933 278.266092,28.4488992 C278.730321,28.2931778 279.183754,28.1320868 279.620993,27.9602563 C280.52246,27.6165954 281.531888,27.1333221 281.925943,26.306388 C281.927642,26.2921187 281.927642,26.2776997 281.925943,26.2634304 C281.986697,26.1302375 282.028485,25.9892679 282.050097,25.8445936 C282.078767,25.3139569 282.018569,24.7822701 281.871963,24.2712708 C281.869321,24.2265619 281.869321,24.1817372 281.871963,24.1370283 L281.871963,24.1370283 C281.839934,23.9252215 281.839934,23.7098405 281.871963,23.4980337 C281.969127,22.7409057 282.55751,22.1556081 282.951565,21.5166136 C283.03914,21.3808846 283.113261,21.2370175 283.172883,21.0870374 L283.172883,21.0870374 L283.172883,21.0870374 C283.403856,20.631073 283.403856,20.0931821 283.172883,19.6372178 C283.120821,19.5287492 283.049503,19.4305196 282.962361,19.3472539 C282.868114,19.2635377 282.762771,19.1930751 282.649276,19.1378355 L282.649276,19.2076416 C282.276813,19.0465505 281.834177,19.019702 281.44552,18.8693503 C280.155396,18.3753377 279.826117,16.6355542 278.670943,15.8623171 C277.429401,15.0246435 275.766814,15.5884623 274.266167,15.6582684 C272.106963,15.754923 270.077311,14.7668978 268.080048,13.9721819 C266.082784,13.1774659 263.76164,12.5653199 261.796765,13.3976237 C260.609202,13.897006 259.691541,14.8474433 258.687511,15.6421593 C256.719295,17.1845631 254.369894,18.1713308 251.886019,18.4988409 C250.66067,18.659932 249.327362,18.6867805 248.361118,19.4546479 C247.308506,20.2869517 247.033208,21.7475108 247.141168,23.1114151 C247.141168,23.3154638 247.173556,23.5087731 247.200546,23.7020824 C247.432661,25.2270778 247.97786,26.7252248 247.853705,28.2663293 C247.853705,28.3468749 247.853705,28.4327901 247.821317,28.5133356 C247.728902,29.1631961 247.547274,29.7973672 247.281516,30.3981011 C246.639153,31.9553148 245.662113,33.4212435 245.214079,35.0643724 C245.075242,35.54775 245.045746,36.0557154 245.127711,36.5517799 C245.125445,36.5767879 245.125445,36.6019478 245.127711,36.6269558 C245.127711,36.6269558 245.127711,36.6269558 245.127711,36.6269558 C245.147122,36.6945074 245.170555,36.7608508 245.197885,36.8256348 L245.224875,36.9008106 C245.238809,36.9375785 245.255034,36.9734461 245.273457,37.0082046 C245.328958,37.1388422 245.401559,37.2616168 245.489377,37.3733444 C245.849465,37.7306806 246.26503,38.0280278 246.720123,38.2539756 C247.89411,39.0218423 248.668244,40.2653545 248.836143,41.6529971 C248.911715,42.3456887 248.836143,43.0544894 248.938705,43.7418113 C248.98234,44.0450893 249.071501,44.3401317 249.203208,44.6170728 L249.203208,44.6170728 C249.869748,46.0313792 251.262874,46.9676329 252.83067,47.0549176 C252.886315,47.0603741 252.942364,47.0603741 252.998009,47.0549176 C253.089696,47.0602734 253.18162,47.0602734 253.273307,47.0549176 L253.273307,47.0549176 C253.235521,47.2804451 253.203133,47.5113423 253.165347,47.7476092 C253.165347,47.8657426 253.127561,47.9892458 253.105969,48.1181186 C253.105969,48.1449672 253.105969,48.1771854 253.105969,48.2040339 C252.927835,49.3101925 252.728108,50.4754179 252.501392,51.6245342 C252.150521,51.538619 251.805049,51.4634432 251.497362,51.4097461 C251.497362,51.4097461 249.338158,51.4097461 249.2248,53.557627 C249.160024,54.8463556 249.2248,56.3283934 248.825347,57.525837 C248.601563,58.3349856 248.039345,59.0096295 247.281516,59.3783843 C245.230273,60.339561 241.235745,66.8959675 241.235745,66.8959675 C241.235745,66.8959675 238.644701,70.1177889 239.076542,71.6374146 C239.082648,71.6675397 239.082648,71.6985744 239.076542,71.7286995 C239.127554,72.0848814 239.127554,72.4464581 239.076542,72.80264 L239.076542,72.80264 C238.812039,75.3317698 237.225024,80.3792899 237.225024,80.3792899 C236.374709,84.5339367 235.949695,88.7635876 235.956492,93.00346 C235.965808,94.9455585 236.137335,96.8835289 236.469303,98.7973687 C237.376169,103.689167 237.926766,112.951904 237.878183,120.399681 C237.878183,120.813148 237.878183,121.210506 237.878183,121.613234 C237.808009,126.102305 237.505721,129.764442 236.906542,131.122976 C235.978084,133.22253 234.974054,143.833062 235.000512,152.977665 C235.000512,159.807926 235.611019,165.821993 237.230422,166.895933 C238.482405,167.288804 239.77241,167.549771 241.079203,167.67454 L241.246542,167.67454 C241.300522,167.883958 241.349104,168.088007 241.403084,168.292056 C241.457064,168.496104 241.473258,168.549801 241.505646,168.684044 C241.538034,168.818286 241.613606,169.086771 241.667586,169.29619 C242.558258,172.582448 243.794402,176.362718 245.224875,178.510599 C247.853705,182.441221 248.765969,181.517632 248.32873,182.478809 C248.280148,182.580833 248.22077,182.715076 248.1398,182.876167 C247.917461,183.383651 247.810553,183.933725 247.826715,184.487078 L247.826715,184.487078 C247.826715,185.432145 247.92388,186.495346 247.826715,187.467262 C247.793299,188.063602 247.617507,188.643436 247.313904,189.158719 C247.067887,189.624193 246.955811,190.148189 246.990024,190.672975 L246.990024,190.672975 C246.990024,193.202104 248.420496,197.213272 248.420496,197.213272 L248.361118,197.578412 C248.199178,198.550328 247.767337,201.337203 247.605397,203.968357 C247.605397,203.995206 247.605397,204.032794 247.605397,204.059642 C247.459651,206.604881 247.573009,209.026617 248.425894,209.665612 C249.091876,210.124509 249.423947,210.930345 249.273382,211.722208 C249.142447,212.435484 248.852892,213.110628 248.425894,213.698258 L248.425894,214.041919 L248.452884,216.608637 L248.415098,216.667703 C248.033846,217.346775 247.803735,218.099413 247.740347,218.874651 L247.740347,218.874651 C247.729861,219.087591 247.749854,219.300933 247.799725,219.508276 C247.848716,219.736602 247.848716,219.972642 247.799725,220.200967 L247.799725,220.200967 C247.583805,221.511175 246.331467,223.21337 246.331467,223.21337 L244.625696,233.560787 L237.986144,274.327566 C237.984967,274.343654 237.984967,274.359806 237.986144,274.375894 C238.034901,275.026188 238.119598,275.673321 238.23985,276.314356 C238.237771,276.351916 238.237771,276.38956 238.23985,276.42712 C238.455319,277.606798 238.795483,278.760528 239.254676,279.869099 C239.254676,279.869099 239.254676,279.917426 239.254676,279.938905 L239.254676,279.938905 C239.254676,280.057039 239.211492,280.185912 239.1899,280.314784 C239.017163,281.243743 238.774253,282.301574 238.509751,282.55932 C238.245248,282.817066 236.566467,286.151651 235.88092,288.465992 C235.805348,288.707629 235.74597,288.943896 235.697388,289.158684 C235.700009,289.171078 235.700009,289.183878 235.697388,289.196272 C235.65064,289.390798 235.616383,289.588085 235.594825,289.786939 C235.584731,289.933539 235.584731,290.080655 235.594825,290.227255 C235.598931,290.338487 235.624592,290.447884 235.670397,290.549437 C236.264179,291.784468 237.349178,294.308229 240.102163,294.426362 C242.855148,294.544495 253.872486,295.022399 257.33261,296.311127 C257.708024,296.443708 258.094629,296.542548 258.487785,296.606461 L258.860247,296.665528 L258.908829,296.665528 L259.319078,296.724595 C259.50261,296.724595 259.691541,296.772922 259.891267,296.789031 C260.220546,296.821249 260.571416,296.858837 260.970869,296.880316 C261.467486,296.917904 262.001889,296.950122 262.557884,296.971601 L263.329799,296.971601 C265.66174,297.041407 268.31756,296.971601 270.800645,296.880316 C272.97035,296.793904 275.133188,296.58234 277.278256,296.246691 C278.097564,296.171521 278.891946,295.926408 279.610197,295.527151 C280.843593,294.485913 281.675441,293.051098 281.963729,291.467656 C282.114116,290.589693 281.795239,289.697048 281.121639,289.110357 C280.11659,288.377149 278.951157,287.891339 277.720893,287.692755 C276.740973,287.492395 275.746224,287.372071 274.74659,287.332985 C274.74659,287.332985 268.268978,284.213188 266.806118,282.543211 C266.806118,282.543211 261.678008,280.094627 261.678008,278.784419 C261.678008,277.710479 259.653755,275.278004 257.791441,275.057846 L257.791441,266.423365 L257.840023,266.294492 C257.840023,266.246164 257.877809,266.197837 257.894004,266.14414 C257.910198,266.090443 258.001964,265.838067 258.077536,265.60717 C258.080615,265.578613 258.080615,265.549811 258.077536,265.521255 C258.12072,265.403121 258.163904,265.268879 258.217884,265.123897 C258.271864,264.978915 258.30965,264.844672 258.358232,264.69432 C258.406814,264.543969 258.460795,264.393617 258.514775,264.227156 C258.768481,263.44855 259.054576,262.524961 259.346068,261.542305 C259.410844,261.311408 259.481018,261.075141 259.545794,260.833505 C259.545794,260.785177 259.572785,260.73148 259.588979,260.672413 C260.049242,259.054458 260.40978,257.410061 260.668581,255.748397 C261.041043,253.133351 261.899327,249.00405 262.563282,245.986278 C262.563282,245.986278 262.563282,245.986278 262.563282,245.986278 C262.638854,245.664096 262.698232,245.363392 262.763008,245.068059 C262.800794,244.923077 262.827784,244.778095 262.860172,244.633113 L262.908755,244.429064 C262.946541,244.251864 262.984327,244.085403 263.016715,243.924312 C263.221839,243.011463 263.356789,242.447644 263.356789,242.447644 C263.355534,242.438738 263.355534,242.429701 263.356789,242.420795 C263.389177,242.275813 263.410769,242.195268 263.410769,242.195268 C263.410769,242.195268 263.524128,241.121328 263.804824,239.768163 C263.804824,239.666138 263.848008,239.564114 263.874998,239.45672 C264.089215,238.19759 264.535769,236.988751 265.192113,235.891237 C265.574678,235.261162 265.841537,234.568422 265.980222,233.845381 C265.980222,233.775575 265.980222,233.700399 266.023406,233.630593 C266.021327,233.593033 266.021327,233.555389 266.023406,233.517829 C266.357008,231.727288 266.555489,229.914429 266.617187,228.09443 C266.617187,227.91186 266.617187,227.809836 266.617187,227.809836 C266.617187,227.809836 270.671093,225.065918 271.318854,224.588014 C271.966615,224.110111 274.525271,212.774669 274.978704,210.820098 L274.978704,210.820098 L275.04348,210.540873 C275.04348,210.540873 275.151441,209.810594 275.334973,208.521865 C275.334973,208.382253 275.378157,208.24264 275.399749,208.092289 C275.694285,208.419084 275.961477,208.76928 276.198654,209.139381 L276.198654,209.166229 C277.278256,210.852316 276.684475,211.706098 277.137908,212.157153 C277.726291,212.747821 277.24047,214.842005 277.137908,215.174926 C277.137908,215.174926 277.137908,215.207144 277.137908,215.217884 L277.137908,215.217884 C277.295958,216.372629 277.591318,217.504615 278.017784,218.590057 C278.4032,219.584764 278.611439,220.638667 278.633157,221.704484 L278.535993,221.795769 C278.282423,222.037943 278.117182,222.357246 278.066366,222.703249 C278.066366,222.703249 278.066366,222.703249 278.066366,222.703249 C278.046863,223.119909 278.252735,223.515159 278.606167,223.739601 C279.907087,224.706148 279.745147,232.143185 279.745147,232.143185 C279.745147,232.143185 279.820719,232.680156 279.961067,233.598375 C280.052833,234.231999 280.17159,235.048194 280.322734,236.009371 L280.322734,236.009371 C281.66144,244.880119 284.981216,265.956201 286.390097,266.718698 C287.798977,267.481196 288.09047,270.767454 288.155246,272.088401 C288.155246,272.340777 288.155246,272.523346 288.155246,272.625371 L288.155246,272.727395 L289.44537,278.505195 C290.087254,278.901156 290.773975,279.220185 291.491216,279.455632 L291.604574,279.49322 L291.604574,287.392052 C291.420514,287.880334 291.306046,288.391836 291.2645,288.911678 C291.2645,288.911678 291.2645,288.960005 291.2645,288.992223 C291.167335,290.554807 291.804301,292.643621 296.252261,292.020735 L296.894624,291.92945 C297.88246,291.779099 298.773131,291.618008 299.593629,291.456917 C304.063181,290.565546 305.88231,289.545303 305.88231,289.545303 C305.88231,289.545303 306.961912,289.104987 308.37619,288.525059 L308.478753,288.487471 L309.558355,288.487471 L309.558355,288.068634 C310.859275,287.558513 312.300544,287.021543 313.515096,286.624185 C313.833578,286.516791 314.146663,286.425506 314.421961,286.34496 C314.931963,286.166439 315.464086,286.058043 316.003578,286.022778 C316.209914,286.013741 316.413714,285.973919 316.608155,285.904644 C316.683727,285.904644 316.770096,285.845578 316.872658,285.818729 C320.689051,284.567589 334.189473,277.441994 332.915543,272.292449 Z M295.669276,194.023669 C295.305854,193.131358 294.874563,192.267913 294.379151,191.440842 C294.379151,191.440842 287.572261,170.91247 287.572261,169.962033 C287.572261,169.011596 286.438679,168.238359 286.438679,168.238359 L284.711316,161.069806 C284.711316,161.069806 283.960992,155.791389 283.631714,150.190789 C283.496764,147.897926 283.054127,143.575316 282.622286,139.091615 C282.622286,138.839239 282.579102,138.586863 282.546714,138.339856 C282.514326,138.09285 282.498132,137.770668 282.465744,137.486074 C283.860085,138.41792 285.301438,139.278197 286.784152,140.063531 C292.506042,142.96854 299.739375,145.352687 300.279176,147.452241 C300.603056,148.692642 301.871589,154.67986 304.759524,158.304409 C304.694748,158.497719 304.629972,158.691028 304.575992,158.895077 C304.538206,159.01321 304.511216,159.136713 304.478827,159.260216 L304.262907,159.260216 L304.262907,255.034226 C304.214325,254.948311 304.171141,254.862396 304.117161,254.77648 C303.932879,254.437755 303.715938,254.117648 303.4694,253.820673 C301.034897,250.910295 301.196838,242.828893 301.196838,242.828893 L299.097012,224.786693 L299.097012,224.727626 C299.141467,224.653237 299.181132,224.576116 299.215768,224.496729 L299.215768,224.496729 C299.458678,223.959759 299.868927,222.574376 298.605793,221.742072 C297.342659,220.909768 297.655743,218.949827 297.860868,218.155111 C297.886278,218.035193 297.918722,217.916857 297.958032,217.800711 C297.958032,217.800711 298.740743,217.580553 299.577435,215.271581 C299.577435,215.239363 299.577435,215.207144 299.609823,215.169556 C299.766365,214.723871 299.922907,214.20301 300.07945,213.601603 C301.045693,209.724678 298.292708,201.637907 297.315669,199.699444 C296.879481,198.791658 296.768989,197.762649 297.002584,196.783696 C297.045768,196.579647 297.099748,196.397077 297.142932,196.246726 C297.240096,195.97824 297.315669,195.822519 297.315669,195.822519 C297.315669,195.822519 295.815022,194.668033 295.647684,194.023669 L295.669276,194.023669 Z M303.912036,264.662102 L304.025395,264.613775 L304.079375,264.613775 L304.154947,264.581557 L304.225121,264.581557 L304.225121,265.037981 L304.079375,264.88226 L303.976813,264.780236 L303.912036,264.662102 Z"/>
    <path fill="#3F3D56" fill-rule="nonzero" d="M314.890037,286.017756 C313.315569,285.949123 304.718644,289.470539 304.718644,289.470539 C304.718644,289.470539 301.99465,290.943514 295.037569,291.888542 C290.493947,292.511521 289.889221,290.389169 290.014524,288.84228 C290.057246,288.334716 290.172765,287.8354 290.357747,287.358745 L290.357747,277.99822 C290.357747,277.99822 304.522516,269.61968 305.612114,269.091731 C305.749463,269.03304 305.897845,269.002484 306.047953,269.00198 C307.796757,268.933347 312.808906,270.659738 315.516556,272.512837 C318.507501,274.566556 322.315645,273.310039 322.315645,273.310039 C322.315645,273.310039 329.703117,267.539563 331.648048,271.76315 C331.763111,272.005424 331.852552,272.258371 331.915,272.518116 C333.336925,278.09853 316.469954,286.065271 314.890037,286.017756 Z"/>
    <path fill="#000" fill-rule="nonzero" d="M292,279.557285 L292,277.245828 C292,277.245828 305.880826,268.634837 306.948582,268.092241 C307.083178,268.031922 307.228585,268.000518 307.375685,268 C308.010999,268.667393 308.582249,269.264248 308.923931,269.627787 C309.93296,270.658718 300.723566,282.400486 292,279.557285 Z" opacity=".1"/>
    <path fill="#000518" fill-rule="nonzero" d="M288.990913,278.56392 L287.723318,272.803644 L287.723318,272.803644 C287.723318,272.803644 287.723318,267.825694 285.973082,266.861182 C284.222846,265.896671 279.454779,232.481711 279.454779,232.481711 C279.454779,232.481711 279.613891,225.09784 278.340993,224.133329 C277.068094,223.168818 278.340993,222.107855 278.340993,222.107855 C278.336135,221.044797 278.145824,219.990928 277.778796,218.994627 C277.361472,217.910916 277.071322,216.781519 276.914285,215.629554 C276.914285,215.629554 277.550735,213.218275 276.914285,212.580626 C276.468771,212.130521 277.036271,211.289253 275.996737,209.606716 C275.326141,208.60713 274.510898,207.714849 273.578229,206.959668 C269.976986,203.883949 273.530496,169.043655 274.506385,160.089775 C274.65489,158.755534 274.745053,158 274.745053,158 L283.231046,158 L284.291795,161.852687 L285.983689,168.973996 C285.983689,168.973996 287.097476,169.718813 287.097476,170.683324 C287.097476,171.647836 293.769587,192.031176 293.769587,192.031176 C294.258986,192.852167 294.684564,193.710302 295.042486,194.597848 C295.201599,195.240855 296.63361,196.366119 296.63361,196.366119 C296.081696,197.589821 296.081696,198.995103 296.63361,200.218806 C297.58298,202.14247 300.28789,210.169348 299.333216,214.022035 C298.378542,217.874722 297.264755,218.196226 297.264755,218.196226 C297.264755,218.196226 296.315385,221.046893 297.901205,222.107855 C299.487025,223.168818 298.378542,225.09784 298.378542,225.09784 L300.447002,243.080619 C300.447002,243.080619 300.28789,251.118213 302.669272,253.995672 C305.050653,256.873131 305.368878,263.785463 305.368878,263.785463 L303.576212,264.557072 L303.252684,264.701748 L303.146609,264.749974 C303.146609,264.749974 306.800889,268.602661 307.919979,269.727924 C309.03907,270.853188 298.203518,284.350988 288.990913,278.56392 Z"/>
    <path fill="#000" fill-rule="nonzero" d="M309,269.564337 C308.000789,272.414876 297.958991,282.712581 289.319401,277.595284 L288,271.941539 C290.362776,270.116563 297.73265,264.788895 304.147476,264 L304.037066,264.047334 L304.484227,264.489115 L304.147476,264.631116 L304.037066,264.678449 C304.037066,264.678449 307.840694,268.459884 309,269.564337 Z" opacity=".1"/>
    <path fill="#65617D" fill-rule="nonzero" d="M289.313837,278.590155 L288,272.938543 C290.352813,271.114255 297.691611,265.788597 304.079389,265 L303.969445,265.047316 C303.969445,265.047316 307.757034,268.827324 308.916949,269.93136 C310.076864,271.035396 298.862521,284.268053 289.313837,278.590155 Z"/>
    <circle cx="313.5" cy="273.5" r="1" fill="#FFF" fill-rule="nonzero"/>
    <circle cx="310.5" cy="273.5" r="1" fill="#FFF" fill-rule="nonzero"/>
    <circle cx="315.5" cy="273.5" r="1" fill="#FFF" fill-rule="nonzero"/>
    <circle cx="308.5" cy="272.5" r="1" fill="#FFF" fill-rule="nonzero"/>
    <path fill="#000" fill-rule="nonzero" d="M314.890037,286.79216 C313.315569,286.720939 304.718644,290.37515 304.718644,290.37515 C304.718644,290.37515 301.99465,291.903673 295.037569,292.884339 C290.493947,293.530811 289.889221,291.328423 290.014524,289.723199 C291.164915,290.246004 292.462969,290.339242 293.675572,289.986171 C296.775477,289.169863 307.497118,287.444111 307.497118,287.444111 C307.497118,287.444111 314.579502,284.847265 314.786526,283.368049 L331.648048,272 C331.763111,272.251411 331.852552,272.513896 331.915,272.783437 C333.336925,278.574293 316.469954,286.841467 314.890037,286.79216 Z" opacity=".1"/>
    <rect width="3" height="124" x="305" y="159" fill="#0575E6" fill-rule="nonzero"/>
    <path fill="#0575E6" fill-rule="nonzero" d="M308.475188,160.706244 C308.725634,158.022575 310.76331,155.93709 313.272009,155.796879 C315.780708,155.656668 318.009055,157.503724 318.517681,160.144968 C318.961516,160.457336 319.377966,160.812403 319.761884,161.205779 C320.173808,161.614688 320.780101,161.702946 321.278567,161.426563 C321.777033,161.150181 322.060989,160.56831 321.988902,159.970973 C321.986034,159.939242 321.986034,159.907287 321.988902,159.875556 C321.517668,156.317768 319.153417,153.383862 315.941889,152.371544 C312.730362,151.359227 309.264109,152.455279 307.076303,155.174901 C304.888497,157.894523 304.382805,161.735924 305.782901,165 C306.277193,163.32062 307.211947,161.829841 308.475188,160.706244 L308.475188,160.706244 Z"/>
    <rect width="7" height="9" x="302" y="279" fill="#6C63FF" fill-rule="nonzero"/>
    <path fill="#FABDBD" fill-rule="nonzero" d="M275.848663,50.5066982 C274.457675,52.3080097 273.336892,54.3025045 272.521699,56.4272157 C269.882308,63.3899216 271.861851,69 271.861851,69 C271.861851,69 247.830081,63.6837301 250.158956,61.0283669 C251.56737,59.4151922 252.731808,53.2119533 253.43047,48.5775408 C253.885155,45.5563029 254.145768,43.2002917 254.145768,43.2002917 C254.145768,43.2002917 283.045996,41.0992841 275.848663,50.5066982 Z"/>
    <path fill="#3F3D56" fill-rule="nonzero" d="M281.968582,291.449762 C281.681557,293.03799 280.854625,294.476136 279.629652,295.517479 C277.859362,297.024641 260.987956,297.564843 257.56003,296.273761 C254.132103,294.98268 243.204582,294.491096 240.468678,294.383056 C237.732775,294.275016 236.6706,291.741471 236.075139,290.499008 C235.908839,290.142475 236.032223,289.359183 236.311178,288.419232 C236.992471,286.112572 238.580368,282.86056 238.918333,282.514831 C239.17583,282.255534 239.422598,281.196739 239.588898,280.267593 C239.73374,279.462693 239.830301,278.755029 239.830301,278.755029 C247.163596,283.789706 256.808997,275.232916 256.808997,275.232916 C257.170378,275.038677 257.583041,274.963123 257.989191,275.016835 C259.834585,275.24372 261.846279,277.680028 261.846279,278.755029 C261.846279,280.067718 266.931841,282.536439 266.931841,282.536439 C268.38026,284.211063 274.806952,287.33883 274.806952,287.33883 C274.806952,287.33883 279.200491,287.44687 281.131717,289.116092 C281.78957,289.698038 282.105428,290.578836 281.968582,291.449762 L281.968582,291.449762 Z"/>
    <path fill="#000" fill-rule="nonzero" d="M282 290.825416C281.712779 292.306148 280.885282 293.646958 279.659472 294.61782 277.887971 296.022973 261.005034 296.526613 257.574765 295.322915 254.144496 294.119217 243.209506 293.660905 240.471733 293.560177 237.733959 293.45945 236.671059 291.097381 236.07519 289.939011 235.908777 289.606609 236.032245 288.876332 236.31139 288 238.721043 288.554881 241.095704 289.235859 243.424234 290.039739 246.854503 291.298837 253.98345 293.106902 255.234237 292.557935 255.212764 292.573044 272.127911 297.000034 282 290.825416zM276.026565 209C275.350964 207.993136 274.529636 207.094359 273.590008 206.33368 269.961889 203.235567 273.541918 168.141614 274.52509 159.122544 278.719601 158.885058 281.658431 158.966019 281.909567 159.602913 282.775186 161.788864 277.170037 201.108988 276.026565 209zM258 276.01739L258 277.684823C245.813411 288.819127 240.938776 285.010672 239 280.802625 239.149563 280.067574 239.249271 279.42132 239.249271 279.42132 246.821574 284.019092 256.781341 276.204853 256.781341 276.204853 257.155725 276.030859 257.581772 275.965321 258 276.01739L258 276.01739z" opacity=".1"/>
    <path fill="#000518" fill-rule="nonzero" d="M280.904144,164.423063 C280.207126,175.156331 274.781108,211.883565 274.781108,211.883565 C274.781108,211.883565 271.730313,225.332222 271.086912,225.813295 C270.443511,226.294368 266.432976,229.020447 266.432976,229.020447 C266.432976,229.020447 266.272126,235.269047 264.985323,237.038326 C263.69852,238.807605 263.215969,243.286927 263.215969,243.286927 C263.215969,243.286927 261.130277,252.250917 260.486876,256.735584 C259.843474,261.220251 257.596931,267.303149 257.596931,267.303149 L257.596931,277.074272 C242.766531,292.238755 239.115229,281.820857 238.257361,277.117034 C238.132859,276.466964 238.046923,275.810139 238,275.149981 L246.353494,224.551815 C246.353494,224.551815 248.117486,222.146451 247.795785,220.868936 C247.474084,219.59142 248.439186,217.982499 248.439186,217.982499 L248.412378,215.101408 C248.412378,215.101408 250.36939,212.541031 248.412378,211.097813 C246.455365,209.654595 248.412378,198.766314 248.412378,198.766314 C248.412378,198.766314 246.192643,192.523058 247.340042,190.748434 C248.487441,188.97381 247.340042,186.10341 248.138932,184.499834 C248.937822,182.896258 248.138932,184.499834 245.248988,180.175524 C243.736995,177.919827 242.450192,173.830708 241.560154,170.441818 C240.745179,167.325535 240.26799,164.802576 240.26799,164.802576 C240.26799,164.802576 279.944403,159.200751 280.909505,161.595424 C281.031934,162.534137 281.030131,163.484818 280.904144,164.423063 Z"/>
    <path fill="#000" fill-rule="nonzero" d="M274.876484,50.413699 C273.519107,52.1926945 272.425407,54.1624798 271.629912,56.2608683 C270.095263,56.7534507 268.494519,57.0027705 266.884506,57 C261.11643,57 257.918556,52.7021979 255.196847,48.0102278 C255.072395,47.7967075 253.11363,48.7274367 253,48.5084416 C253.443698,45.5246333 253.698013,43.1978104 253.698013,43.1978104 C253.698013,43.1978104 281.899901,41.1228318 274.876484,50.413699 Z" opacity=".1"/>
    <path fill="#FABDBD" fill-rule="nonzero" d="M282,41.4777126 C282.010424,48.9212019 276.727902,55.3209783 269.417321,56.7216096 C262.10674,58.1222408 254.832833,54.1281459 252.091295,47.2079066 C249.349757,40.2876674 251.914882,32.3957707 258.201275,28.4098655 C264.487667,24.4239603 272.719858,25.469788 277.809876,30.9009665 C280.499085,33.766504 281.997151,37.5479486 282,41.4777126 Z"/>
    <path fill="#000" fill-rule="nonzero" d="M280.924199,162.440318 C275.648877,163.364336 266.063757,165.174766 265.281629,166.25995 C264.202831,167.758793 256.111847,168.188568 251.257256,168.833232 C248.468564,169.203914 244.379919,168.897698 241.299951,168.489411 C240.480065,165.357421 240,162.821744 240,162.821744 C240,162.821744 279.915522,157.191681 280.886441,159.598425 C281.02394,160.539988 281.036634,161.495462 280.924199,162.440318 Z" opacity=".1"/>
    <path fill="#0575E6" fill-rule="nonzero" d="M285,160.882528 C285,160.882528 267.211446,163.768855 266.144026,165.268245 C265.076606,166.767636 257.070956,167.190678 252.267567,167.833274 C247.464177,168.47587 238.839423,167.083579 238.198971,166.655182 C234.463001,164.154413 236.277615,134.787778 237.878745,131.146401 C239.479875,127.505024 238.946165,107.193637 237.451777,99.0647981 C235.957389,90.9359594 238.198971,80.7775885 238.198971,80.7775885 C238.198971,80.7775885 240.435216,73.6126437 240.013585,72.1132531 C239.591954,70.6138626 242.148425,67.4115928 242.148425,67.4115928 C242.148425,67.4115928 246.092542,60.883889 248.115303,59.9146401 C248.865304,59.5531987 249.422169,58.8831136 249.641713,58.0778867 C250.020648,56.8944391 249.972614,55.4004035 250.036659,54.1419865 C250.143401,52 252.272904,52 252.272904,52 C258.35186,52.958539 272.63394,61.9441723 272.63394,61.9441723 C272.10023,63.9737045 275.510636,69.751713 275.510636,69.751713 C275.569345,69.8427474 275.617378,69.9391368 275.670749,70.0408812 C279.406719,77.1040816 282.123303,98.7327902 282.123303,98.7327902 C282.123303,98.7327902 282.310102,109.06252 282.278079,116.666572 C282.278079,120.463243 282.187348,123.579833 282.011224,124.399143 C281.701672,125.855694 282.315439,132.619016 282.939879,139.055686 C283.366847,143.505663 283.80449,147.794991 283.937917,150.065496 C284.290166,155.640016 285,160.882528 285,160.882528 Z"/>
    <path fill="#000" fill-rule="nonzero" d="M268 131C268 131 264.142888 143.072598 265.175737 144.858021 266.208586 146.643445 268 131 268 131zM274 137C274 137 269.779149 145.214372 271.350566 146.841845 272.921983 148.469317 274 137 274 137zM258 273L258 275.665994C242.663155 289.698321 238.887164 280.058206 238 275.705563 240.789021 277.842315 247.187691 280.503363 258 273z" opacity=".1"/>
    <path fill="#65617D" fill-rule="nonzero" d="M258,273 L258,275.665994 C242.663155,289.698321 238.887164,280.058206 238,275.705563 C240.789021,277.842315 247.187691,280.503363 258,273 Z"/>
    <circle cx="256.5" cy="280.5" r="1" fill="#FFF" fill-rule="nonzero"/>
    <circle cx="263.5" cy="285.5" r="1" fill="#FFF" fill-rule="nonzero"/>
    <circle cx="259.5" cy="284.5" r="1" fill="#FFF" fill-rule="nonzero"/>
    <circle cx="264.5" cy="286.5" r="1" fill="#FFF" fill-rule="nonzero"/>
    <circle cx="258.5" cy="282.5" r="1" fill="#FFF" fill-rule="nonzero"/>
    <path fill="#000" fill-rule="nonzero" d="M260 179C260 179 256.308888 188.628984 251.932722 188.990735 247.556555 189.352487 260 179 260 179zM261 193C261 193 255.005871 202.89704 253.221842 202.99923 251.437812 203.101419 261 193 261 193zM265 228C265 228 257.553721 232.600952 259.25181 232.980733 260.949899 233.360514 265 228 265 228zM250 229C250 229 257.555398 226 258.881186 226 260.206975 226 250 229 250 229zM290 215.5C290 215.5 295.757009 214.375 295.993437 215.5 296.229864 216.625 290 215.5 290 215.5zM296 222C296 222 292.566272 222.095458 293.045954 223.590959 293.525637 225.08646 296 222 296 222zM276 72C271.914292 70.3706231 264.789215 67.2302671 261.572688 64.0335312 258.356162 60.8367953 252.454583 59.7824926 249 59.3991098 249.39307 58.1531157 249.343244 56.5801187 249.409678 55.2551929 249.520402 53 251.729342 53 251.729342 53 258.035063 54.0091988 272.849908 63.4697329 272.849908 63.4697329 272.296289 65.6065282 275.833914 71.689911 275.833914 71.689911 275.894812 71.7913947 275.944638 71.8928783 276 72z" opacity=".1"/>
    <path fill="#0575E6" fill-rule="nonzero" d="M276,71 C271.914292,69.3706231 264.789215,66.2302671 261.572688,63.0391691 C258.356162,59.8480712 252.454583,58.7824926 249,58.3991098 C249.39307,57.1531157 249.343244,55.5801187 249.409678,54.2551929 C249.520402,52 251.729342,52 251.729342,52 C258.035063,53.0091988 272.849908,62.4697329 272.849908,62.4697329 C272.296289,64.6065282 275.833914,70.689911 275.833914,70.689911 C275.894812,70.7913947 275.944638,70.8928783 276,71 Z"/>
    <path fill="#000" fill-rule="nonzero" d="M282,140 C275.717745,135.891997 266.908816,128.924398 266.908816,128.492258 C266.908816,127.958751 263.306848,124.016135 263.306848,124.016135 L256.219448,111.046584 L254,105.711516 L260.356413,99 L274.218691,107.94691 L277.926599,114.765127 C279.15687,115.644254 280.307297,116.631553 281.364359,117.71542 C281.364359,121.497983 281.274309,124.602993 281.099508,125.419258 C280.771093,126.849057 281.38025,133.587248 282,140 Z" opacity=".1"/>
    <path fill="#FABDBD" fill-rule="nonzero" d="M254,104.704129 L255.928494,111.33365 L263.449085,123.009919 C263.449085,123.009919 267.096571,126.948195 267.096571,127.481115 C267.096571,128.014035 280.526197,138.336688 286.193499,141.209125 C291.860801,144.081562 299.08594,146.442396 299.623125,148.510124 C300.16031,150.577853 303.38342,166.011206 312.515566,161.00709 C321.647711,156.002975 309.942449,144.721066 309.942449,144.721066 L302.421859,138.12352 C302.421859,138.12352 286.376142,125.669188 285.011692,121.523073 C283.647242,117.376958 278.280764,113.753105 278.280764,113.753105 L274.520468,106.937063 L260.467708,98 L254,104.704129 Z"/>
    <path fill="#000" fill-rule="nonzero" d="M252.020285,69.3249632 C252.020285,69.3249632 238.634724,75.3248836 242.805348,84.8743547 C246.975973,94.4238258 256.081011,112 256.081011,112 C256.081011,112 254.987527,105.860671 257.399786,105.324485 C259.812044,104.788299 276,107.420972 276,107.420972 C276,107.420972 271.554631,100.2897 272.323916,96.2200486 C273.093201,92.1503975 266.510319,65.7914981 252.020285,69.3249632 Z" opacity=".1"/>
    <path fill="#000" fill-rule="nonzero" d="M253.0028,67.3262841 C253.0028,67.3262841 239.645342,73.3244252 243.801727,82.8474131 C247.958111,92.370401 257.055001,110 257.055001,110 C257.055001,110 255.95833,103.862367 258.371007,103.325861 C260.783684,102.789355 276,105.573823 276,105.573823 C276,105.573823 272.496135,98.2880662 273.258321,94.2159829 C274.020508,90.1438996 267.47338,63.7853421 253.0028,67.3262841 Z" opacity=".1"/>
    <path fill="#0575E6" fill-rule="nonzero" d="M253.000324,67.3249035 C253.000324,67.3249035 239.641428,73.3248322 243.803744,82.8743167 C247.96606,92.4238012 256,112 256,112 C256,112 255.956172,103.866025 258.369109,103.329838 C260.782046,102.793651 276,105.57646 276,105.57646 C276,105.57646 272.495758,98.2950451 273.258026,94.2253884 C274.020295,90.1557316 267.461494,63.7914333 253.000324,67.3249035 Z"/>
    <path fill="#000" fill-rule="nonzero" d="M279,30.7832019 C277.17087,31.3757902 275.223035,31.719703 273.604336,30.8255296 C272.487434,30.2170685 271.64571,29.0742197 270.366938,28.8361262 C269.217661,28.6191966 268.041407,29.2699855 267.302201,30.1588679 C266.61504,31.0944564 266.069805,32.1227768 265.683502,33.2117556 C264.867291,35.1142626 263.870081,36.9371207 262.705095,38.6561603 C261.982076,39.7143536 261.021648,40.8360385 259.726689,40.8889482 C257.951515,40.9683127 256.753678,39.0476918 255.037857,38.5820867 C250.845426,37.433947 253.268079,41.9630144 253.883185,43.6719966 C254.490973,45.3587873 254.704864,47.157853 254.509082,48.9365084 C254.370614,48.9679767 254.229931,48.9892002 254.08822,49 C250.132897,42.2634557 251.939861,33.6907078 258.294588,29.0437986 C264.649315,24.3968893 273.543908,25.144099 279,30.7832019 L279,30.7832019 Z" opacity=".1"/>
    <path fill="#7C5C5C" fill-rule="nonzero" d="M254.106165,37.3820546 C255.809118,37.856309 257.001723,39.8126082 258.769142,39.7371587 C260.063817,39.6778769 261.020049,38.5407442 261.734538,37.4575041 C262.894614,35.7123208 263.887503,33.860947 264.699934,31.9281293 C265.084549,30.8189211 265.627402,29.7714981 266.311562,28.8185295 C267.052911,27.9131348 268.218655,27.2502566 269.362911,27.471216 C270.609237,27.7137324 271.447284,28.8778113 272.586167,29.4975756 C274.616819,30.6347082 277.141703,29.8101523 279.312029,28.9586502 C280.386448,28.5490668 281.562936,27.9562489 281.745588,26.8460625 C281.874518,26.0646206 281.428634,25.2777895 281.530704,24.4909584 C281.632774,23.7041272 282.21296,23.1544233 282.605123,22.5077128 C282.997285,21.8610023 283.222913,20.9286613 282.669588,20.4059036 C282.266681,20.0286558 281.638146,20.0556021 281.122425,19.8669782 C279.838494,19.3657776 279.510796,17.6358269 278.366541,16.8597743 C277.130959,16.0244399 275.481726,16.5849224 273.988284,16.6549827 C271.839446,16.7519892 269.835655,15.7603665 267.842609,14.9681461 C265.849562,14.1759257 263.577166,13.56694 261.605608,14.3968851 C260.429119,14.8980858 259.515863,15.8412053 258.516654,16.6388149 C256.562511,18.1823883 254.229804,19.1690899 251.763932,19.4951197 C250.549838,19.6567973 249.222931,19.6837436 248.266699,20.4436284 C247.06335,21.4029157 246.880698,23.1705911 247.111698,24.69575 C247.342698,26.220909 247.879908,27.7191217 247.75635,29.2496699 C247.562954,31.6802236 245.752559,33.6796369 245.150884,36.0401303 C244.880096,36.8032797 244.977321,37.6492547 245.414117,38.3305633 C245.771565,38.6878884 246.183148,38.9861929 246.633582,39.214401 C247.801301,39.9773556 248.570852,41.2212574 248.734071,42.6096312 C248.814652,43.304845 248.734071,44.0108373 248.841513,44.7006619 C249.287756,46.8950481 251.398629,48.3307199 253.595816,47.9342144 C253.788183,46.1225297 253.575293,44.2906109 252.972653,42.5719064 C252.338746,40.8257881 249.932048,36.2395327 254.106165,37.3820546 Z"/>
    <path fill="#000" fill-rule="nonzero" d="M34.0019718.268421053C34.0167089.295025114 34.0346812.319768129 34.055493.342105263L34.0019718.268421053zM37.3684507 4.92631579C37.7752113 4.3 37.9892958 3.37894737 37.4326761 2.87368421 37.3403855 2.79157703 37.2356569 2.72410213 37.1222535 2.67368421 37.1293262 3.13839703 36.9910729 3.59403176 36.7261972 3.97894737 36.3194366 4.60526316 35.7467606 5.17894737 35.6557746 5.91578947 35.5647887 6.65263158 35.9929577 7.44736842 35.8698592 8.21052632 35.6878873 9.3 34.4890141 9.87368421 33.4453521 10.2736842 31.304507 11.1 28.7676056 11.9105263 26.7391549 10.8 25.6366197 10.1894737 24.8016901 9.05789474 23.56 8.82105263 22.42 8.60526316 21.2532394 9.25263158 20.52 10.1368421 19.8373483 11.0668852 19.2964326 12.0899551 18.9143662 13.1736842 18.1026179 15.0651936 17.1135615 16.8782801 15.96 18.5894737 15.2428169 19.6421053 14.295493 20.7578947 13.0056338 20.8105263 11.2447887 20.8842105 10.0566197 18.9789474 8.35464789 18.5157895 4.19605634 17.3736842 6.59915493 21.8789474 7.20929577 23.5789474 7.81385976 25.2656069 8.02601551 27.0641381 7.83014085 28.8421053 6.41799022 29.0970056 4.97378581 28.6009353 4.03014085 27.5368421 4.82550767 29.1836417 6.64118719 30.1054691 8.46704225 29.7894737 8.66350829 28.020559 8.45316018 26.2308393 7.8515493 24.5526316 7.24140845 22.8526316 4.83830986 18.3473684 8.99690141 19.4842105 10.6988732 19.9526316 11.8870423 21.8578947 13.6478873 21.7842105 14.9323944 21.7315789 15.8850704 20.6157895 16.5969014 19.5631579 17.7533001 17.8509014 18.7441941 16.0359691 19.5566197 14.1421053 19.9398046 13.0588501 20.4806387 12.0359344 21.1622535 11.1052632 21.8632072 10.1638448 23.0232383 9.66376217 24.2022535 9.79473684 25.4439437 10.0315789 26.2788732 11.1631579 27.3814085 11.7684211 29.4098592 12.8842105 31.9253521 12.0736842 34.0876056 11.2421053 35.1580282 10.8421053 36.3301408 10.2684211 36.5067606 9.17894737 36.6352113 8.41578947 36.1909859 7.64736842 36.2980282 6.88421053 36.4050704 6.12105263 36.9616901 5.55263158 37.3684507 4.92631579zM.893802817 20.2789474C.59943662 20.0894737.278309859 19.9263158 0 19.7157895.0588468236 19.9506445.166346963 20.1710301.315774648 20.3631579.674095709 20.7119013 1.08586891 21.0031663 1.53605634 21.2263158 1.91463277 21.4697848 2.25382457 21.7678546 2.54225352 22.1105263 2.16849771 21.3664955 1.59939233 20.7341676.893802817 20.2789474L.893802817 20.2789474z" opacity=".1" transform="translate(245 18)"/>
    <path fill="#000" fill-rule="nonzero" d="M284.911017,37.5477355 C284.911017,37.5477355 280.464427,34.6039891 277.818297,37.779324 L276.225163,37.779324 C274.632029,33.4614862 266.748198,35.4634396 266.748198,35.4634396 L256,37.1205835 L256.20187,37.779324 L266.748198,36.9661912 C266.748198,36.9661912 266.993716,41.0164157 268.423172,42.3287502 C269.852627,43.6410847 272.957056,42.9051481 272.957056,42.9051481 C274.833899,42.678706 275.734129,39.8996448 276.066941,38.5306998 L277.605516,38.6130423 C277.327263,40.0077194 277.141761,42.7301701 279.656949,43.6771095 C283.09419,44.9482728 284.185377,42.0559905 284.185377,42.0559905 C284.185377,42.0559905 285.320213,38.319697 284.911017,37.5477355 Z" opacity=".1"/>
    <path fill="#3F3D56" fill-rule="nonzero" d="M284.913023,37.5477355 C284.913023,37.5477355 280.466125,34.6039891 277.819811,37.779324 L276.226566,37.779324 C274.633322,33.4614862 266.748944,35.4634396 266.748944,35.4634396 L256,37.1257299 L256.201884,37.779324 L266.748944,36.9713376 C266.748944,36.9713376 266.994478,41.0164157 268.424033,42.3287502 C269.853588,43.6410847 272.958233,42.9051481 272.958233,42.9051481 C274.835206,42.678706 275.735498,39.8996448 276.068333,38.5306998 L277.607015,38.6130423 C277.328742,40.0077194 277.143228,42.7301701 279.65859,43.6771095 C283.090613,44.9482728 284.154595,42.0559905 284.154595,42.0559905 C284.154595,42.0559905 285.322247,38.3299898 284.913023,37.5477355 Z"/>
    <ellipse cx="526.5" cy="222.5" fill="#6C63FF" fill-rule="nonzero" opacity=".1" rx="9.5" ry="1.5"/>
    <path fill="#A8A8A8" fill-rule="nonzero" d="M520,216.573237 C520,216.573237 525.10542,216.429243 526.643967,215.406386 C528.182514,214.38353 534.501736,213.16206 534.879718,214.800617 C535.2577,216.439173 542.556481,222.953677 536.790923,222.998365 C531.025365,223.043053 523.396515,222.164191 521.857968,221.290294 C520.319421,220.416397 520,216.573237 520,216.573237 Z"/>
    <path fill="#000" fill-rule="nonzero" d="M536.864117,222.381683 C531.099016,222.430357 523.470772,221.473105 521.958963,220.521261 C520.793167,219.796561 520.324719,217.200622 520.170345,216 L520,216 C520,216 520.324719,220.185952 521.857821,221.137796 C523.390923,222.08964 531.024491,223.046893 536.789591,222.998219 C538.455774,222.998219 539.030688,222.381683 538.998748,221.494738 C538.737908,222.035558 538.104439,222.370867 536.864117,222.381683 Z" opacity=".2"/>
    <ellipse cx="61" cy="236" fill="#6C63FF" fill-rule="nonzero" opacity=".1" rx="17" ry="3"/>
    <path fill="#A8A8A8" fill-rule="nonzero" d="M50,223.86244 C50,223.86244 59.4118235,223.586793 62.2465814,221.652163 C65.0813394,219.717533 76.7139902,217.420479 77.4186758,220.513845 C78.1233614,223.607212 91.5390803,235.899004 80.9367653,235.995991 C70.3344502,236.092978 56.2567539,234.413576 53.4273345,232.764801 C50.597915,231.116027 50,223.86244 50,223.86244 Z"/>
    <path fill="#000" fill-rule="nonzero" d="M81.1173774,234.85414 C70.5011744,234.941625 56.4476487,233.15913 53.6187962,231.393038 C51.4838132,230.047964 50.6031327,225.225385 50.31491,223 L50,223 C50,223 50.5977952,230.769711 53.4266477,232.535803 C56.2555002,234.301895 70.3090259,236.08439 80.9305664,235.996906 C83.994267,235.969567 85.0564211,234.85414 84.997709,233.197404 C84.5920623,234.208943 83.4018092,234.810398 81.1173774,234.85414 Z" opacity=".2"/>
    <polygon fill="#000415" points="296.485 143.943 299.579 144.453 298.69 146.504 295.749 147.667" transform="rotate(40 297.664 145.805)"/>
    <polygon fill="#000415" points="302.458 138.926 305.458 138.926 305.501 142.09 301.721 142.65" transform="scale(-1 1) rotate(40 0 -693.377)"/>
    <g stroke-linejoin="square" transform="rotate(41 301 143)">
      <rect width="5.5" height="5.5" x="298.25" y="140.25" fill="#01172E" stroke="#E5E8F1" stroke-width=".5" rx="1"/>
      <rect width="5.75" height="5.75" x="298.125" y="140.125" stroke="#01172E" stroke-width=".25" rx="1"/>
    </g>
    <g transform="translate(302 57)">
      <g fill-rule="nonzero" transform="translate(4)">
        <path fill="#01172E" d="M14,6.65384629 L13.8457304,6.65384629 L13.8457304,2.43927944 C13.845731,1.79234124 13.5880278,1.17189985 13.1293128,0.714445948 C12.6705979,0.256992042 12.0484469,0 11.3997266,0 L2.4460031,0 C1.79728291,0 1.17513198,0.256992066 0.716417126,0.714445992 C0.257702268,1.17189992 0,1.79234131 0,2.43927944 L0,25.5607206 C0,26.2076587 0.257702268,26.8281001 0.716417126,27.285554 C1.17513198,27.7430079 1.79728291,28 2.4460031,28 L11.3997229,28 C12.0484438,28 12.6705958,27.7430094 13.1293115,27.2855553 C13.5880273,26.8281013 13.845731,26.2076594 13.8457304,25.5607206 L13.8457304,9.65384608 L14,9.65384608 L14,6.65384629 Z"/>
        <path fill="#D0CDE1" d="M11.5896662,27.5280899 L2.41025958,27.5280899 C1.34005827,27.5267289 0.472937592,26.6782186 0.471910112,25.6313418 L0.471910112,2.52535344 C0.473091259,1.47863753 1.34022231,0.630389135 2.41025958,0.629213483 L3.63589901,0.629213483 L3.59335043,0.730437192 C3.55355285,0.825308742 3.53319889,0.926904984 3.53344511,1.02945309 C3.53394147,1.46707087 3.8964812,1.82170907 4.34384934,1.82219461 L9.57742327,1.82219461 C10.0247666,1.82167834 10.3872671,1.46704664 10.3877548,1.02945309 C10.3879794,0.926902582 10.3676522,0.825303453 10.3279229,0.73040198 L10.2854471,0.629213483 L11.5896662,0.629213483 C12.6597181,0.630383007 13.526874,1.47862327 13.5280899,2.52535344 L13.5280899,25.6313418 C13.5270277,26.6782328 12.6598821,27.526735 11.5896662,27.5280899 L11.5896662,27.5280899 Z M2.41025958,0.775927267 C1.42302681,0.777035355 0.623004836,1.55963732 0.621892758,2.52535344 L0.621892758,25.6313418 C0.622838384,26.597224 1.42285747,27.3800951 2.41025958,27.3813761 L11.5896662,27.3813761 C12.5770935,27.3801263 13.3771525,26.5972486 13.3781072,25.6313418 L13.3781072,2.52535344 C13.376986,1.55961268 12.5769242,0.777004217 11.5896662,0.775927267 L10.502292,0.775927267 C10.5831373,1.05897854 10.524001,1.36272705 10.3424589,1.59689706 C10.1609167,1.83106707 9.87786345,1.9687066 9.57742402,1.9689084 L4.34384934,1.9689084 C4.04339661,1.96872982 3.76032129,1.83109998 3.57876178,1.59692654 C3.39720227,1.36275311 3.33805724,1.05899098 3.41890637,0.775927267 L2.41025958,0.775927267 Z"/>
      </g>
      <g transform="translate(0 8)">
        <rect width="8" height="1" x="7" y="8" fill="#E6F1FC"/>
        <rect width="6" height="1" x="8" y="11" fill="#E6F1FC"/>
        <g filter="url(#home_heroimage-b)">
          <g transform="translate(8)">
            <polygon fill="#000" fill-rule="nonzero" points=".04 1.907 5.207 1.907 5.207 2.573 .04 2.573"/>
            <polygon fill="#000" fill-rule="nonzero" points="3.773 4.473 3.307 4.007 5.073 2.24 3.307 .473 3.773 .007 6.007 2.24"/>
          </g>
        </g>
        <path fill="#FABDBD" d="M0,22 C3.33333333,18.6666667 5.66666667,16.3333333 7,15 C9,13.6666667 9.66666667,14.3333333 9,17 C8.33333333,19.6666667 6,23 2,27"/>
      </g>
    </g>
  </g>
</svg>
