<svg xmlns="http://www.w3.org/2000/svg" width="457" height="382" viewBox="0 0 457 382">
  <defs>
    <filter id="home_darkbg_watisdiax-a">
      <feColorMatrix in="SourceGraphic" values="0 0 0 0 0.003922 0 0 0 0 0.090196 0 0 0 0 0.180392 0 0 0 1.000000 0"/>
    </filter>
  </defs>
  <g fill="none" fill-rule="evenodd">
    <ellipse cx="128.5" cy="363" fill="#E6E8F1" fill-rule="nonzero" rx="122.5" ry="19"/>
    <g filter="url(#home_darkbg_watisdiax-a)">
      <g transform="translate(0 51)">
        <rect width="68" height="1" x="27" y="36" fill="#F2F2F2" fill-rule="nonzero"/>
        <rect width="1" height="9" x="46" y="27" fill="#F2F2F2" fill-rule="nonzero"/>
        <rect width="1" height="9" x="75" y="27" fill="#F2F2F2" fill-rule="nonzero"/>
        <rect width="68" height="1" x="209" y="9" fill="#F2F2F2" fill-rule="nonzero"/>
        <rect width="1" height="9" x="228" fill="#F2F2F2" fill-rule="nonzero"/>
        <rect width="1" height="9" x="257" fill="#F2F2F2" fill-rule="nonzero"/>
        <rect width="68" height="1" x="248" y="279" fill="#F2F2F2" fill-rule="nonzero"/>
        <rect width="1" height="9" x="266" y="270" fill="#F2F2F2" fill-rule="nonzero"/>
        <rect width="1" height="9" x="296" y="270" fill="#F2F2F2" fill-rule="nonzero"/>
        <rect width="68" height="1" x="384" y="235" fill="#F2F2F2" fill-rule="nonzero"/>
        <rect width="1" height="9" x="402" y="226" fill="#F2F2F2" fill-rule="nonzero"/>
        <rect width="1" height="9" x="432" y="226" fill="#F2F2F2" fill-rule="nonzero"/>
        <rect width="68" height="1" x="389" y="124" fill="#F2F2F2" fill-rule="nonzero"/>
        <rect width="1" height="9" x="437" y="116" fill="#F2F2F2" fill-rule="nonzero"/>
        <rect width="68" height="1" x="148" y="135" fill="#F2F2F2" fill-rule="nonzero"/>
        <rect width="1" height="9" x="167" y="126" fill="#F2F2F2" fill-rule="nonzero"/>
        <rect width="1" height="9" x="196" y="126" fill="#F2F2F2" fill-rule="nonzero"/>
        <rect width="68" height="1" x="317" y="208" fill="#F2F2F2" fill-rule="nonzero"/>
        <rect width="1" height="9" x="335" y="199" fill="#F2F2F2" fill-rule="nonzero"/>
        <rect width="1" height="9" x="365" y="199" fill="#F2F2F2" fill-rule="nonzero"/>
        <rect width="68" height="1" x="221" y="177" fill="#F2F2F2" fill-rule="nonzero"/>
        <rect width="1" height="9" x="240" y="168" fill="#F2F2F2" fill-rule="nonzero"/>
        <rect width="1" height="9" x="269" y="168" fill="#F2F2F2" fill-rule="nonzero"/>
        <rect width="68" height="1" x="129" y="81" fill="#F2F2F2" fill-rule="nonzero"/>
        <rect width="1" height="9" x="147" y="72" fill="#F2F2F2" fill-rule="nonzero"/>
        <rect width="1" height="9" x="177" y="72" fill="#F2F2F2" fill-rule="nonzero"/>
        <rect width="68" height="1" y="187" fill="#F2F2F2" fill-rule="nonzero"/>
        <rect width="1" height="9" x="18" y="178" fill="#F2F2F2" fill-rule="nonzero"/>
        <rect width="1" height="9" x="48" y="178" fill="#F2F2F2" fill-rule="nonzero"/>
      </g>
    </g>
    <rect width="1" height="9" x="408" y="167" fill="#F2F2F2" fill-rule="nonzero"/>
    <circle cx="351" cy="104" r="104" fill="#E6F1FC" fill-rule="nonzero"/>
    <polygon fill="#E6E8F1" fill-rule="nonzero" points="42.728 157.413 43.698 157.413 43.72 258.062 42.75 258.061" transform="rotate(-13.486 43.224 207.737)"/>
    <path fill="#9F616A" fill-rule="nonzero" d="M137.24531,226 C137.24531,226 157.049158,234.043908 150.769889,238.775618 C144.490621,243.507329 131.449062,233.097566 131.932083,231.678053 C132.415103,230.258539 130,226.946342 130,226.946342 L137.24531,226 Z"/>
    <path fill="#575A88" fill-rule="nonzero" d="M120.395833,160 L126.625,165.833333 L128.0625,182.847222 L132.854167,200.833333 C132.854167,200.833333 141,217.847222 139.5625,221.25 C138.125,224.652778 141,225.625 141,225.625 L129.979167,230 C129.979167,230 118,216.388889 118,213.472222 C118,210.555556 120.395833,160 120.395833,160 Z"/>
    <path fill="#0575E6" fill-rule="nonzero" d="M120.395833,160 L126.625,165.833333 L128.0625,182.847222 L132.854167,200.833333 C132.854167,200.833333 141,217.847222 139.5625,221.25 C138.125,224.652778 141,225.625 141,225.625 L129.979167,230 C129.979167,230 118,216.388889 118,213.472222 C118,210.555556 120.395833,160 120.395833,160 Z" opacity=".1"/>
    <path fill="#010E3E" fill-rule="nonzero" d="M179.945469,334.395349 C179.945469,334.395349 177.505667,345.627907 177.017707,346.604651 C176.529747,347.581395 186.288953,351 186.288953,351 L198,342.697674 C198,342.697674 193.120397,331.953488 193.120397,330 L179.945469,334.395349 Z"/>
    <path fill="#2F2E41" fill-rule="nonzero" d="M116.071131,226 L119.472413,229.873536 C119.472413,229.873536 189.927546,238.588992 191.385239,252.146369 C192.842931,265.703746 203.046778,329.617092 197.216008,331.55386 C191.385239,333.490628 176.322417,340.753508 176.322417,336.879972 C176.322417,333.006436 166.604468,279.745314 168.548057,270.061474 C168.548057,270.061474 84.487795,259.409249 82.5442052,247.304449 C80.6006153,235.199648 84.487795,229.873536 84.487795,229.873536 L116.071131,226 Z"/>
    <path fill="#E6F1FC" fill-rule="nonzero" d="M116.071131,226 L119.472413,229.873536 C119.472413,229.873536 189.927546,238.588992 191.385239,252.146369 C192.842931,265.703746 203.046778,329.617092 197.216008,331.55386 C191.385239,333.490628 176.322417,340.753508 176.322417,336.879972 C176.322417,333.006436 166.604468,279.745314 168.548057,270.061474 C168.548057,270.061474 84.487795,259.409249 82.5442052,247.304449 C80.6006153,235.199648 84.487795,229.873536 84.487795,229.873536 L116.071131,226 Z" opacity=".1"/>
    <path fill="#021B79" fill-rule="nonzero" d="M178.355909,345.610758 C178.355909,345.610758 176.41568,341.246668 175.445566,342.701364 C174.475452,344.156061 171.080053,361.127523 174.475452,361.127523 C177.870852,361.127523 208.914504,368.885905 213.280017,367.916107 C217.645531,366.94631 225.891501,368.401006 224.921387,363.552017 C223.951273,358.703028 219.100702,358.218129 219.100702,358.218129 C219.100702,358.218129 201.153591,347.550353 200.183477,342.216466 C199.213362,336.882578 193.877735,339.791971 193.877735,339.791971 L193.877735,343.186263 C193.877735,343.186263 183.691536,350.944646 178.355909,345.610758 Z"/>
    <path fill="#9F616A" fill-rule="nonzero" d="M86.636478,124.190035 C86.636478,124.190035 89.974124,140.628074 82.8220254,142.078489 C75.6699268,143.528905 91.8813503,153.198339 91.8813503,153.198339 L102.371095,159 L110,151.264452 C110,151.264452 103.086305,137.002036 108.331177,126.365658 C113.576049,115.72928 86.636478,124.190035 86.636478,124.190035 Z"/>
    <path fill="#9F616A" fill-rule="nonzero" d="M110,151.264452 L102.371095,159 L91.8813503,153.198339 C91.8813503,153.198339 75.6699268,143.528905 82.8220254,142.078489 C87.4232088,141.145389 87.6806558,134.009346 87.2849349,129.039257 C87.1557628,127.412112 86.9392899,125.793307 86.636478,124.190035 C86.636478,124.190035 113.576049,115.72928 108.331177,126.365658 C107.534264,128.008136 106.981544,129.761191 106.690991,131.567814 C105.084096,141.12605 110,151.264452 110,151.264452 Z"/>
    <polygon fill="#010E3E" fill-rule="nonzero" points="137 348.848 137 360 155.537 360 157 355.636 155.049 344"/>
    <path fill="#E6F1FC" fill-rule="nonzero" d="M61,235.801539 C61,235.801539 61,264.325772 72.6350938,265.292695 C84.2701876,266.259618 125.962607,271.577695 125.962607,271.577695 C125.962607,271.577695 128.386585,318.956929 132.749745,334.4277 C137.112905,349.89847 133.234541,350.865393 137.112905,351.832316 C140.99127,352.79924 157.474319,349.415009 156.989524,346.030778 C156.504728,342.646547 154.565546,257.073848 154.565546,257.073848 C154.565546,257.073848 158.928706,238.702308 100.753237,230 L61,235.801539 Z"/>
    <path fill="#021B79" fill-rule="nonzero" d="M138.475213,356.949696 C138.475213,356.949696 135.553415,350.569943 135.066449,352.532944 C134.579482,354.495945 128.735886,371.672204 134.579482,373.144455 C140.423079,374.616705 158.9278,382.46871 171.101959,381.977959 C183.276118,381.487209 184.737017,380.996459 184.737017,380.996459 C184.737017,380.996459 188.145782,376.088956 183.763085,373.144455 C179.380387,370.199953 161.362632,353.023694 160.388699,351.060693 C159.414767,349.097692 152.110271,347.625441 152.110271,351.060693 C152.110271,354.495945 141.883978,361.366449 138.475213,356.949696 Z"/>
    <path fill="#000" fill-rule="nonzero" d="M108.303718,125.506328 C107.484434,127.191866 106.916198,128.990881 106.617488,130.844867 C104.176334,132.338269 102.543967,131.956236 99.4802692,131.956236 C94.936193,131.956236 93.1028764,126.076897 90.1666287,123.025594 C89.9362386,120.192596 86,123.273668 86,123.273668 C86,123.273668 113.695826,114.591099 108.303718,125.506328 Z" opacity=".1"/>
    <circle cx="99" cy="116" r="16" fill="#9F616A" fill-rule="nonzero"/>
    <path fill="#0575E6" fill-rule="nonzero" d="M126,165.795383 C126,165.795383 123.574805,183.246347 122.119688,189.548084 C120.664571,195.849822 118.724415,224.934762 117.754338,228.812755 C116.78426,232.690747 110.963792,233.660245 99.3228567,232.205998 C98.5920753,232.114046 97.8571135,232.059038 97.1207798,232.041183 C89.9519038,231.813351 81.7499239,234.494013 74.1590349,236.597824 C69.7936842,237.809696 65.6271995,238.827669 61.974856,238.992484 C56.4454118,239.244553 54.8253816,233.117326 55.0145468,226.485959 C55.1940112,220.315104 56.9450019,213.69828 58.5795832,211.36179 C61.5238037,207.154169 58.6280871,169.377678 59.7146181,156.919628 L59.7146181,156.914781 C59.8794537,155.014564 60.1365389,153.705742 60.5197391,153.191908 C63.4299729,149.313916 82.3464927,139.618936 84.466113,140.011582 C86.5808829,140.404229 104.658285,151.737661 104.658285,151.737661 C109.023636,151.737661 108.882975,147.006511 108.882975,147.006511 C108.882975,147.006511 111.93387,152.707159 117.754338,154.161406 C123.574805,155.615653 126,165.795383 126,165.795383 Z"/>
    <path fill="#9F616A" fill-rule="nonzero" d="M93.4893373,229 C93.4893373,229 124.847508,229.955896 119.354205,233.522601 C113.860903,237.089305 89.5205444,240.351643 89.0337373,235.691167 C88.5469301,231.030691 93.4893373,229 93.4893373,229 Z"/>
    <path fill="#000" fill-rule="nonzero" d="M96.9984733,232.567051 C97.1000708,234.431226 92.1025041,238.630474 90.486557,241.470429 C89.5915314,243.043326 82.6635879,240.970402 74.0954929,237.130396 C67.5205375,234.169126 61.1422064,230.786563 55,227.003654 C55.1790051,220.82372 56.9255146,214.19716 58.5559127,211.857232 C61.4925982,207.64342 58.6042924,169.811348 59.6880427,157.334969 L59.6880427,157.330114 C59.9464044,157.198492 60.2149701,157.088092 60.4911032,157 L66.2966749,157 C86.1323783,166.223782 63.3938891,206.031686 63.3938891,206.031686 C63.3938891,206.031686 93.3893429,230.790259 96.2921288,231.761184 C96.6837897,231.835656 96.9748719,232.167751 96.9984733,232.567051 L96.9984733,232.567051 Z" opacity=".1"/>
    <path fill="#0575E6" fill-rule="nonzero" d="M66.3619307,154 L60.5696527,154 C60.5696527,154 55.2600645,155.456372 50.915856,165.165515 C46.5716475,174.874659 30.642883,204.973005 44.6408882,216.623978 C58.6388934,228.274951 88.5656631,241.867752 90.4964224,238.469552 C92.4271817,235.071351 99.1848394,229.731322 96.2887004,228.760408 C93.3925614,227.789493 63.4657917,203.031177 63.4657917,203.031177 C63.4657917,203.031177 86.1522139,163.223687 66.3619307,154 Z"/>
    <path fill="#2F2E41" fill-rule="nonzero" d="M96.514177,108.348982 C96.514177,108.348982 97.2138254,98.7108372 105.84501,102.640727 C114.476194,106.570617 113.912997,95.738545 111.304702,93.8243929 C108.696408,91.9102408 108.779001,91.4365477 99.2394047,92.7172388 C89.6998081,93.9979299 71.1791983,96.1678154 77.1677289,115.255755 C83.1562595,134.343695 88.5798875,129.433304 88.5798875,129.433304 C88.5798875,129.433304 83.8197467,112.25666 88.6429052,115.529094 L93.4660491,118.801533 L96.0112389,118.265057 L96.514177,108.348982 Z"/>
    <polygon fill="#E6E8F1" fill-rule="nonzero" points="168.088 354 137.101 269.803 55.228 264.027 33.945 353.944 33 353.721 54.473 263 54.885 263.03 137.796 268.878 137.905 269.173 169 353.665"/>
    <circle cx="289" cy="269" r="15" fill="#0575E6" fill-rule="nonzero" opacity=".4"/>
    <circle cx="261.5" cy="276.5" r="10.5" fill="#0575E6" fill-rule="nonzero" opacity=".4"/>
    <circle cx="27.5" cy="126.5" r="10.5" fill="#0575E6" fill-rule="nonzero" opacity=".4"/>
    <path fill="#E6E8F1" fill-rule="nonzero" d="M229.980561 358L229 357.981192C229.379246 347.27374 230.542516 336.606967 232.480801 326.063505 236.720958 303.490058 243.771615 288.664919 253.436942 282L254 282.788092C231.421721 298.357119 229.992058 357.405171 229.980561 358zM241.956887 357L241 356.981282C241.020573 355.920179 241.618628 330.912154 251.450536 324L252 324.784133C242.56476 331.417443 241.961562 356.745015 241.956887 357z"/>
    <circle cx="259" cy="277" r="5" fill="#0575E6" fill-rule="nonzero"/>
    <circle cx="257" cy="319" r="5" fill="#0575E6" fill-rule="nonzero"/>
    <path fill="#E6E8F1" fill-rule="nonzero" d="M239.780631 285.014307C240.740723 290.813278 238.238393 296 238.238393 296 238.238393 296 234.179454 291.784678 233.219367 285.985693 232.25928 280.186707 234.761605 275 234.761605 275 234.761605 275 238.820545 279.215317 239.780631 285.014307zM256.013439 298.999296C250.490571 300.922382 245 299.482053 245 299.482053 245 299.482053 248.463717 294.92379 253.986561 293.000704 259.509405 291.077618 265 292.517947 265 292.517947 265 292.517947 261.536259 297.07621 256.013439 298.999296zM255.709411 336.259058C253.213085 337.10516 250.554622 337.229031 248 336.618279 251.313423 332.066059 256.794825 330.037168 262 331.436308 260.330634 333.610527 258.161429 335.273572 255.709411 336.259058z"/>
    <path fill="#0575E6" fill-rule="nonzero" d="M85.0166637,94.4101788 L88.66114,94.4108054 L88.6645558,114.26188 L82.8492579,114.26088 L82.8462153,96.578676 C82.8460092,95.380842 83.8177521,94.4099728 85.0166637,94.4101788 Z" transform="rotate(-10.466 85.755 104.336)"/>
    <circle cx="88.5" cy="117.5" r="7.5" fill="#0575E6" fill-rule="nonzero"/>
    <circle cx="88.5" cy="117.5" r="4.5" fill="#F2F2F2" fill-rule="nonzero"/>
    <circle cx="88.5" cy="117.5" r="1.5" fill="#0575E6" fill-rule="nonzero"/>
    <polygon fill="#0575E6" fill-rule="nonzero" points="361 65 361 108.866 297.978 108.866 286.335 123 287.665 108.866 282 108.866 282 65"/>
    <rect width="29" height="29" x="332" y="80" fill="#000" fill-rule="nonzero" opacity=".1"/>
    <polygon fill="#0575E6" fill-rule="nonzero" points="339 86 418 86 418 129.866 412.334 129.866 413.665 144 402.023 129.866 339 129.866"/>
    <ellipse cx="286.5" cy="128.5" fill="#000" fill-rule="nonzero" opacity=".1" rx="17.5" ry="1.5"/>
    <ellipse cx="414" cy="151" fill="#000" fill-rule="nonzero" opacity=".1" rx="20" ry="2"/>
  </g>
</svg>
