<svg xmlns="http://www.w3.org/2000/svg" width="546" height="326" viewBox="0 0 546 326">
  <g fill="none">
    <path fill="#3F3D56" d="M132.086462,257 L131.481064,256.767626 C131.348033,256.716304 118.107469,251.522348 111.905004,239.745287 C105.702295,227.967658 108.739463,213.787356 108.770861,213.645789 L108.91381,213 L109.518936,213.232374 C109.651967,213.283696 122.892254,218.477652 129.094996,230.254713 C135.297705,242.032342 132.260537,256.212644 132.229139,256.354211 L132.086462,257 Z M112.898225,239.19707 C118.142173,249.154641 128.605282,254.258919 131.256313,255.424158 C131.760346,252.515003 133.341055,240.750934 128.101789,230.80293 C122.863073,220.856077 112.395836,215.743903 109.743701,214.575842 C109.239387,217.486689 107.659232,229.249649 112.898225,239.19707 Z"/>
    <path fill="#CDCEE1" d="M116.935273,235.851817 C128.53325,242.782812 133,256.549672 133,256.549672 C133,256.549672 118.66271,259.079178 107.064727,252.148188 C95.4667446,245.217197 91,231.450327 91,231.450327 C91,231.450327 105.337295,228.920821 116.935273,235.851817 Z"/>
    <rect width="347" height="1" y="257" fill="#3F3D56"/>
    <rect width="347" height="1" x="199" y="325" fill="#3F3D56"/>
    <path fill="#E6F1FC" d="M256.539721 248.956672L280.911945 212.428311 256.589562 252.88642 256.640424 256.996778C254.861154 257.010454 253.099168 256.980593 251.354467 256.907197L252.563274 204.07125 252.530155 203.663641 252.574759 203.584889 252.690457 198.592208 226 159.536669 252.658972 194.855475 252.753577 195.910771 253.666611 155.991156 230.61325 115.499507 253.732265 148.978425 253.490966 66.275266 253.491478 66 253.499322 66.2707141 255.029657 131.451933 276.040046 104.975286 255.098459 137.067153 255.557019 172.774322 274.890896 137.925477 255.62806 178.02389 255.883324 197.878873 284 149.334856 255.968795 204.805429 256.539721 248.956672zM41.539719 248.956672L65.9119449 212.428311 41.5895601 252.88642 41.6404215 256.996778C39.8611514 257.010454 38.0991655 256.980593 36.3544639 256.907197L37.5632716 204.07125 37.5301522 203.663641 37.5747563 203.584889 37.6904542 198.592208 11 159.536669 37.6589741 194.855475 37.7535789 195.910771 38.6666137 155.991156 15.6132501 115.499507 38.7322674 148.978425 38.4909681 66.275266 38.4914807 66 38.4993241 66.2707141 40.0296595 131.451933 61.0400501 104.975286 40.0984564 137.067153 40.5570169 172.774322 59.890895 137.925477 40.6280575 178.02389 40.8833221 197.878873 69 149.334856 40.9687923 204.805429 41.539719 248.956672zM216 117.20055L214.975209 117.20055 214.975209 89.2037848C214.975213 84.9062668 213.263328 80.7847633 210.21615 77.7459624 207.168972 74.7071614 203.036111 73 198.726755 73L139.248449 73C134.939094 73 130.806234 74.7071616 127.759057 77.7459627 124.711879 80.7847637 123 84.9062673 123 89.2037848L123 242.796215C123 247.093733 124.711879 251.215236 127.759057 254.254037 130.806234 257.292838 134.939094 259 139.248449 259L198.726731 259C203.036091 259 207.168958 257.292848 210.216141 254.254046 213.263324 251.215245 214.975213 247.093737 214.975209 242.796215L214.975209 137.12912 216 137.12912 216 117.20055z"/>
    <path fill="#000518" d="M199.23176,256 L138.767751,256 C131.718422,255.990943 126.006768,250.344486 126,243.377989 L126,89.6179639 C126.00778,82.6525374 131.719502,77.0078234 138.767751,77 L146.840939,77 L146.560675,77.6735985 C146.298531,78.3049263 146.164462,78.9810039 146.166083,79.6634157 C146.169353,82.5755664 148.557373,84.9355252 151.50415,84.9387562 L185.977279,84.9387562 C188.923893,84.9353207 191.311655,82.5754052 191.314867,79.6634157 C191.316346,78.9809879 191.182453,78.3048911 190.920759,77.6733642 L190.640974,77 L199.23176,77 C206.280105,77.0077827 211.991991,82.6524425 212,89.6179639 L212,243.377989 C211.993003,250.344581 206.281186,255.990984 199.23176,256 L199.23176,256 Z M138.767751,77.9763147 C132.264929,77.9836885 126.995249,83.1915548 126.987924,89.6179639 L126.987924,243.377989 C126.994152,249.805503 132.263813,255.015161 138.767751,255.023685 L199.23176,255.023685 C205.735864,255.015368 211.005787,249.805667 211.012076,243.377989 L211.012076,89.6179639 C211.004691,83.1913908 205.734748,77.9834813 199.23176,77.9763147 L192.069314,77.9763147 C192.601835,79.8598944 192.21231,81.881205 191.016506,83.4395017 C189.820703,84.9977985 187.956254,85.913728 185.977284,85.9150709 L151.50415,85.9150709 C149.525093,85.9138825 147.660498,84.9980174 146.464581,83.4396979 C145.268663,81.8813784 144.879079,79.8599771 145.411626,77.9763147 L138.767751,77.9763147 Z"/>
    <rect width="50" height="2" x="152" y="181" fill="#0575E6"/>
    <rect width="50" height="2" x="152" y="187" fill="#0575E6"/>
    <rect width="50" height="2" x="152" y="192" fill="#0575E6"/>
    <rect width="11" height="11" x="135" y="182" fill="#0575E6"/>
    <rect width="50" height="2" x="152" y="206" fill="#0575E6"/>
    <rect width="50" height="2" x="152" y="211" fill="#0575E6"/>
    <rect width="50" height="2" x="152" y="217" fill="#0575E6"/>
    <rect width="11" height="11" x="135" y="207" fill="#0575E6"/>
    <path fill="#D0CDE1" d="M180.223437,145.243589 C177.651905,154.356279 168.843832,160 168.843832,160 C168.843832,160 164.205032,150.869126 166.776563,141.756411 C169.348095,132.643697 178.156168,127 178.156168,127 C178.156168,127 182.794968,136.130893 180.223437,145.243589 Z"/>
    <path fill="#D0CDE1" d="M156.776564,145.243589 C159.348091,154.356279 168.15617,160 168.15617,160 C168.15617,160 172.794966,150.869126 170.223439,141.756411 C167.651912,132.643697 158.843828,127 158.843828,127 C158.843828,127 154.205032,136.130893 156.776564,145.243589 Z"/>
    <path fill="#0575E6" d="M161.253223 142.184703C168.156781 148.812117 169 159 169 159 169 159 158.65034 158.442715 151.746782 151.815301 144.843224 145.187888 144 135 144 135 144 135 154.349665 135.557261 161.253223 142.184703zM176.746782 142.184703C169.843224 148.812117 169 159 169 159 169 159 179.349665 158.442715 186.253218 151.815301 193.156772 145.187888 194 135 194 135 194 135 183.65034 135.557261 176.746782 142.184703z"/>
    <polygon fill="#0575E6" points="56.934 86.744 72.003 86.746 72.005 101.289 56.936 101.287" transform="rotate(-21.144 64.47 94.017)"/>
    <path fill="#3F3D56" d="M72,97.2793254 L56.7090626,103 L51,88.7206843 L66.2909424,83 L72,97.2793254 Z M57.1881478,102 L70.95,96.8513943 L65.8118522,84.0000005 L52.05,89.1486057 L57.1881478,102 Z"/>
    <polygon fill="#0575E6" points="109.455 4.009 124.524 4.011 124.526 18.554 109.457 18.552" transform="rotate(-21.144 116.99 11.282)"/>
    <path fill="#3F3D56" d="M124 14.2793212L108.709061 20 103 5.7206739 118.290939 0 124 14.2793212zM109.188151 18.9999915L122.95 13.8513898 117.811854.999991471 104.050005 6.14859555 109.188151 18.9999915zM412.000393 221C404.385176 221 397.707625 228.755554 394.025369 240.336501 393.764911 241.149197 393.52073 241.984121 393.292826 242.831736 391.742141 248.768617 390.971949 254.873665 391.00078 261 391.00078 283.057138 400.419671 301 412.000393 301 423.581115 301 433 283.057163 433 261 433 238.942842 423.58111 221 412.000393 221zM412.000393 300.365079C400.781056 300.365079 391.651931 282.70476 391.651931 261.000002 391.621692 254.847752 392.401857 248.717185 393.973285 242.758726 394.188158 241.961895 394.418232 241.180942 394.663506 240.415864 398.248091 229.155557 404.678205 221.634936 412.000393 221.634936 423.219724 221.634936 432.348849 239.295254 432.348849 261.000017 432.348849 282.70478 423.219724 300.365079 412.000393 300.365079L412.000393 300.365079z"/>
    <path fill="#3F3D56" d="M416.5,284 C412.294235,284 409,273.677476 409,260.5 C409,247.322524 412.294235,237 416.5,237 C420.705765,237 424,247.322494 424,260.5 C424,273.677506 420.70577,284 416.5,284 Z M416.5,237.645132 C412.804266,237.645132 409.681819,248.111301 409.681819,260.500015 C409.681819,272.888729 412.804266,283.354878 416.5,283.354878 C420.195734,283.354878 423.318187,272.888734 423.318187,260.500015 C423.318187,248.111296 420.195734,237.645132 416.5,237.645132 L416.5,237.645132 Z"/>
    <ellipse cx="417.5" cy="262" fill="#CFCCE0" rx="2.5" ry="5"/>
    <polygon fill="#3F3D56" points="412 188.16 456 188 456 205.235 412 207"/>
    <polygon fill="#3F3D56" points="375.645 247 375 246.964 376.955 211 417 211 417 211.654 377.567 211.654"/>
    <polygon fill="#3F3D56" points="374.864 303 352 299.561 352.136 299 375 302.439"/>
    <polygon fill="#3F3D56" points="392.401 298.891 393.038 298.891 393.039 326.027 392.402 326.027" transform="rotate(-85.292 392.72 312.459)"/>
    <path fill="#3F3D56" d="M443,246.483463 C442.762885,247.216955 442.539472,247.965655 442.329758,248.729563 L441.668997,248.799554 L421.106527,251 L374,246.434765 L423.003435,244 L442.380335,246.407392 L443,246.483463 Z"/>
    <path fill="#2F2E41" d="M430.56604,133.693114 C430.56604,133.693114 423.698114,131.234468 419.283022,141.069056 C414.86793,150.903644 408,161.721691 408,161.721691 L411.924531,162.705149 C411.924531,162.705149 412.905662,155.820936 415.358491,154.837478 L414.37736,163.688607 C414.37736,163.688607 443.811325,174.01493 457.056605,162.705149 L456.56604,159.263045 C456.56604,159.263045 458.528308,159.754774 458.528308,162.705149 L460,161.229967 C460,161.229967 458.528308,158.279601 454.113206,154.345753 C451.215332,151.76376 450.219494,146.851533 449.877283,143.780348 C449.620904,141.215859 448.597294,138.788907 446.9407,136.817788 C444.006629,133.409308 438.660367,129.786598 430.56604,133.693114 Z"/>
    <path fill="#FFB9B9" d="M394.367449,143 L391.725413,113.047494 C391.725413,113.047494 386.441337,96.7966628 394.367449,98.0712383 C402.293562,99.3458139 397.596605,111.772918 397.596605,111.772918 L402,143 L394.367449,143 Z"/>
    <polygon fill="#FFB9B9" points="371.03 279 368 289.88 373.757 295 378 281.24"/>
    <path fill="#FFB9B9" d="M395.414636,286 L392,297.793105 L403.951224,305 C403.951224,305 404.292685,291.568966 406,288.948275 L395.414636,286 Z"/>
    <path fill="#021B79" d="M409.264419,224.921484 L407.653843,228.167558 C407.653843,228.167558 389.293266,219.727781 384.461535,231.413627 C379.629805,243.099473 369,280.104711 369,280.104711 L378.341353,284 L395.413468,244.722523 L434.389425,243.748683 L436,222 L409.264419,224.921484 Z"/>
    <path fill="#021B79" d="M421.805202 229.863635C421.805202 229.863635 395.574209 224.454543 393.654872 237.5 391.735535 250.545452 394.61456 275.363633 394.934429 276 395.254297 276.636361 393.654872 288.409088 393.654872 288.409088L405.170914 290C405.170914 290 412.528389 255.31818 409.329486 246.409089L430.973184 245.077454C438.44442 244.617781 444.547983 238.747389 444.977627 231.314122 445.142087 228.468749 444.426007 225.886363 441.958285 224.454543 434.280917 220 420.205753 220 420.205753 220L421.805202 229.863635zM371.205818 287.953498C371.205818 287.953498 368.992534 283.4609 365.830708 285.557445 362.668882 287.653989 355.396668 292.146586 355.396668 292.146586 355.396668 292.146586 344.147196 295.898947 354.131941 298.436223 363.013316 300.693118 365.198341 300.233263 365.198341 300.233263 365.198341 300.233263 372.470521 301.43129 373.419087 300.832276 374.367653 300.233263 375 290.649055 375 290.649055 375 290.649055 370.573451 289.750538 371.205818 287.953498zM396.994099 298.899045C396.994099 298.899045 393.817656 294.624431 391.594148 296.45641 389.37064 298.28839 381.42951 303.478991 381.42951 303.478991 381.42951 303.478991 368.088458 307.14295 379.841291 310.501577 391.594124 313.860204 404.617534 313.249544 404.935175 312.028224 405.252817 310.806905 404.299887 301.952344 404.299887 301.952344 404.299887 301.952344 397.629388 301.647017 396.994099 298.899045z"/>
    <circle cx="434.5" cy="153.5" r="11.5" fill="#FFB9B9"/>
    <path fill="#FFB9B9" d="M426.814741,158 C426.814741,158 426.180025,170.895522 423.006448,171.839094 C419.832872,172.782667 410.946843,183.161993 415.072497,186.307239 C419.198151,189.452485 443,187.250831 443,187.250831 L440.778495,170.895555 C440.778495,170.895555 435.700765,167.435782 439.826404,161.459807 L426.814741,158 Z"/>
    <path fill="#E6F1FC" d="M426.029077,180.422676 L423.783651,169.876287 L416.405817,167 L410.311084,181.061851 C410.311084,181.061851 403.414402,226.603083 405.33909,227.242259 C406.419031,227.622007 407.56376,227.784938 408.707229,227.721649 C408.707229,227.721649 418.972065,224.525771 422.179791,226.123713 C425.387516,227.721654 442.067863,229 442.067863,229 C442.067863,229 453.615777,222.927835 452.974225,217.494846 C452.332674,212.061856 452.974225,181.701037 452.974225,181.701037 L451.53071,168.118566 L438.873924,170.091161 L426.029077,180.422676 Z"/>
    <polygon fill="#E6F1FC" points="417 168.896 416.679 166.985 407.679 156.156 402.536 138 390 142.778 399 164.755 411.857 181"/>
    <path fill="#2F2E41" d="M419.498595,155 C419.498595,155 423.487435,149.666665 426.977666,148.696969 C430.467897,147.727272 430.966506,142.878786 430.966506,142.878786 C430.966506,142.878786 439.94139,152.575754 445.426039,153.060602 C450.910688,153.545451 445.924643,141.424241 445.924643,141.424241 L435.95256,139 L426.479071,139.969696 L419,144.818178 L419.498595,155 Z"/>
    <polygon fill="#3F3D56" points="456.367 227.829 456.06 214.643 426.576 214.643 425.634 250 425 249.983 425.959 214 456.673 214 456.683 214.311 457 227.807"/>
    <polygon fill="#3F3D56" points="454.62 210 454 210 454 186 464 188.946 463.827 189.55 454.62 186.837"/>
    <path fill="#3F3D56" d="M458.000393,228 C450.385181,228 443.707625,235.755554 440.025369,247.336501 C439.764911,248.149197 439.52073,248.984121 439.292826,249.831732 C437.742141,255.768614 436.971949,261.873664 437.00078,268 C437.00078,290.057138 446.419676,308 458.000393,308 C469.58111,308 479,290.057138 479,268 C479,245.942867 469.58111,228 458.000393,228 Z M458.000393,307.365079 C446.781056,307.365079 437.651931,289.70476 437.651931,268.000002 C437.621692,261.847752 438.401857,255.717185 439.973285,249.758726 C440.188158,248.961895 440.418232,248.180942 440.663506,247.415864 C444.248091,236.155557 450.678205,228.634936 458.000393,228.634936 C469.219724,228.634936 478.348849,246.295254 478.348849,268.000017 C478.348849,289.70478 469.219724,307.365079 458.000393,307.365079 Z"/>
    <path fill="#3F3D56" d="M464.5,291 C460.294234,291 457,280.677477 457,267.5 C457,254.322528 460.294234,244 464.5,244 C468.70576,244 472,254.322523 472,267.5 C472,280.677482 468.705766,291 464.5,291 Z M464.499997,244.645156 C460.804265,244.645156 457.681818,255.111305 457.681818,267.500017 C457.681818,279.88873 460.804265,290.354878 464.499997,290.354878 C468.19573,290.354878 471.318182,279.888735 471.318182,267.500017 C471.318182,255.1113 468.195735,244.645156 464.499997,244.645156 L464.499997,244.645156 Z"/>
    <ellipse cx="464.5" cy="268" fill="#CFCCE0" rx="2.5" ry="5"/>
    <polygon fill="#3F3D56" points="461 186 467 188.526 465.857 192 461 189.789"/>
    <polygon fill="#3F3D56" points="433 213 433 218 452 218 452 213.332"/>
    <polygon fill="#3F3D56" points="386 211 386 216 405 216 405 211.332"/>
    <path fill="#3F3D56" d="M420,197.653854 L419.834707,197.653854 L419.834707,193.439288 C419.834707,192.092106 418.661369,191 417.213984,191 L407.620723,191 C406.925664,191 406.259073,191.256996 405.767592,191.714451 C405.276111,192.171906 405,192.792349 405,193.439288 L405,216.560712 C405,217.907894 406.173337,219 407.620723,219 L417.21399,219 C418.661375,219 419.834712,217.907894 419.834712,216.560712 L419.834712,200.653853 L420,200.653853 L420,197.653854 Z"/>
    <circle cx="412.5" cy="198.5" r="1.5" fill="#D0CDE1"/>
    <path fill="#FFB9B9" d="M451.051048,212.679296 L420.827107,212.098409 C420.827107,212.098409 403.950267,216.045963 406.207861,207.420796 C408.465455,198.795629 420.284918,205.449718 420.284918,205.449718 L452,204.229929 L451.051048,212.679296 Z"/>
    <path fill="#E6F1FC" d="M447.330156,169.555263 L450.204563,167.335461 C450.204563,167.335461 454.995243,164.798541 455.953382,173.677756 C456.911521,182.556972 463.937846,212.048652 456.911536,212.36577 C449.885226,212.682887 432,213 432,213 L433.916273,203.169437 L448.607691,202.218075 L447.330156,169.555263 Z"/>
    <polygon fill="#000" points="449 184 447.979 202.136 433 205 446.617 199.909" opacity=".15"/>
    <polygon fill="#0575E6" points="240.873 28.194 255.937 28.193 255.936 42.741 240.872 42.742" transform="rotate(77.218 248.405 35.467)"/>
    <path fill="#3F3D56" d="M244.61545 42L241 26.4136275 256.38454 23 260 38.5863676 244.61545 42zM241.949993 27.0222797L245.203906 41.0500145 259.050012 37.9777498 255.796099 23.950015 241.949993 27.0222797zM391 106L391 68 504 68 504 96.1013686 401.072722 96.1013686 391 106zM391.982609 68.9655921L391.982609 103.668982 400.665838 95.135762 503.017391 95.135762 503.017391 68.9655921 391.982609 68.9655921z"/>
    <rect width="63" height="5" x="416" y="75" fill="#0575E6"/>
    <rect width="63" height="5" x="416" y="83" fill="#0575E6"/>
  </g>
</svg>
