<svg xmlns="http://www.w3.org/2000/svg" width="524" height="313" viewBox="0 0 524 313">
  <g fill="none">
    <path fill="#3F3D56" d="M128.086462,246 L127.481064,245.778189 C127.348033,245.729199 114.107469,240.771332 107.905004,229.529592 C101.702295,218.28731 104.739463,204.751567 104.770861,204.616435 L104.91381,204 L105.518936,204.221811 C105.651967,204.270801 118.892254,209.228668 125.094996,220.470408 C131.297705,231.71269 128.260537,245.248433 128.229139,245.383565 L128.086462,246 Z M108.898225,229.006294 C114.142173,238.511248 124.605282,243.383514 127.256313,244.495787 C127.760346,241.718867 129.341055,230.489527 124.101789,220.993706 C118.863073,211.498982 108.395836,206.61918 105.743701,205.504213 C105.239387,208.282749 103.659232,219.511028 108.898225,229.006294 Z"/>
    <path fill="#CDCEE1" d="M112.70026,225.665208 C123.745953,232.329627 128,245.566993 128,245.566993 C128,245.566993 114.345438,247.99921 103.29974,241.334796 C92.2540425,234.670382 88,221.433007 88,221.433007 C88,221.433007 101.654567,219.00079 112.70026,225.665208 Z"/>
    <rect width="332" height="1" y="246" fill="#3F3D56"/>
    <rect width="332" height="1" x="192" y="312" fill="#3F3D56"/>
    <path fill="#01172E" d="M246.486627 238.293566L270.01843 203.295188 246.53475 242.058716 246.583857 245.996913C244.865942 246.010016 243.164714 245.981406 241.480175 245.911084L242.647299 195.288161 242.615322 194.897625 242.658388 194.822171 242.770096 190.038608 217 152.618902 242.739697 186.458387 242.83104 187.469482 243.71259 149.221893 221.454172 110.426229 243.77598 142.502889 243.543001 63.2637365 243.543496 63 243.551069 63.2593753 245.028634 125.71049 265.314527 100.342813 245.095064 131.090518 245.537812 165.302099 264.205003 131.912892 245.606403 170.33179 245.852865 189.355151 273 142.844391 245.935388 195.991589 246.486627 238.293566zM40.4866252 238.293566L64.0184296 203.295188 40.5347477 242.058716 40.5838552 245.996913C38.8659393 246.010016 37.1647115 245.981406 35.480172 245.911084L36.6472967 195.288161 36.6153194 194.897625 36.6583854 194.822171 36.7700937 190.038608 11 152.618902 36.7396991 186.458387 36.8310417 187.469482 37.7125925 149.221893 15.4541725 110.426229 37.7759823 142.502889 37.5430037 63.2637365 37.5434986 63 37.5510716 63.2593753 39.0286368 125.71049 59.3145311 100.342813 39.0950613 131.090518 39.5378094 165.302099 58.2050021 131.912892 39.6064003 170.33179 39.8528627 189.355151 67 142.844391 39.9353857 195.991589 40.4866252 238.293566zM207 112.299451L206.019286 112.299451 206.019286 85.5068479C206.01929 81.3941693 204.381034 77.4499348 201.464917 74.541835 198.548801 71.6337351 194.593698 70 190.469691 70L133.549591 70C129.425584 70 125.470482 71.6337353 122.554366 74.5418352 119.63825 77.4499352 118 81.3941697 118 85.5068479L118 232.493152C118 236.60583 119.63825 240.550065 122.554366 243.458165 125.470482 246.366265 129.425584 248 133.549591 248L190.469667 248C194.593679 248 198.548787 246.366274 201.464909 243.458173 204.381031 240.550073 206.01929 236.605835 206.019286 232.493152L206.019286 131.370879 207 131.370879 207 112.299451z"/>
    <path fill="#D0CDE1" d="M191.677164,245 L133.322364,245 C126.518942,244.991348 121.006532,239.597247 121,232.942101 L121,86.0540326 C121.007509,79.39991 126.519985,74.0074738 133.322364,74 L141.113929,74 L140.843442,74.6434936 C140.590443,75.2466056 140.46105,75.8924674 140.462615,76.5443803 C140.465771,79.3263791 142.770488,81.5808648 145.614471,81.5839515 L178.885048,81.5839515 C181.728873,81.5806695 184.033341,79.3262251 184.036441,76.5443803 C184.037869,75.8924521 183.908646,75.2465719 183.656081,74.6432697 L183.386057,74 L191.677164,74 C198.479636,74.0074348 203.992271,79.3998194 204,86.0540326 L204,232.942101 C203.993247,239.597337 198.480679,244.991387 191.677164,245 L191.677164,245 Z M133.322364,74.9326805 C127.046385,74.9397248 121.960531,79.9148372 121.953461,86.0540326 L121.953461,232.942101 C121.959473,239.082352 127.045308,244.059176 133.322364,244.06732 L191.677164,244.06732 C197.95438,244.059374 203.040469,239.082509 203.046539,232.942101 L203.046539,86.0540326 C203.039411,79.9146806 197.953304,74.9395268 191.677164,74.9326805 L184.764571,74.9326805 C185.278515,76.7320778 184.902578,78.6630506 183.748489,80.1517028 C182.594399,81.640355 180.794989,82.5153491 178.885053,82.516632 L145.614471,82.516632 C143.70445,82.5154967 141.9049,81.6405641 140.7507,80.1518902 C139.5965,78.6632162 139.220507,76.7321569 139.734476,74.9326805 L133.322364,74.9326805 Z"/>
    <rect width="48" height="2" x="146" y="174" fill="#D0CDE1"/>
    <rect width="48" height="2" x="146" y="180" fill="#D0CDE1"/>
    <rect width="48" height="2" x="146" y="185" fill="#D0CDE1"/>
    <rect width="11" height="11" x="130" y="175" fill="#D0CDE1"/>
    <rect width="48" height="2" x="146" y="198" fill="#D0CDE1"/>
    <rect width="48" height="2" x="146" y="203" fill="#D0CDE1"/>
    <rect width="48" height="2" x="146" y="209" fill="#D0CDE1"/>
    <rect width="11" height="11" x="130" y="199" fill="#D0CDE1"/>
    <path fill="#D0CDE1" d="M173.275208,139.137916 C170.875111,147.698323 162.654243,153 162.654243,153 C162.654243,153 158.324696,144.422512 160.724792,135.862084 C163.124889,127.301655 171.345757,122 171.345757,122 C171.345757,122 175.675304,130.577506 173.275208,139.137916 Z"/>
    <path fill="#D0CDE1" d="M149.724793,139.137916 C152.124885,147.698323 160.345758,153 160.345758,153 C160.345758,153 164.675301,144.422512 162.275209,135.862084 C159.875118,127.301655 151.654239,122 151.654239,122 C151.654239,122 147.324697,130.577506 149.724793,139.137916 Z"/>
    <path fill="#021B79" d="M154.253223 137.184703C161.156781 143.812117 162 154 162 154 162 154 151.65034 153.442715 144.746782 146.815301 137.843224 140.187888 137 130 137 130 137 130 147.349665 130.557261 154.253223 137.184703zM169.746782 137.184703C162.843224 143.812117 162 154 162 154 162 154 172.349665 153.442715 179.253218 146.815301 186.156772 140.187888 187 130 187 130 187 130 176.65034 130.557261 169.746782 137.184703z"/>
    <polygon fill="#021B79" points="54.641 83.287 69.103 83.287 69.103 97.249 54.641 97.249" transform="rotate(-21.144 61.872 90.268)"/>
    <path fill="#3F3D56" d="M69,93.5653591 L54.4372025,99 L49,85.4346501 L63.5628023,80 L69,93.5653591 Z M54.8934741,98.0499995 L68,93.1588246 L63.1065259,80.9500005 L50,85.8411754 L54.8934741,98.0499995 Z"/>
    <polygon fill="#021B79" points="105.045 3.851 119.508 3.851 119.508 17.813 105.045 17.813" transform="rotate(-21.144 112.277 10.832)"/>
    <path fill="#3F3D56" d="M119 13.5653552L104.437201 19 99 5.43464021 113.562799 0 119 13.5653552zM104.893477 18.0499988L118.000005 13.1588203 113.106527.949991897 100.000005 5.84116577 104.893477 18.0499988zM395.000374 212C387.747787 212 381.388214 219.464721 377.881304 230.611382 377.633249 231.393602 377.400695 232.197217 377.183644 233.013046 375.706801 238.727294 374.973285 244.603403 375.000743 250.5 375.000743 271.729996 383.971115 289 395.000374 289 406.029633 289 415 271.730019 415 250.5 415 229.269986 406.029628 212 395.000374 212zM395.000374 288.388889C384.315291 288.388889 375.620887 271.390832 375.620887 250.500002 375.592087 244.578461 376.335102 238.67779 377.8317 232.942773 378.036341 232.175824 378.255459 231.424156 378.489053 230.687769 381.902944 219.849723 388.026862 212.611125 395.000374 212.611125 405.685452 212.611125 414.379856 229.609182 414.379856 250.500016 414.379856 271.390851 405.685452 288.388889 395.000374 288.388889L395.000374 288.388889z"/>
    <path fill="#3F3D56" d="M400,273 C396.07462,273 393,263.116733 393,250.5 C393,237.883267 396.07462,228 400,228 C403.92538,228 407,237.883239 407,250.5 C407,263.116761 403.925385,273 400,273 Z M400,228.617679 C396.550648,228.617679 393.636364,238.63848 393.636364,250.500014 C393.636364,262.361549 396.550648,272.38233 400,272.38233 C403.449352,272.38233 406.363641,262.361553 406.363641,250.500014 C406.363641,238.638475 403.449352,228.617679 400,228.617679 L400,228.617679 Z"/>
    <ellipse cx="400.5" cy="251" fill="#CFCCE0" rx="2.5" ry="5"/>
    <polygon fill="#3F3D56" points="395 180.16 437 180 437 197.235 395 199"/>
    <polygon fill="#3F3D56" points="360.614 237 360 236.966 361.862 203 400 203 400 203.618 362.444 203.618"/>
    <polygon fill="#3F3D56" points="359.87 291 338 287.561 338.13 287 360 290.439"/>
    <polygon fill="#3F3D56" points="376.591 286.978 377.202 286.978 377.202 313.02 376.591 313.02" transform="rotate(-85.292 376.896 299.999)"/>
    <path fill="#3F3D56" d="M425,236.483463 C424.769758,237.216955 424.55282,237.965655 424.349186,238.729563 L423.707577,238.799554 L403.74112,241 L358,236.434765 L405.583046,234 L424.398297,236.407392 L425,236.483463 Z"/>
    <path fill="#2F2E41" d="M412.698115,127.646083 C412.698115,127.646083 406.094341,125.255733 401.84906,134.817138 C397.603779,144.378543 391,154.896088 391,154.896088 L394.773587,155.852228 C394.773587,155.852228 395.716983,149.159243 398.075472,148.203103 L397.132077,156.808368 C397.132077,156.808368 425.433966,166.847848 438.169813,155.852228 L437.698115,152.505738 C437.698115,152.505738 439.584911,152.983808 439.584911,155.852228 L441,154.418023 C441,154.418023 439.584911,151.549612 435.339621,147.725038 C432.553204,145.214767 431.595667,140.438991 431.266618,137.453117 C431.0201,134.959863 430.03586,132.600327 428.442981,130.683961 C425.621759,127.370161 420.481123,123.848081 412.698115,127.646083 Z"/>
    <path fill="#FFB9B9" d="M378.367449,138 L375.725413,109.378716 C375.725413,109.378716 370.441337,93.8501444 378.367449,95.0680722 C386.293562,96.2859999 381.596605,108.160789 381.596605,108.160789 L386,138 L378.367449,138 Z"/>
    <polygon fill="#FFB9B9" points="356.03 268 353 278.88 358.757 284 363 270.24"/>
    <path fill="#FFB9B9" d="M378.414636,274 L375,285.793105 L386.951224,293 C386.951224,293 387.292685,279.568966 389,276.948275 L378.414636,274 Z"/>
    <path fill="#01172E" d="M392.461534,216.780122 L390.923074,219.869128 C390.923074,219.869128 373.384612,211.837727 368.769228,222.958129 C364.153844,234.078531 354,269.293193 354,269.293193 L362.923083,273 L379.230776,235.623046 L416.46154,234.696327 L418,214 L392.461534,216.780122 Z"/>
    <path fill="#01172E" d="M404.697309 221.581816C404.697309 221.581816 379.475201 216.32727 377.629685 229 375.784168 241.672725 378.552462 265.781815 378.860028 266.399997 379.167593 267.018179 377.629685 278.454542 377.629685 278.454542L388.702802 280C388.702802 280 395.777298 246.309089 392.701429 237.654543L413.512677 236.360955C420.696558 235.914416 426.565368 230.211749 426.978487 222.990861 427.136623 220.226785 426.448084 217.718181 424.075274 216.32727 416.69319 212 403.159377 212 403.159377 212L404.697309 221.581816zM357.205818 276.953498C357.205818 276.953498 354.992534 272.4609 351.830708 274.557445 348.668882 276.653989 341.396668 281.146586 341.396668 281.146586 341.396668 281.146586 330.147196 284.898947 340.131941 287.436223 349.013316 289.693118 351.198341 289.233263 351.198341 289.233263 351.198341 289.233263 358.470521 290.43129 359.419087 289.832276 360.367653 289.233263 361 279.649055 361 279.649055 361 279.649055 356.573451 278.750538 357.205818 276.953498zM380.260962 285.899045C380.260962 285.899045 377.1904 281.624431 375.04101 283.45641 372.891619 285.28839 365.215193 290.478991 365.215193 290.478991 365.215193 290.478991 352.318843 294.14295 363.679914 297.501577 375.040986 300.860204 387.630282 300.249544 387.937336 299.028224 388.24439 297.806905 387.323224 288.952344 387.323224 288.952344 387.323224 288.952344 380.875075 288.647017 380.260962 285.899045z"/>
    <ellipse cx="417.5" cy="148" fill="#FFB9B9" rx="11.5" ry="11"/>
    <path fill="#FFB9B9" d="M408.814741,151 C408.814741,151 408.180025,163.895522 405.006448,164.839094 C401.832872,165.782667 392.946843,176.161993 397.072497,179.307239 C401.198151,182.452485 425,180.250831 425,180.250831 L422.778495,163.895555 C422.778495,163.895555 417.700765,160.435782 421.826404,154.459807 L408.814741,151 Z"/>
    <path fill="#E6F1FC" d="M408.152866,171.989686 L406.000999,161.783504 L398.930574,159 L393.089789,172.608243 C393.089789,172.608243 386.480469,216.680403 388.324961,217.29896 C389.359905,217.666459 390.456937,217.824133 391.552761,217.762886 C391.552761,217.762886 401.389896,214.670101 404.463966,216.216496 C407.538037,217.762891 423.523369,219 423.523369,219 C423.523369,219 434.590119,213.123711 433.975299,207.86598 C433.36048,202.608248 433.975299,173.22681 433.975299,173.22681 L432.59193,160.082483 L420.46251,161.991446 L408.152866,171.989686 Z"/>
    <polygon fill="#E6F1FC" points="400 162.459 399.691 160.637 391.024 150.311 386.072 133 374 137.556 382.667 158.511 395.048 174"/>
    <path fill="#2F2E41" d="M402.498595,149 C402.498595,149 406.487435,143.666665 409.977666,142.696969 C413.467897,141.727272 413.966506,136.878786 413.966506,136.878786 C413.966506,136.878786 422.94139,146.575754 428.426039,147.060602 C433.910688,147.545451 428.924643,135.424241 428.924643,135.424241 L418.95256,133 L409.479071,133.969696 L402,138.818178 L402.498595,149 Z"/>
    <polygon fill="#3F3D56" points="437.407 219.445 437.119 206.625 409.477 206.625 408.594 241 408 240.983 408.899 206 437.693 206 437.703 206.302 438 219.424"/>
    <polygon fill="#3F3D56" points="435.62 202 435 202 435 178 445 180.946 444.827 181.55 435.62 178.837"/>
    <path fill="#3F3D56" d="M440.000374,218 C432.747792,218 426.388214,225.464721 422.881304,236.611382 C422.633249,237.393602 422.400695,238.197217 422.183644,239.013042 C420.706801,244.727291 419.973285,250.603401 420.000743,256.5 C420.000743,277.729996 428.97112,295 440.000374,295 C451.029628,295 460,277.729996 460,256.5 C460,235.270009 451.029628,218 440.000374,218 Z M440.000374,294.388889 C429.315291,294.388889 420.620887,277.390832 420.620887,256.500002 C420.592087,250.578461 421.335102,244.67779 422.8317,238.942773 C423.036341,238.175824 423.255459,237.424156 423.489053,236.687769 C426.902944,225.849723 433.026862,218.611125 440.000374,218.611125 C450.685452,218.611125 459.379856,235.609182 459.379856,256.500016 C459.379856,277.390851 450.685452,294.388889 440.000374,294.388889 Z"/>
    <path fill="#3F3D56" d="M445,278 C441.074619,278 438,268.116734 438,255.5 C438,242.883271 441.074619,233 445,233 C448.925376,233 452,242.883266 452,255.5 C452,268.116738 448.925381,278 445,278 Z M444.999998,233.617703 C441.550647,233.617703 438.636364,243.638483 438.636364,255.500017 C438.636364,267.36155 441.550647,277.38233 444.999998,277.38233 C448.449348,277.38233 451.363636,267.361555 451.363636,255.500017 C451.363636,243.638479 448.449353,233.617703 444.999998,233.617703 L444.999998,233.617703 Z"/>
    <ellipse cx="445.5" cy="257" fill="#CFCCE0" rx="2.5" ry="5"/>
    <polygon fill="#3F3D56" points="442 178 448 180.526 446.857 184 442 181.789"/>
    <polygon fill="#3F3D56" points="416 204 416 209 435 209 435 204.332"/>
    <polygon fill="#3F3D56" points="369 203 369 208 388 208 388 203.332"/>
    <path fill="#3F3D56" d="M403,189.416216 L402.845726,189.416216 L402.845726,185.352171 C402.845726,184.053103 401.750611,183 400.399719,183 L391.446008,183 C390.797286,183 390.175135,183.247817 389.716419,183.688935 C389.257704,184.130052 389,184.728336 389,185.352171 L389,207.647829 C389,208.946897 390.095115,210 391.446008,210 L400.399724,210 C401.750616,210 402.845731,208.946897 402.845731,207.647829 L402.845731,192.309073 L403,192.309073 L403,189.416216 Z"/>
    <circle cx="395.5" cy="190.5" r="1.5" fill="#D0CDE1"/>
    <path fill="#FFB9B9" d="M432.092307,204.679296 L403.18245,204.098409 C403.18245,204.098409 387.039386,208.045963 389.198824,199.420796 C391.358262,190.795629 402.663834,197.449718 402.663834,197.449718 L433,196.229929 L432.092307,204.679296 Z"/>
    <path fill="#E6F1FC" d="M429.78265,163.444165 L432.5544,161.320876 C432.5544,161.320876 437.173985,158.894256 438.097904,167.387419 C439.021824,175.880582 445.797209,204.090015 439.021838,204.393345 C432.246468,204.696675 415,205 415,205 L416.847835,195.596852 L431.014559,194.686854 L429.78265,163.444165 Z"/>
    <polygon fill="#000" points="431 176 430.043 193.273 416 196 428.766 191.151" opacity=".15"/>
    <polygon fill="#021B79" points="231.164 27.072 245.627 27.072 245.627 41.034 231.164 41.034" transform="rotate(77.218 238.396 34.053)"/>
    <path fill="#3F3D56" d="M234.61545 41L231 25.4136275 246.38454 22 250 37.5863676 234.61545 41zM231.949993 26.0222797L235.203906 40.0500145 249.050012 36.9777498 245.796099 22.950015 231.949993 26.0222797zM376 101L376 65 484 65 484 91.6223492 385.627026 91.6223492 376 101zM376.93913 65.9147715L376.93913 98.7916673 385.238146 90.707564 483.06087 90.707564 483.06087 65.9147715 376.93913 65.9147715z"/>
    <rect width="61" height="5" x="399" y="72" fill="#021B79"/>
    <rect width="61" height="5" x="399" y="80" fill="#021B79"/>
  </g>
</svg>
