<?xml version="1.0" encoding="utf-8"?>
<!-- Generator: Adobe Illustrator 16.0.4, SVG Export Plug-In . SVG Version: 6.00 Build 0)  -->
<!DOCTYPE svg PUBLIC "-//W3C//DTD SVG 1.1//EN" "http://www.w3.org/Graphics/SVG/1.1/DTD/svg11.dtd">
<svg version="1.1" id="Layer_1" xmlns="http://www.w3.org/2000/svg" xmlns:xlink="http://www.w3.org/1999/xlink" x="0px" y="0px"
	 width="300px" height="300px" viewBox="0 0 300 300" enable-background="new 0 0 300 300" xml:space="preserve">
<g>
	<path fill="#1CBAC9" d="M225.648,202.367c19.359-19.359,31.334-46.105,31.334-75.65c0-59.084-47.896-106.982-106.982-106.982
		c-59.084,0-106.982,47.898-106.982,106.982c0,29.932,12.291,56.992,32.102,76.41c0,0,27.02-12.676,29.572-13.223
		c2.553-0.545,29.785,0.07,45.309,0.07c10.324,0,31.211-1.775,46.166-0.324L225.648,202.367z"/>
	<path fill="#FFFFFF" d="M197.395,192.352c20.33-14.705,33.557-38.625,33.557-65.635c0-44.709-36.242-80.951-80.951-80.951
		s-80.951,36.242-80.951,80.951c0,26.99,13.205,50.893,33.508,65.602l48.082,16.172L197.395,192.352z"/>
	<circle fill="#FFB721" cx="150" cy="126.717" r="60"/>
	<path fill="#FFFFFF" d="M150.639,207.754l-0.057-0.002c-14.146-0.322-24.546-7.828-24.981-8.148
		c-0.778-0.523-21.062-13.896-44.354,0.125c-1.357,0.818-2.233,1.324-2.889,1.701c-1.205,0.695-1.568,0.906-2.949,1.928
		c-1.11,0.82-2.676,0.586-3.497-0.523s-0.587-2.676,0.523-3.496c1.608-1.191,2.14-1.498,3.423-2.238
		c0.639-0.367,1.49-0.859,2.81-1.654c26.1-15.711,48.862-0.576,49.819,0.076c0.16,0.115,9.657,6.926,22.151,7.23
		c12.564-0.307,21.99-7.111,22.086-7.182c0.262-0.189,24.811-17.428,50.018-0.041c2.498,1.725,3.285,2.258,4.791,3.098
		c1.205,0.672,1.637,2.195,0.965,3.4c-0.674,1.207-2.195,1.639-3.4,0.967c-1.693-0.945-2.658-1.598-5.195-3.35
		c-22.338-15.408-44.025-0.182-44.242-0.027c-0.416,0.307-10.814,7.812-24.964,8.135L150.639,207.754z"/>
	<path fill="#999999" d="M150.639,219.266l-0.137-0.004c-15.233-0.348-26.498-8.479-26.971-8.824
		c-0.806-0.582-20.411-14.381-40.026-0.002c-2.673,1.961-6.428,1.383-8.387-1.291c-1.959-2.672-1.381-6.428,1.292-8.387
		c21.441-15.719,44.839-6.873,54.216,0c0.066,0.049,8.73,6.197,20.013,6.504c11.286-0.307,19.949-6.455,20.035-6.518
		c9.355-6.859,32.754-15.705,54.195,0.014c2.674,1.959,3.252,5.715,1.293,8.387s-5.715,3.252-8.387,1.291
		c-19.789-14.504-39.826-0.146-40.027,0c-0.471,0.348-11.734,8.479-26.973,8.826L150.639,219.266z"/>
	<g enable-background="new    ">
		<path fill="#FFFFFF" d="M142.588,79.288h15.391l30.664,79.727h-15.772l-6.238-16.422h-32.532l-6.486,16.422h-15.772
			L142.588,79.288z M150.379,100.425l-10.697,27.371h21.33L150.379,100.425z"/>
	</g>
	<linearGradient id="SVGID_1_" gradientUnits="userSpaceOnUse" x1="149.6772" y1="19.7349" x2="149.6772" y2="127.1289">
		<stop  offset="0" style="stop-color:#FFFFFF"/>
		<stop  offset="1" style="stop-color:#FFFFFF;stop-opacity:0.5"/>
	</linearGradient>
	<path opacity="0.5" fill="url(#SVGID_1_)" d="M45.334,104.504c26.35,14.004,62.234,22.625,101.789,22.625
		c42.174,0,80.178-9.801,106.898-25.479C242.738,54.661,200.453,19.735,150,19.735C98.533,19.735,55.561,56.083,45.334,104.504z"/>
</g>
<g>
	<path fill="#999999" d="M54.25,235.929v31.344h-3.976v-5.387c-1.69,2.055-3.587,3.601-5.689,4.638
		c-2.104,1.037-4.403,1.556-6.9,1.556c-4.437,0-8.225-1.608-11.365-4.825c-3.141-3.217-4.71-7.13-4.71-11.739
		c0-4.514,1.584-8.374,4.753-11.582c3.169-3.207,6.981-4.811,11.437-4.811c2.573,0,4.902,0.547,6.986,1.643
		c2.084,1.094,3.913,2.736,5.488,4.926v-5.762H54.25z M38.132,239.011c-2.245,0-4.316,0.553-6.216,1.655
		c-1.899,1.104-3.41,2.652-4.532,4.647s-1.683,4.105-1.683,6.33c0,2.207,0.566,4.317,1.697,6.331
		c1.132,2.015,2.652,3.582,4.561,4.705c1.909,1.122,3.957,1.683,6.144,1.683c2.207,0,4.297-0.556,6.273-1.669
		c1.976-1.112,3.496-2.618,4.561-4.518c1.064-1.898,1.597-4.038,1.597-6.417c0-3.625-1.194-6.656-3.583-9.093
		C44.563,240.229,41.624,239.011,38.132,239.011z"/>
	<path fill="#999999" d="M63.325,235.929h4.033v5.617c1.613-2.15,3.399-3.759,5.358-4.825c1.959-1.065,4.091-1.599,6.396-1.599
		c2.343,0,4.422,0.596,6.237,1.786c1.814,1.191,3.154,2.794,4.019,4.812c0.864,2.016,1.296,5.156,1.296,9.42v16.133h-4.033v-14.951
		c0-3.611-0.15-6.021-0.449-7.231c-0.467-2.074-1.364-3.635-2.689-4.682c-1.325-1.046-3.054-1.569-5.186-1.569
		c-2.44,0-4.625,0.807-6.556,2.42c-1.931,1.613-3.203,3.61-3.817,5.992c-0.384,1.555-0.576,4.397-0.576,8.527v11.494h-4.033V235.929
		z"/>
	<path fill="#999999" d="M95.937,235.929h4.264l10.771,24.136l10.46-24.136h4.292l-18.697,42.81h-4.26l6.034-13.84L95.937,235.929z"
		/>
	<path fill="#FFB721" d="M146.697,239.356l-2.593,2.68c-2.157-2.093-4.266-3.141-6.325-3.141c-1.31,0-2.432,0.433-3.365,1.297
		c-0.934,0.864-1.401,1.873-1.401,3.025c0,1.018,0.385,1.987,1.155,2.909c0.77,0.941,2.386,2.046,4.85,3.313
		c3.002,1.555,5.042,3.053,6.121,4.494c1.058,1.459,1.587,3.102,1.587,4.926c0,2.574-0.904,4.754-2.712,6.539
		c-1.808,1.787-4.068,2.68-6.78,2.68c-1.809,0-3.535-0.394-5.18-1.182c-1.645-0.787-3.005-1.872-4.083-3.255l2.535-2.881
		c2.06,2.324,4.245,3.485,6.555,3.485c1.617,0,2.993-0.518,4.129-1.555c1.136-1.037,1.704-2.257,1.704-3.659
		c0-1.152-0.375-2.18-1.126-3.083c-0.75-0.883-2.444-1.997-5.081-3.342c-2.83-1.459-4.754-2.899-5.774-4.32
		c-1.02-1.422-1.53-3.044-1.53-4.869c0-2.381,0.812-4.359,2.438-5.935c1.625-1.574,3.679-2.362,6.161-2.362
		C140.868,235.122,143.773,236.534,146.697,239.356z"/>
	<path fill="#FFB721" d="M153.323,235.929h4.033v14.635c0,3.572,0.192,6.031,0.577,7.375c0.577,1.921,1.678,3.438,3.303,4.552
		c1.625,1.114,3.563,1.671,5.814,1.671c2.25,0,4.159-0.542,5.727-1.628c1.567-1.085,2.65-2.511,3.246-4.278
		c0.404-1.209,0.605-3.773,0.605-7.691v-14.635h4.12v15.384c0,4.321-0.504,7.577-1.513,9.767c-1.008,2.189-2.525,3.903-4.552,5.142
		c-2.026,1.239-4.565,1.858-7.62,1.858c-3.053,0-5.603-0.619-7.648-1.858c-2.045-1.238-3.572-2.967-4.58-5.186
		c-1.009-2.218-1.513-5.555-1.513-10.011V235.929z"/>
	<path fill="#FFB721" d="M188.182,235.929h4.119v4.58c1.229-1.805,2.525-3.154,3.89-4.047c1.363-0.894,2.784-1.34,4.264-1.34
		c1.114,0,2.305,0.355,3.572,1.066l-2.103,3.398c-0.846-0.364-1.557-0.547-2.133-0.547c-1.344,0-2.641,0.553-3.889,1.656
		c-1.248,1.104-2.199,2.819-2.852,5.143c-0.5,1.786-0.75,5.397-0.75,10.832v10.602h-4.119V235.929z"/>
	<path fill="#FFB721" d="M223.184,223.829v3.947c-1.479-0.635-2.746-0.951-3.803-0.951c-0.787,0-1.439,0.158-1.959,0.476
		c-0.518,0.316-0.845,0.682-0.979,1.095c-0.135,0.413-0.202,1.512-0.202,3.299l-0.003,4.234h6.543v3.486h-6.547l-0.021,27.857
		h-4.033v-27.857h-4.12v-3.486h4.12v-4.897c0-2.247,0.205-3.851,0.619-4.812c0.412-0.96,1.113-1.732,2.104-2.318
		c0.988-0.586,2.184-0.879,3.586-0.879C219.794,223.022,221.359,223.292,223.184,223.829z"/>
	<path fill="#FFB721" d="M255.19,256.872l3.399,1.787c-1.115,2.189-2.402,3.956-3.863,5.301c-1.462,1.344-3.105,2.367-4.932,3.067
		c-1.826,0.701-3.893,1.052-6.199,1.052c-5.113,0-9.111-1.676-11.996-5.027c-2.883-3.351-4.324-7.14-4.324-11.365
		c0-3.975,1.22-7.519,3.661-10.63c3.095-3.956,7.237-5.935,12.428-5.935c5.345,0,9.611,2.026,12.803,6.078
		c2.269,2.862,3.421,6.435,3.46,10.717h-28.203c0.076,3.642,1.24,6.626,3.489,8.954c2.25,2.328,5.028,3.491,8.336,3.491
		c1.597,0,3.148-0.276,4.658-0.832c1.509-0.555,2.792-1.291,3.851-2.21C252.815,260.402,253.96,258.92,255.19,256.872z
		 M255.19,248.432c-0.538-2.15-1.322-3.87-2.351-5.157c-1.029-1.286-2.39-2.323-4.082-3.111c-1.692-0.787-3.471-1.181-5.336-1.181
		c-3.076,0-5.721,0.989-7.932,2.968c-1.615,1.439-2.837,3.601-3.664,6.481H255.19z"/>
	<path fill="#FFB721" d="M265.619,235.929h4.119v4.58c1.229-1.805,2.525-3.154,3.89-4.047c1.363-0.894,2.784-1.34,4.264-1.34
		c1.114,0,2.305,0.355,3.572,1.066l-2.103,3.398c-0.846-0.364-1.557-0.547-2.133-0.547c-1.344,0-2.641,0.553-3.889,1.656
		c-1.248,1.104-2.199,2.819-2.852,5.143c-0.5,1.786-0.75,5.397-0.75,10.832v10.602h-4.119V235.929z"/>
</g>
</svg>
