<svg role="img" aria-labelledby="logo" focusable="false" id="f4f50dc8-013b-458f-bf1a-6b08a063b850" data-name="svg2" xmlns="http://www.w3.org/2000/svg" xmlns:xlink="http://www.w3.org/1999/xlink" viewBox="0 0 1044.4 237.53">
    <defs>
        <linearGradient id="a7d0d7ed-8114-4cd9-b5b2-d94cb4f25a2f" x1="126.97" x2="126.97" y2="127.85" gradientUnits="userSpaceOnUse">
            <stop offset="0" stop-color="#fff" />
            <stop offset="1" stop-color="#fff" stop-opacity="0.5" />
        </linearGradient>
    </defs>
    <title id="logo">AnySurfer voor een toegankelijker internet</title>
    <path d="M217.41,217.41a127.36,127.36,0,1,0-179.19.91s32.16-15.09,35.2-15.74,35.46.08,53.94.08c12.29,0,37.15-2.11,55-.38Z" fill="#1cbac9" />
    <path d="M183.78,205.49a96.37,96.37,0,1,0-112.9,0l57.24,19.25Z" fill="#fff" />
    <path d="M198.78,127.36a71.43,71.43,0,1,1-71.42-71.43A71.43,71.43,0,0,1,198.78,127.36Z" fill="#ffb721" />
    <path d="M128.12,223.83h-.07a56.88,56.88,0,0,1-29.74-9.7,50.29,50.29,0,0,0-52.8.14c-1.61,1-2.66,1.58-3.44,2a28.67,28.67,0,0,0-3.51,2.29A3,3,0,0,1,35,213.81a34.2,34.2,0,0,1,4.08-2.67c.76-.44,1.77-1,3.34-2,31.07-18.71,58.17-.69,59.31.09a51.7,51.7,0,0,0,26.37,8.6,51.64,51.64,0,0,0,26.29-8.55c.31-.22,29.54-20.74,59.54,0a62.64,62.64,0,0,0,5.71,3.68,3,3,0,0,1-2.9,5.2,67.72,67.72,0,0,1-6.19-4c-26.59-18.34-52.41-.21-52.67,0a56.72,56.72,0,0,1-29.71,9.69Z" fill="#fff" />
    <path d="M128.12,237.53H128A61.45,61.45,0,0,1,95.85,227c-1-.69-24.3-17.12-47.65,0a7.14,7.14,0,1,1-8.45-11.52c25.53-18.71,53.38-8.18,64.54,0a47.49,47.49,0,0,0,23.83,7.74,47.61,47.61,0,0,0,23.82-7.74c11.17-8.18,39-18.71,64.55,0A7.14,7.14,0,0,1,208,227c-23.35-17.12-46.69-.69-47.67,0a61.53,61.53,0,0,1-32.09,10.49Z" fill="#999" />
    <g id="f4f1e125-f0eb-4d4f-80fc-df7a4bad2ea3" data-name="text3686" style="isolation:isolate">
        <g style="isolation:isolate">
            <path d="M118.53,70.89h18.32l36.51,94.92H154.58l-7.42-19.56H108.43l-7.72,19.56H81.93Zm9.28,25.17-12.74,32.58h25.39Z" fill="#fff" />
        </g>
    </g>
    <path d="M2.76,100.91c31.36,16.67,74.08,26.94,121.17,26.94,50.21,0,95.45-11.67,127.26-30.33A127.38,127.38,0,0,0,2.76,100.91Z" opacity="0.5" fill="url(#a7d0d7ed-8114-4cd9-b5b2-d94cb4f25a2f)" />
    <path d="M360.06,74.29V138H352v-11a35.28,35.28,0,0,1-11.57,9.44,32.35,32.35,0,0,1-37.15-6.65A32.92,32.92,0,0,1,293.68,106a32.34,32.34,0,0,1,9.66-23.56,31.55,31.55,0,0,1,23.27-9.78A30.06,30.06,0,0,1,340.82,76,32.53,32.53,0,0,1,352,86V74.29Zm-32.78,6.27a24.71,24.71,0,0,0-21.86,12.82,25.85,25.85,0,0,0,0,25.75,25,25,0,0,0,9.28,9.57,24.23,24.23,0,0,0,12.49,3.42A25.64,25.64,0,0,0,340,128.73a23.84,23.84,0,0,0,9.28-9.19,26.26,26.26,0,0,0,3.24-13.05A25.37,25.37,0,0,0,345.22,88,24.16,24.16,0,0,0,327.28,80.56Z" fill="#999" />
    <path d="M378.52,74.29h8.2V85.72a34.31,34.31,0,0,1,10.9-9.82,26.77,26.77,0,0,1,13-3.25,22.64,22.64,0,0,1,12.69,3.63,21.72,21.72,0,0,1,8.17,9.79q2.64,6.15,2.64,19.16V138h-8.21V107.63q0-11-.91-14.71-1.42-6.33-5.47-9.52T409,80.21a20.24,20.24,0,0,0-13.33,4.92,23,23,0,0,0-7.76,12.19q-1.18,4.74-1.18,17.34V138h-8.2Z" fill="#999" />
    <path d="M444.85,74.29h8.67l21.91,49.09L496.7,74.29h8.73l-38,87.07h-8.67L471,133.21Z" fill="#999" />
    <path d="M548.09,81.26l-5.27,5.45q-6.59-6.37-12.87-6.38A9.7,9.7,0,0,0,523.11,83a8.15,8.15,0,0,0-2.85,6.15A9.07,9.07,0,0,0,522.61,95q2.34,2.88,9.86,6.74,9.16,4.74,12.45,9.14a16.68,16.68,0,0,1,3.23,10,18,18,0,0,1-5.52,13.3,18.84,18.84,0,0,1-13.79,5.45,24.08,24.08,0,0,1-10.53-2.4,22.94,22.94,0,0,1-8.31-6.62l5.16-5.86q6.29,7.08,13.33,7.09a12,12,0,0,0,8.4-3.17,9.78,9.78,0,0,0,3.47-7.44,9.59,9.59,0,0,0-2.29-6.27q-2.3-2.69-10.34-6.79-8.62-4.45-11.74-8.79a16.52,16.52,0,0,1-3.11-9.91,16.11,16.11,0,0,1,5-12.07,17.27,17.27,0,0,1,12.53-4.8Q539.16,72.65,548.09,81.26Z" fill="#ffb721" />
    <path d="M561.57,74.29h8.2v29.77q0,10.89,1.17,15a16.77,16.77,0,0,0,6.72,9.25,20.39,20.39,0,0,0,11.83,3.4,20,20,0,0,0,11.65-3.31,17,17,0,0,0,6.6-8.7Q609,116,609,104.06V74.29h8.38v31.29q0,13.19-3.08,19.86A23.41,23.41,0,0,1,605,135.9q-6.18,3.78-15.49,3.78T574,135.9a23.28,23.28,0,0,1-9.32-10.55q-3.07-6.76-3.07-20.36Z" fill="#ffb721" />
    <path d="M632.47,74.29h8.37v9.32a29.58,29.58,0,0,1,7.91-8.24,15.68,15.68,0,0,1,8.68-2.72,14.92,14.92,0,0,1,7.26,2.17l-4.27,6.91a11.47,11.47,0,0,0-4.34-1.11A11.83,11.83,0,0,0,648.17,84q-3.81,3.36-5.8,10.46-1.53,5.44-1.53,22V138h-8.37Z" fill="#ffb721" />
    <path d="M703.66,49.68v8a20.33,20.33,0,0,0-7.74-1.94,7.54,7.54,0,0,0-4,1A4.26,4.26,0,0,0,690,59a30.35,30.35,0,0,0-.41,6.71v8.61h13.31v7.09H689.52l0,56.66h-8.21V81.38H672.9V74.29h8.37v-10q0-6.86,1.26-9.79a10.06,10.06,0,0,1,4.28-4.71,14.08,14.08,0,0,1,7.3-1.79A34.83,34.83,0,0,1,703.66,49.68Z" fill="#ffb721" />
    <path d="M768.75,116.89l6.92,3.63a37.76,37.76,0,0,1-7.86,10.78,31,31,0,0,1-10,6.24,34.88,34.88,0,0,1-12.61,2.14q-15.6,0-24.4-10.22A34.54,34.54,0,0,1,712,106.34a34.05,34.05,0,0,1,7.45-21.62q9.44-12.07,25.27-12.07,16.31,0,26,12.36,6.91,8.73,7,21.8H720.42q.23,11.1,7.09,18.21a22.67,22.67,0,0,0,17,7.1,27.22,27.22,0,0,0,9.47-1.69,24.89,24.89,0,0,0,7.83-4.5A38.06,38.06,0,0,0,768.75,116.89Zm0-17.17A27.09,27.09,0,0,0,764,89.23a22.78,22.78,0,0,0-8.3-6.33,25.44,25.44,0,0,0-10.85-2.4,23.32,23.32,0,0,0-16.13,6q-4.94,4.39-7.45,13.18Z" fill="#ffb721" />
    <path d="M790,74.29h8.37v9.32a29.58,29.58,0,0,1,7.91-8.24,15.68,15.68,0,0,1,8.68-2.72,14.92,14.92,0,0,1,7.26,2.17l-4.27,6.91a11.47,11.47,0,0,0-4.34-1.11A11.83,11.83,0,0,0,805.67,84q-3.81,3.36-5.8,10.46-1.53,5.44-1.53,22V138H790Z" fill="#ffb721" />
    <path d="M300.84,196.42,306,211.6c.86,2.46,1.57,4.79,2.11,7h.16q.9-3.32,2.23-7l5.08-15.18h5l-10.32,27.1h-4.55l-9.95-27.1Z" fill="#282828" />
    <path d="M336,224.15a11.86,11.86,0,0,1-8.9-3.83q-3.63-3.69-3.68-10.12.06-6.88,3.84-10.63a12.18,12.18,0,0,1,9.17-3.78,12,12,0,0,1,9.16,3.83q3.42,3.75,3.47,10.06-.1,7.53-4.1,11a13.22,13.22,0,0,1-8.91,3.47Zm.16-3.66a7.16,7.16,0,0,0,5.76-3,12.61,12.61,0,0,0,2.23-7.61,14.42,14.42,0,0,0-1.78-7,6.74,6.74,0,0,0-6.1-3.44,6.94,6.94,0,0,0-6.08,3.33,13.59,13.59,0,0,0-2,7.25,11.82,11.82,0,0,0,2.23,7.44,6.87,6.87,0,0,0,5.65,3Z" fill="#282828" />
    <path d="M366.77,224.15a11.86,11.86,0,0,1-8.9-3.83q-3.63-3.69-3.68-10.12,0-6.88,3.84-10.63a12.16,12.16,0,0,1,9.17-3.78,12,12,0,0,1,9.16,3.83q3.42,3.75,3.47,10.06-.1,7.53-4.1,11a13.22,13.22,0,0,1-8.91,3.47Zm.16-3.66a7.16,7.16,0,0,0,5.76-3,12.61,12.61,0,0,0,2.23-7.61,14.42,14.42,0,0,0-1.78-7,6.74,6.74,0,0,0-6.1-3.44,6.94,6.94,0,0,0-6.08,3.33,13.59,13.59,0,0,0-2,7.25,11.82,11.82,0,0,0,2.23,7.44,6.87,6.87,0,0,0,5.65,3Z" fill="#282828" />
    <path d="M386.89,204.86c0-3.17-.07-6-.23-8.44h4.19l.21,5.29h.16a8.79,8.79,0,0,1,2.94-4.34,7,7,0,0,1,4.39-1.58,4.92,4.92,0,0,1,1.3.17v4.57a14.68,14.68,0,0,0-1.7-.09,5.41,5.41,0,0,0-4.17,1.75,8.05,8.05,0,0,0-2.23,4.54,15.41,15.41,0,0,0-.16,2.35v14.44h-4.77Z" fill="#282828" />
    <path d="M419.7,210.8q.21,4.94,2.76,7.19a9.11,9.11,0,0,0,6.21,2.25,16.05,16.05,0,0,0,2.39-.16c.72-.08,1.38-.17,2-.28a22.2,22.2,0,0,0,2.92-.9l.88,3.46a14.87,14.87,0,0,1-3.42,1.11,24.71,24.71,0,0,1-5.38.6q-6.07-.06-9.44-3.8t-3.47-9.85A15.88,15.88,0,0,1,418.48,200a11,11,0,0,1,9-4.21,10.14,10.14,0,0,1,5.3,1.23,9.63,9.63,0,0,1,3.31,3.25,15.18,15.18,0,0,1,1.75,4.1,22.92,22.92,0,0,1,.43,4.19,14.1,14.1,0,0,1-.16,2.35Zm14-3.49a9.73,9.73,0,0,0-1.25-5.24,5.77,5.77,0,0,0-2-2,6.21,6.21,0,0,0-3.32-.8,6.09,6.09,0,0,0-5.32,2.72,9.69,9.69,0,0,0-1.35,2.59,10.47,10.47,0,0,0-.4,1.35q-.16.69-.27,1.41Z" fill="#282828" />
    <path d="M447.75,210.8q.22,4.94,2.76,7.19a9.13,9.13,0,0,0,6.21,2.25,16,16,0,0,0,2.39-.16c.73-.08,1.38-.17,2-.28a22,22,0,0,0,2.91-.9l.88,3.46a14.54,14.54,0,0,1-3.42,1.11,24.63,24.63,0,0,1-5.38.6q-6.06-.06-9.43-3.8t-3.47-9.85A15.93,15.93,0,0,1,446.53,200a11,11,0,0,1,9-4.21,10.17,10.17,0,0,1,5.3,1.23,9.72,9.72,0,0,1,3.31,3.25,15.5,15.5,0,0,1,1.75,4.1,22.86,22.86,0,0,1,.42,4.19,13.1,13.1,0,0,1-.16,2.35Zm14-3.49a9.73,9.73,0,0,0-1.25-5.24,5.77,5.77,0,0,0-2-2,6.16,6.16,0,0,0-3.32-.8,6.06,6.06,0,0,0-5.31,2.72,9.44,9.44,0,0,0-1.36,2.59,12.33,12.33,0,0,0-.4,1.35c-.1.46-.19.93-.26,1.41Z" fill="#282828" />
    <path d="M473.13,203.74q0-4.12-.22-7.32h4.23l.27,4.41h.1a9.09,9.09,0,0,1,3.21-3.51,10.07,10.07,0,0,1,5.48-1.53,10.89,10.89,0,0,1,3.05.47,8.7,8.7,0,0,1,5.29,5.3,15.24,15.24,0,0,1,.93,5.77v16.19h-4.75V207.87a11.78,11.78,0,0,0-1.3-5.73,5.3,5.3,0,0,0-4.79-2.36,6.3,6.3,0,0,0-4,1.46,7.35,7.35,0,0,0-2.76,5.89v16.39h-4.76Z" fill="#282828" />
    <path d="M521.83,189.91v6.51h6.85v3.72h-6.85v14.69c-.09,3.48,1.1,5.24,3.59,5.27a8.74,8.74,0,0,0,2.76-.33l.21,3.7a12.22,12.22,0,0,1-4.2.68,6.81,6.81,0,0,1-5.15-2.08c-1.27-1.53-1.89-3.91-1.85-7.12V200.14h-4.08v-3.72h4.08v-5Z" fill="#282828" />
    <path d="M545,224.15a11.86,11.86,0,0,1-8.9-3.83q-3.63-3.69-3.68-10.12,0-6.88,3.84-10.63a12.16,12.16,0,0,1,9.17-3.78,12,12,0,0,1,9.16,3.83q3.42,3.75,3.47,10.06-.1,7.53-4.11,11a13.18,13.18,0,0,1-8.9,3.47Zm.16-3.66a7.18,7.18,0,0,0,5.76-3,12.54,12.54,0,0,0,2.22-7.61,14.41,14.41,0,0,0-1.77-7,6.76,6.76,0,0,0-6.11-3.44,6.93,6.93,0,0,0-6.07,3.33,13.59,13.59,0,0,0-2,7.25,11.88,11.88,0,0,0,2.22,7.44,6.89,6.89,0,0,0,5.66,3Z" fill="#282828" />
    <path d="M567.77,210.8q.21,4.94,2.76,7.19a9.09,9.09,0,0,0,6.21,2.25,15.91,15.91,0,0,0,2.38-.16c.73-.08,1.38-.17,2-.28a22.69,22.69,0,0,0,2.92-.9l.87,3.46a14.54,14.54,0,0,1-3.42,1.11,24.63,24.63,0,0,1-5.38.6q-6.06-.06-9.43-3.8t-3.47-9.85A15.93,15.93,0,0,1,566.54,200a11,11,0,0,1,9-4.21,10.17,10.17,0,0,1,5.3,1.23,9.63,9.63,0,0,1,3.31,3.25,15.5,15.5,0,0,1,1.75,4.1,22.86,22.86,0,0,1,.42,4.19,13.1,13.1,0,0,1-.16,2.35Zm14-3.49a9.72,9.72,0,0,0-1.24-5.24,5.86,5.86,0,0,0-2-2,6.22,6.22,0,0,0-3.33-.8,6.07,6.07,0,0,0-5.31,2.72,9.44,9.44,0,0,0-1.36,2.59,10.43,10.43,0,0,0-.39,1.35q-.17.69-.27,1.41Z" fill="#282828" />
    <path d="M615.59,219.58a27.84,27.84,0,0,1-.85,7.58,11.45,11.45,0,0,1-2.89,4.79,11.64,11.64,0,0,1-4.51,2.45,16.93,16.93,0,0,1-5.09.79,18.46,18.46,0,0,1-4.74-.62,11.32,11.32,0,0,1-4-1.61l1.2-3.78c1.8,1.39,4.38,2.12,7.72,2.19a8.43,8.43,0,0,0,6.08-2.24q2.34-2.24,2.39-7.26v-3h-.11a8.42,8.42,0,0,1-3.15,3.18,9.68,9.68,0,0,1-5.2,1.33,9.86,9.86,0,0,1-8-3.86,14.13,14.13,0,0,1-3.21-9.4q.06-6.94,3.69-10.67a11.16,11.16,0,0,1,8.19-3.69,9.68,9.68,0,0,1,5.43,1.46,8.83,8.83,0,0,1,2.79,3.14h.1l.16-4h4.21q-.21,2.63-.21,7.37ZM610.84,207a8.48,8.48,0,0,0-.27-2.19,8.17,8.17,0,0,0-2.28-3.77,7.14,7.14,0,0,0-10,1.24q-2.24,2.74-2.23,7.58a11.42,11.42,0,0,0,2,6.87,6.64,6.64,0,0,0,5.76,2.93,6.57,6.57,0,0,0,4.15-1.4,7.35,7.35,0,0,0,2.5-3.73,9.41,9.41,0,0,0,.37-2.64Z" fill="#282828" />
    <path d="M642.93,217a48.15,48.15,0,0,0,.39,6.49H639l-.43-3.39h-.15a8.66,8.66,0,0,1-3.11,2.77,10.54,10.54,0,0,1-4.93,1.25c-2.69-.09-4.68-.92-6-2.49a7.7,7.7,0,0,1-2-5.29q.11-10,15.8-10.07v-.56c0-.6,0-1.28-.1-2a6.9,6.9,0,0,0-.83-2,4.21,4.21,0,0,0-1.8-1.68,6.64,6.64,0,0,0-3.26-.58,12.55,12.55,0,0,0-6.9,2l-1.09-3.32a15.93,15.93,0,0,1,8.69-2.33,12.12,12.12,0,0,1,5,.91,7.64,7.64,0,0,1,3,2.57,9.59,9.59,0,0,1,1.57,3.54,21.07,21.07,0,0,1,.39,4.11Zm-4.64-7.35a22.76,22.76,0,0,0-3.88.11,13.88,13.88,0,0,0-3.64.91,7.24,7.24,0,0,0-2.6,1.87,4.81,4.81,0,0,0-1,3.24,4.35,4.35,0,0,0,4.46,4.73,6.24,6.24,0,0,0,4.31-1.46,6.56,6.56,0,0,0,2.17-3.08,5.81,5.81,0,0,0,.22-1.59Z" fill="#282828" />
    <path d="M651.44,203.74c0-2.75-.07-5.19-.23-7.32h4.24l.27,4.41h.1a9.09,9.09,0,0,1,3.21-3.51,10.07,10.07,0,0,1,5.48-1.53,10.82,10.82,0,0,1,3,.47,8.69,8.69,0,0,1,5.3,5.3,15.24,15.24,0,0,1,.93,5.77v16.19H669V207.87a11.67,11.67,0,0,0-1.3-5.73c-.93-1.53-2.53-2.32-4.78-2.36a6.3,6.3,0,0,0-4,1.46,7.5,7.5,0,0,0-2.45,3.59,7.71,7.71,0,0,0-.31,2.3v16.39h-4.76Z" fill="#282828" />
    <path d="M687.29,208.83h.12c.73-1,1.49-2.06,2.28-3.07l7.76-9.34h5.7L693,207.55l11.56,16h-5.81l-9-13-2.44,2.84v10.2h-4.76V183.76h4.76Z" fill="#282828" />
    <path d="M711.84,210.8q.21,4.94,2.76,7.19a9.13,9.13,0,0,0,6.21,2.25,16.05,16.05,0,0,0,2.39-.16c.72-.08,1.38-.17,2-.28a21.74,21.74,0,0,0,2.92-.9l.88,3.46a14.87,14.87,0,0,1-3.42,1.11,24.63,24.63,0,0,1-5.38.6q-6.07-.06-9.44-3.8t-3.47-9.85A15.88,15.88,0,0,1,710.62,200a11,11,0,0,1,9-4.21,10.14,10.14,0,0,1,5.3,1.23,9.55,9.55,0,0,1,3.31,3.25,15.18,15.18,0,0,1,1.75,4.1,22.07,22.07,0,0,1,.43,4.19,14.1,14.1,0,0,1-.16,2.35Zm14-3.49a9.73,9.73,0,0,0-1.25-5.24,5.77,5.77,0,0,0-2-2,6.21,6.21,0,0,0-3.32-.8,6.09,6.09,0,0,0-5.32,2.72,9.69,9.69,0,0,0-1.35,2.59,10.47,10.47,0,0,0-.4,1.35q-.17.69-.27,1.41Z" fill="#282828" />
    <path d="M737.22,183.76H742v39.76h-4.75Z" fill="#282828" />
    <path d="M752.6,191.39a2.49,2.49,0,0,1-2.12-1,3,3,0,0,1-.88-2.17,2.92,2.92,0,0,1,.88-2.22,2.81,2.81,0,0,1,2.22-.9,2.87,2.87,0,0,1,2.23.9,3.1,3.1,0,0,1,.8,2.22,3.16,3.16,0,0,1-.8,2.17,2.81,2.81,0,0,1-2.28,1Zm-2.28,32.13v-27.1h4.75v27.1Z" fill="#282828" />
    <path d="M757,231.51a7.55,7.55,0,0,0,5.19-2.08,7.14,7.14,0,0,0,1.49-3.31,44.56,44.56,0,0,0,.38-6.9v-22.8h4.75v24.69q.06,7.66-3.15,11.13a10.09,10.09,0,0,1-3.84,2.35,13.73,13.73,0,0,1-4.29.74Zm9.35-40.12a2.52,2.52,0,0,1-2.11-1,3,3,0,0,1-.87-2.17,2.94,2.94,0,0,1,.87-2.22,3.18,3.18,0,0,1,4.43,0,3,3,0,0,1,.82,2.22,3.23,3.23,0,0,1-.76,2.17,2.86,2.86,0,0,1-2.33,1Z" fill="#282828" />
    <path d="M781.79,208.83h.12c.73-1,1.49-2.06,2.28-3.07l7.76-9.34h5.7L787.5,207.55l11.56,16h-5.81l-9-13-2.44,2.84v10.2H777V183.76h4.76Z" fill="#282828" />
    <path d="M806.34,210.8q.21,4.94,2.76,7.19a9.13,9.13,0,0,0,6.21,2.25,16.05,16.05,0,0,0,2.39-.16c.72-.08,1.38-.17,2-.28a21.74,21.74,0,0,0,2.92-.9l.88,3.46a14.87,14.87,0,0,1-3.42,1.11,24.63,24.63,0,0,1-5.38.6q-6.07-.06-9.44-3.8t-3.47-9.85A15.88,15.88,0,0,1,805.12,200a11,11,0,0,1,9-4.21,10.14,10.14,0,0,1,5.3,1.23,9.55,9.55,0,0,1,3.31,3.25,15.18,15.18,0,0,1,1.75,4.1,22.07,22.07,0,0,1,.43,4.19,14.1,14.1,0,0,1-.16,2.35Zm14-3.49a9.73,9.73,0,0,0-1.25-5.24,5.77,5.77,0,0,0-2-2,6.21,6.21,0,0,0-3.32-.8,6.09,6.09,0,0,0-5.32,2.72,9.69,9.69,0,0,0-1.35,2.59,10.47,10.47,0,0,0-.4,1.35q-.17.69-.27,1.41Z" fill="#282828" />
    <path d="M831.77,204.86c0-3.17-.07-6-.23-8.44h4.19l.21,5.29h.16a8.86,8.86,0,0,1,2.94-4.34,7,7,0,0,1,4.4-1.58,4.85,4.85,0,0,1,1.29.17v4.57a14.68,14.68,0,0,0-1.7-.09,5.41,5.41,0,0,0-4.17,1.75,8.05,8.05,0,0,0-2.23,4.54,16.8,16.8,0,0,0-.16,2.35v14.44H831.7Z" fill="#282828" />
    <path d="M864.19,191.39a2.49,2.49,0,0,1-2.12-1,3,3,0,0,1-.88-2.17,2.92,2.92,0,0,1,.88-2.22,2.81,2.81,0,0,1,2.22-.9,2.87,2.87,0,0,1,2.23.9,3.1,3.1,0,0,1,.8,2.22,3.16,3.16,0,0,1-.8,2.17,2.81,2.81,0,0,1-2.28,1Zm-2.28,32.13v-27.1h4.75v27.1Z" fill="#282828" />
    <path d="M875,203.74q0-4.12-.23-7.32H879l.27,4.41h.1a9.17,9.17,0,0,1,3.21-3.51,10.07,10.07,0,0,1,5.48-1.53,10.89,10.89,0,0,1,3,.47,8.7,8.7,0,0,1,5.29,5.3,15.24,15.24,0,0,1,.93,5.77v16.19h-4.75V207.87a11.78,11.78,0,0,0-1.3-5.73,5.3,5.3,0,0,0-4.79-2.36,6.3,6.3,0,0,0-4,1.46,7.48,7.48,0,0,0-2.44,3.59,7.39,7.39,0,0,0-.32,2.3v16.39H875Z" fill="#282828" />
    <path d="M911.61,189.91v6.51h6.86v3.72h-6.86v14.69q-.14,5.22,3.59,5.27a8.74,8.74,0,0,0,2.76-.33l.22,3.7a12.33,12.33,0,0,1-4.21.68,6.85,6.85,0,0,1-5.15-2.08c-1.27-1.53-1.89-3.91-1.85-7.12V200.14h-4.08v-3.72H907v-5Z" fill="#282828" />
    <path d="M926.76,210.8q.21,4.94,2.76,7.19a9.13,9.13,0,0,0,6.21,2.25,16.05,16.05,0,0,0,2.39-.16c.73-.08,1.38-.17,2-.28a21.74,21.74,0,0,0,2.92-.9l.88,3.46a14.87,14.87,0,0,1-3.42,1.11,24.63,24.63,0,0,1-5.38.6q-6.08-.06-9.43-3.8t-3.48-9.85A15.88,15.88,0,0,1,925.54,200a11,11,0,0,1,9-4.21,10.13,10.13,0,0,1,5.29,1.23,9.66,9.66,0,0,1,3.32,3.25,15.47,15.47,0,0,1,1.74,4.1,22.07,22.07,0,0,1,.43,4.19,13.1,13.1,0,0,1-.16,2.35Zm14-3.49a9.73,9.73,0,0,0-1.25-5.24,5.77,5.77,0,0,0-2-2,6.19,6.19,0,0,0-3.32-.8,6.09,6.09,0,0,0-5.32,2.72,9.69,9.69,0,0,0-1.35,2.59,12.33,12.33,0,0,0-.4,1.35c-.11.46-.19.93-.27,1.41Z" fill="#282828" />
    <path d="M952.2,204.86q0-4.76-.23-8.44h4.18l.21,5.29h.16a8.86,8.86,0,0,1,2.94-4.34,7,7,0,0,1,4.4-1.58,5,5,0,0,1,1.3.17v4.57a14.8,14.8,0,0,0-1.7-.09,5.41,5.41,0,0,0-4.17,1.75,8.06,8.06,0,0,0-2.24,4.54,16.89,16.89,0,0,0-.15,2.35v14.44h-4.77Z" fill="#282828" />
    <path d="M970.68,203.74c0-2.75-.07-5.19-.23-7.32h4.24l.26,4.41h.11a9.06,9.06,0,0,1,3.2-3.51,10.13,10.13,0,0,1,5.49-1.53,10.82,10.82,0,0,1,3,.47,8.87,8.87,0,0,1,3,1.78,8.77,8.77,0,0,1,2.33,3.52,15.24,15.24,0,0,1,.93,5.77v16.19h-4.76V207.87a11.67,11.67,0,0,0-1.3-5.73,5.28,5.28,0,0,0-4.78-2.36,6.3,6.3,0,0,0-4,1.46,7.5,7.5,0,0,0-2.45,3.59,7.7,7.7,0,0,0-.32,2.3v16.39h-4.75Z" fill="#282828" />
    <path d="M1004.45,210.8q.21,4.94,2.76,7.19a9.09,9.09,0,0,0,6.21,2.25,15.91,15.91,0,0,0,2.38-.16c.73-.08,1.38-.17,2-.28a22.69,22.69,0,0,0,2.92-.9l.87,3.46a14.54,14.54,0,0,1-3.42,1.11,24.63,24.63,0,0,1-5.38.6q-6.06-.06-9.43-3.8t-3.47-9.85a15.93,15.93,0,0,1,3.36-10.47,11,11,0,0,1,9-4.21,10.17,10.17,0,0,1,5.3,1.23,9.72,9.72,0,0,1,3.31,3.25,15.5,15.5,0,0,1,1.75,4.1,22.86,22.86,0,0,1,.42,4.19,13.1,13.1,0,0,1-.16,2.35Zm14-3.49a9.64,9.64,0,0,0-1.25-5.24,5.74,5.74,0,0,0-2-2,6.22,6.22,0,0,0-3.33-.8,6.07,6.07,0,0,0-5.31,2.72,9.44,9.44,0,0,0-1.36,2.59,12.33,12.33,0,0,0-.4,1.35c-.1.46-.19.93-.26,1.41Z" fill="#282828" />
    <path d="M1035.56,189.91v6.51h6.86v3.72h-6.86v14.69q-.13,5.22,3.59,5.27a8.74,8.74,0,0,0,2.76-.33l.21,3.7a12.22,12.22,0,0,1-4.2.68,6.85,6.85,0,0,1-5.15-2.08c-1.27-1.53-1.89-3.91-1.85-7.12V200.14h-4.08v-3.72h4.08v-5Z" fill="#282828" />
</svg>