<svg height="800" width="750" xmlns="http://www.w3.org/2000/svg" xmlns:xlink="http://www.w3.org/1999/xlink"><radialGradient id="a" cx="22.922%" cy="10.105%" r="98.143%"><stop offset="0" stop-color="#00986c"/><stop offset="0" stop-color="#00996d"/><stop offset="1" stop-color="#007d59"/></radialGradient><mask id="b" fill="#fff"><path d="m33.067 23.814c14.333 0 31.684 11.316 31.684 30.804 0 6.538-3.646 8.801-10.31 8.801l-37.341-.251c1.51 9.178 8.802 14.082 17.98 14.082 3.88 0 6.004-.74 8.907-1.98l1.528-.66c2.264-1.006 4.024-2.012 6.161-2.012 3.52 0 5.658 2.514 5.658 5.658 0 2.011-.88 4.274-4.023 6.915-4.652 3.269-10.939 5.406-18.86 5.406-16.723 0-34.451-10.31-34.451-33.193 0-22.631 18.734-33.57 33.067-33.57zm0 14.334c-7.166 0-14.836 4.023-15.968 13.704h31.433c-1.257-9.681-8.298-13.704-15.465-13.704zm58.466 44.257c0 4.526-3.772 8.172-8.172 8.172-4.527 0-8.299-3.646-8.299-8.172v-74.056c0-4.4 3.772-8.172 8.299-8.172 4.4 0 8.172 3.772 8.172 8.172zm43.378-58.59c14.334 0 31.684 11.315 31.684 30.803 0 6.538-3.646 8.801-10.31 8.801l-37.341-.251c1.508 9.178 8.8 14.082 17.979 14.082 3.88 0 6.004-.74 8.907-1.98l1.529-.66c2.263-1.006 4.023-2.012 6.16-2.012 3.521 0 5.658 2.514 5.658 5.658 0 2.011-.88 4.274-4.023 6.915-4.652 3.269-10.939 5.406-18.86 5.406-16.722 0-34.45-10.31-34.45-33.193 0-22.631 18.734-33.57 33.067-33.57zm0 14.333c-7.166 0-14.836 4.023-15.967 13.704h31.432c-1.257-9.681-8.298-13.704-15.465-13.704zm89.522-13.957c4.4 0 7.67 3.395 7.67 7.419 0 1.508-.504 2.766-1.006 3.771l-22.13 48.532c-1.885 3.898-4.4 6.287-8.297 6.287-3.898 0-6.413-2.389-8.173-6.287l-22.254-48.532c-.377-1.005-.88-2.263-.88-3.771 0-4.024 3.269-7.419 7.544-7.419 3.143 0 6.16 1.76 7.92 5.784l15.843 37.216 16.141-37.624c1.67-3.735 4.587-5.376 7.622-5.376zm43.504-.377c14.333 0 31.684 11.316 31.684 30.804 0 6.538-3.646 8.801-10.31 8.801l-37.342-.251c1.509 9.178 8.801 14.082 17.98 14.082 3.88 0 6.004-.74 8.907-1.98l1.528-.66c2.263-1.006 4.023-2.012 6.16-2.012 3.521 0 5.659 2.514 5.659 5.658 0 2.011-.88 4.274-4.024 6.915-4.652 3.269-10.938 5.406-18.86 5.406-16.721 0-34.45-10.31-34.45-33.193 0-22.631 18.734-33.57 33.068-33.57zm0 14.334c-7.167 0-14.836 4.023-15.968 13.704h31.433c-1.258-9.681-8.299-13.704-15.465-13.704zm78.708-14.208c12.7 0 23.889 8.298 23.889 30.05v28.415c0 4.526-3.772 8.172-8.298 8.172-4.4 0-8.173-3.646-8.173-8.172v-28.415c0-11.316-5.909-15.968-13.327-15.968-10.957 0-14.84 9.901-15.533 13.726l-.058.356v30.3c0 4.527-3.772 8.173-8.172 8.173-4.526 0-8.298-3.646-8.298-8.172v-49.915c0-4.527 3.772-8.299 8.298-8.299 4.4 0 8.172 3.772 8.172 8.299v6.286c.503-4.526 7.922-14.836 21.5-14.836zm154.526.251c4.274 0 7.795 3.395 7.795 7.796 0 1.131-.754 2.389-1.132 3.772l-16.991 48.563c-1.441 3.88-4.37 5.878-7.652 5.878-3.646 0-6.538-2.137-8.172-6.287l-15.34-35.958-15.339 35.958c-1.634 4.15-4.652 6.287-8.046 6.287-3.646 0-6.538-2.137-7.921-6.287l-16.723-48.153c-.502-1.383-1.131-2.64-1.131-3.772 0-4.4 3.395-7.796 7.795-7.796 2.892 0 6.035 1.76 6.915 4.401l12.07 37.845 14.962-37.216c1.383-3.27 3.898-5.03 7.419-5.03 3.646 0 6.16 1.76 7.418 5.03l14.962 37.216 12.07-37.845c.88-2.64 4.023-4.4 7.04-4.4zm67.895 0c4.401 0 8.424 3.772 8.424 8.173v50.166c0 4.527-4.023 8.173-8.424 8.173-4.526 0-8.298-3.646-8.298-8.173v-2.388c-1.006 3.897-7.67 10.687-18.608 10.687-13.83 0-30.427-10.687-30.427-33.57 0-22.38 16.722-33.445 30.427-33.445 8.927 0 16.094 4.778 18.608 10.687v-2.137c0-4.4 3.772-8.173 8.298-8.173zm-23.888 52.43c7.04 0 16.344-5.155 16.344-19.362 0-14.208-9.304-19.363-16.344-19.363-8.299 0-16.974 6.538-16.974 19.363 0 12.95 8.675 19.362 16.974 19.362zm97.442-52.43c4.4 0 7.67 3.395 7.67 7.419 0 1.508-.503 2.766-1.006 3.771l-32.564 73.301c-1.76 4.024-4.778 5.784-7.922 5.784-4.274 0-7.292-3.395-7.292-7.418 0-1.207.322-2.253.644-3.138l.236-.634 7.167-16.345-23.386-51.55c-.377-1.005-.88-2.263-.88-3.771 0-4.024 3.269-7.419 7.544-7.419 3.143 0 6.16 1.76 7.92 5.784l16.849 38.977 17.225-38.977c1.76-4.023 4.652-5.784 7.795-5.784zm36.589-.377c8.55 0 16.722 3.395 20.871 9.179l.284.425c.749 1.132 1.728 2.777 1.728 5.107 0 4.023-2.766 6.16-6.412 6.16-2.39 0-4.778-.88-6.916-3.52-2.514-2.892-5.406-4.275-9.052-4.275-4.904 0-7.795 2.39-7.795 5.91l.006.314c.082 1.912.993 4.29 6.096 5.844l8.105 2.391.938.266c9.639 2.805 17.544 7.628 17.544 18.468 0 13.83-12.824 20.494-25.9 20.494-11.316 0-18.105-4.778-21.626-9.052l-.65-.863c-1.037-1.4-2.744-3.996-2.744-7.058 0-2.766 1.76-6.287 6.286-6.287 2.987 0 4.806 1.655 6.228 3.338l.561.685c3.647 4.527 7.67 5.784 11.945 5.784 6.16 0 9.555-2.64 9.555-6.16 0-2.083-1.313-4.763-6.963-6.527l-7.621-2.275c-12.7-3.52-17.98-10.31-17.98-19.237 0-12.573 11.567-19.11 23.512-19.11z" fill="#fff" fill-rule="evenodd"/></mask><g fill="none" fill-rule="evenodd"><g transform="translate(111 7.5)"><path d="m264 528c-145.803 0-264-118.197-264-264s118.197-264 264-264 264 118.197 264 264-118.197 264-264 264z" fill="url(#a)"/><g transform="translate(44.29 172.578)"><path d="m302.662 0c10.197 0 18.812 7.962 19.611 18.127l.079 99.846 84.235-116.513 31.907 23.078-120.03 165.986c-3.765 5.07-9.525 7.978-15.802 7.978-10.856 0-19.69-8.831-19.69-19.69v-98.75l-80.342 110.328c-3.706 5.08-9.648 8.112-15.9 8.112-10.856 0-19.69-8.831-19.69-19.69v-98.02l-19.676 27.361-32.002-22.948 55.493-77.127c3.705-5.058 9.641-8.078 15.875-8.078 10.857 0 19.69 8.834 19.69 19.69v98.61l81.02-111.096a19.633 19.633 0 0 1 15.222-7.204zm-231.294 0c10.856 0 19.69 8.833 19.69 19.69v159.123c0 10.857-8.834 19.69-19.69 19.69s-19.69-8.833-19.69-19.69v-98.02l-19.676 27.36-32.002-22.948 55.494-77.127c3.705-5.058 9.64-8.078 15.874-8.078z" fill="#fff"/><path d="m233.14 81.665c-9.082 15.531-15.437 27.744-19.065 36.638-3.629 8.895-6.182 17.11-7.66 24.647l-.017-24.647zm115.736-.364c-8.928 15.54-15.207 27.757-18.835 36.652-3.629 8.894-6.182 17.11-7.66 24.647l-.017-24.647 26.512-36.653zm-270.454-37.151c-9.082 15.534-15.436 27.746-19.065 36.64-3.628 8.894-6.181 17.11-7.66 24.647l-.017-24.647 26.742-36.638zm115.346 0c-9.081 15.532-15.436 27.744-19.065 36.639-3.628 8.894-6.181 17.11-7.659 24.647l-.018-24.647 26.742-36.638zm115.955-.735c-9.082 15.53-15.437 27.743-19.065 36.638-3.629 8.894-6.182 17.11-7.66 24.647l-.017-24.647z" fill="#000" opacity=".211"/></g></g><g fill="#000" opacity=".848"><path d="m-8.49492151-8.31794398h721.59618051v131.27886898h-721.59618051z" mask="url(#b)" transform="translate(22.5 602.375)"/><path d="m12.719 2.036c14.827 0 23.972 9.007 23.972 24.388 0 15.104-9.145 24.111-23.972 24.111h-10.531c-1.109 0-1.87-.762-1.87-1.87v-44.759c0-1.109.761-1.87 1.87-1.87zm0 45.381c12.956 0 20.508-7.413 20.508-20.993 0-13.857-7.552-21.27-20.508-21.27h-8.868v42.263zm32.702-43.372c-.97 0-1.801-.83-1.801-1.87 0-.97.831-1.802 1.801-1.802s1.801.832 1.801 1.802c0 1.04-.831 1.87-1.801 1.87zm0 10.255c.97 0 1.732.83 1.732 1.8v33.05c0 .97-.762 1.8-1.732 1.8s-1.732-.83-1.732-1.8v-33.05c0-.97.762-1.8 1.732-1.8zm43.164 27.99h.07v7.552c0 11.501-9.562 14.896-16.906 14.896-4.426 0-7.724-1.247-9.509-2.257l-.399-.237c-.485-.277-.9-.762-.9-1.455 0-.762.623-1.455 1.455-1.455.485 0 .97.208 1.385.416 1.802 1.108 4.92 1.87 8.107 1.87 6.928 0 13.302-3.325 13.302-11.778v-.208c-.07-.138-.07-.346-.07-.485v-6.859c-2.77 5.89-8.244 8.73-13.717 8.73-7.76 0-17.252-6.097-17.252-18.499 0-12.332 9.492-18.43 17.252-18.43 5.473 0 11.016 2.633 13.718 8.245v-6.235c0-.97.762-1.801 1.732-1.801 1.04 0 1.732.83 1.732 1.8zm-16.974 5.612c6.443 0 13.718-5.057 13.718-15.38 0-10.601-7.275-15.313-13.718-15.313-6.236 0-13.996 4.85-13.996 15.312 0 10.531 7.76 15.381 13.996 15.381zm27.159-43.857c-.97 0-1.801-.83-1.801-1.87 0-.97.83-1.802 1.8-1.802s1.802.832 1.802 1.802c0 1.04-.831 1.87-1.801 1.87zm0 10.255c.97 0 1.732.83 1.732 1.8v33.05c0 .97-.762 1.8-1.732 1.8s-1.732-.83-1.732-1.8v-33.05c0-.97.762-1.8 1.732-1.8zm21.824 32.979c1.109-.416 2.079.277 2.079 1.178 0 1.87-3.063 2.36-5.163 2.418l-.45.007c-2.91 0-5.611-1.178-5.611-5.612v-27.645h-3.81c-.832 0-1.525-.554-1.525-1.593 0-.97.693-1.525 1.524-1.525h3.81v-6.79c0-.9.763-1.732 1.733-1.732s1.732.832 1.732 1.733v6.79h6.166c.832 0 1.594.554 1.594 1.524 0 1.039-.762 1.593-1.594 1.593h-6.166v27.16c0 2.286 1.04 3.048 2.91 3.048.916 0 1.623-.168 2.25-.373zm24.18-33.187c5.474 0 11.017 2.632 13.719 8.244v-6.235c0-.97.762-1.801 1.732-1.801 1.04 0 1.732.83 1.732 1.8v33.05c0 .9-.762 1.8-1.732 1.8s-1.732-.9-1.732-1.8v-6.86c-2.772 5.89-8.245 8.73-13.718 8.73-7.76 0-17.252-6.097-17.252-18.499 0-12.332 9.492-18.43 17.252-18.43zm.208 33.81c6.444 0 13.719-5.057 13.719-15.38 0-10.601-7.275-15.313-13.719-15.313-6.235 0-13.995 4.85-13.995 15.312 0 10.531 7.76 15.381 13.995 15.381zm28.753 1.178c0 .9-.762 1.802-1.732 1.802s-1.732-.901-1.732-1.802v-46.282c0-.9.762-1.732 1.732-1.732s1.732.832 1.732 1.732zm66.72-.693c.07.208.14.485.14.762 0 .901-.693 1.733-1.663 1.733-.832 0-1.455-.555-1.732-1.109l-5.89-13.58h-24.388l-5.889 13.58c-.277.554-.9 1.109-1.732 1.109-.97 0-1.663-.832-1.663-1.733 0-.277.07-.554.139-.762l19.607-45.38c.347-.763.762-1.317 1.732-1.317s1.386.554 1.732 1.316l19.608 45.381zm-32.285-15.173h21.894l-10.948-25.358zm67.691 8.106c.9 0 1.594.624 1.594 1.525 0 .415-.208.831-.555 1.385-3.117 4.434-8.106 6.652-13.371 6.652-8.107 0-17.737-6.097-17.737-18.36 0-12.333 9.63-18.43 17.737-18.43 5.265 0 10.254 2.217 13.371 6.65.347.555.555.97.555 1.387 0 .9-.693 1.524-1.594 1.524-.623 0-1.178-.347-1.732-1.178l-.25-.36c-2.392-3.29-6.399-4.906-10.212-4.906-6.582 0-14.411 4.85-14.411 15.312 0 10.393 7.83 15.243 14.411 15.243 3.95 0 8.106-1.732 10.462-5.266l.151-.215c.505-.676 1.014-.963 1.581-.963zm37.206 0c.9 0 1.593.624 1.593 1.525 0 .415-.208.831-.554 1.385-3.118 4.434-8.106 6.652-13.372 6.652-8.106 0-17.737-6.097-17.737-18.36 0-12.333 9.63-18.43 17.737-18.43 5.266 0 10.254 2.217 13.372 6.65.346.555.554.97.554 1.387 0 .9-.693 1.524-1.593 1.524-.624 0-1.178-.347-1.732-1.178l-.25-.36c-2.392-3.29-6.4-4.906-10.212-4.906-6.582 0-14.411 4.85-14.411 15.312 0 10.393 7.829 15.243 14.41 15.243 3.95 0 8.107-1.732 10.463-5.266l.15-.215c.505-.676 1.015-.963 1.582-.963zm24.596-27.228c7.898 0 17.251 6.166 17.251 17.736 0 1.317-.831 2.148-2.286 2.148h-28.892c.485 9.492 7.83 13.857 14.412 13.857 3.602 0 7.205-1.178 9.63-3.395.832-.762 1.247-1.04 1.732-1.04.9 0 1.455.624 1.455 1.456 0 .554-.208.97-1.04 1.801-2.978 2.84-7.412 4.227-11.777 4.227-8.66 0-17.945-5.959-17.945-18.36 0-12.333 9.561-18.43 17.46-18.43zm0 3.117c-6.028 0-13.303 4.365-13.927 13.719h27.853c-.555-9.354-7.899-13.719-13.926-13.719zm35.473-3.117c5.474 0 9.492 2.425 11.57 6.027.416.763.486 1.178.486 1.594 0 .831-.693 1.455-1.594 1.455-.762 0-1.178-.416-1.94-1.663-1.386-2.217-4.088-4.296-8.73-4.296-5.196 0-8.314 2.633-8.314 6.444 0 3.118 2.217 5.265 6.929 6.443l4.503 1.109c6.72 1.663 10.6 4.295 10.6 9.492 0 6.513-6.374 10.185-13.51 10.185-5.681 0-11.016-2.564-12.54-6.582-.208-.555-.485-1.109-.485-1.802 0-1.108.692-1.801 1.524-1.801.9 0 1.316.485 1.663 1.524 1.316 3.741 5.265 5.473 9.838 5.473 5.196 0 10.115-2.147 10.115-6.79 0-3.88-3.048-5.404-6.928-6.374l-5.958-1.524c-6.305-1.593-9.146-5.057-9.146-9.284 0-5.473 4.85-9.63 11.917-9.63zm31.386 0c5.473 0 9.492 2.425 11.57 6.027.416.763.485 1.178.485 1.594 0 .831-.693 1.455-1.593 1.455-.762 0-1.178-.416-1.94-1.663-1.386-2.217-4.088-4.296-8.73-4.296-5.196 0-8.314 2.633-8.314 6.444 0 3.118 2.217 5.265 6.928 6.443l4.504 1.109c6.72 1.663 10.6 4.295 10.6 9.492 0 6.513-6.374 10.185-13.51 10.185-5.681 0-11.016-2.564-12.54-6.582-.208-.555-.486-1.109-.486-1.802 0-1.108.693-1.801 1.525-1.801.9 0 1.316.485 1.662 1.524 1.317 3.741 5.266 5.473 9.839 5.473 5.196 0 10.115-2.147 10.115-6.79 0-3.88-3.048-5.404-6.928-6.374l-5.959-1.524c-6.304-1.593-9.145-5.057-9.145-9.284 0-5.473 4.85-9.63 11.917-9.63zm21.894-10.047c-.97 0-1.802-.83-1.802-1.87 0-.97.832-1.802 1.802-1.802s1.801.832 1.801 1.802c0 1.04-.832 1.87-1.801 1.87zm0 10.255c.97 0 1.732.83 1.732 1.8v33.05c0 .97-.763 1.8-1.732 1.8-.97 0-1.733-.83-1.733-1.8v-33.05c0-.97.763-1.8 1.733-1.8zm27.297-.208c7.76 0 17.252 6.097 17.252 18.43 0 12.401-9.492 18.498-17.252 18.498-5.473 0-10.946-2.84-13.718-8.73v6.86c0 .9-.762 1.8-1.732 1.8s-1.732-.9-1.732-1.8v-46.283c0-.97.762-1.802 1.732-1.802s1.732.832 1.732 1.802v19.468c2.702-5.612 8.245-8.244 13.718-8.244zm-.207 33.81c6.235 0 13.995-4.85 13.995-15.38 0-10.463-7.76-15.313-13.995-15.313-6.444 0-13.719 4.712-13.719 15.312 0 10.324 7.275 15.381 13.719 15.381zm26.189-43.857c-.97 0-1.801-.83-1.801-1.87 0-.97.831-1.802 1.801-1.802s1.801.832 1.801 1.802c0 1.04-.83 1.87-1.801 1.87zm0 10.255c.97 0 1.732.83 1.732 1.8v33.05c0 .97-.762 1.8-1.732 1.8s-1.732-.83-1.732-1.8v-33.05c0-.97.762-1.8 1.732-1.8zm13.58 34.78c0 .9-.762 1.802-1.732 1.802s-1.732-.901-1.732-1.802v-46.282c0-.9.762-1.732 1.732-1.732s1.732.832 1.732 1.732zm10.115-45.035c-.97 0-1.801-.83-1.801-1.87 0-.97.831-1.802 1.801-1.802s1.802.832 1.802 1.802c0 1.04-.832 1.87-1.802 1.87zm0 10.255c.97 0 1.732.83 1.732 1.8v33.05c0 .97-.762 1.8-1.732 1.8s-1.732-.83-1.732-1.8v-33.05c0-.97.762-1.8 1.732-1.8zm21.825 32.979c1.108-.416 2.078.277 2.078 1.178 0 1.87-3.063 2.36-5.163 2.418l-.449.007c-2.91 0-5.612-1.178-5.612-5.612v-27.645h-3.81c-.832 0-1.525-.554-1.525-1.593 0-.97.693-1.525 1.525-1.525h3.81v-6.79c0-.9.762-1.732 1.732-1.732s1.732.832 1.732 1.733v6.79h6.167c.831 0 1.593.554 1.593 1.524 0 1.039-.762 1.593-1.593 1.593h-6.167v27.16c0 2.286 1.04 3.048 2.91 3.048 1.178 0 2.01-.277 2.772-.554zm36.443-32.98c.9 0 1.663.763 1.663 1.663 0 .277-.07.485-.139.693l-19.676 46.351c-.277.693-.9 1.04-1.594 1.04-.9 0-1.524-.763-1.524-1.663 0-.277.07-.485.139-.693l5.127-12.125-14.065-32.91c-.07-.208-.139-.416-.139-.693 0-.9.762-1.662 1.663-1.662.693 0 1.316.346 1.594 1.039l12.679 30.07 12.679-30.07c.277-.693.9-1.04 1.593-1.04zm28.753 33.118h22.933c.832 0 1.594.693 1.594 1.525 0 .9-.762 1.593-1.594 1.593h-24.596c-1.108 0-1.87-.762-1.87-1.87v-45.035c0-.97.762-1.802 1.801-1.802.97 0 1.732.832 1.732 1.802zm46.975-33.325c5.473 0 11.016 2.632 13.718 8.244v-6.235c0-.97.762-1.801 1.732-1.801 1.04 0 1.732.83 1.732 1.8v33.05c0 .9-.762 1.8-1.732 1.8s-1.732-.9-1.732-1.8v-6.86c-2.771 5.89-8.245 8.73-13.718 8.73-7.76 0-17.252-6.097-17.252-18.499 0-12.332 9.492-18.43 17.252-18.43zm.208 33.81c6.443 0 13.718-5.057 13.718-15.38 0-10.601-7.275-15.313-13.718-15.313-6.236 0-13.996 4.85-13.996 15.312 0 10.531 7.76 15.381 13.996 15.381zm42.47-33.81c7.76 0 17.253 6.097 17.253 18.43 0 12.401-9.492 18.498-17.252 18.498-5.474 0-10.947-2.84-13.718-8.73v6.86c0 .9-.763 1.8-1.733 1.8s-1.732-.9-1.732-1.8v-46.283c0-.97.763-1.802 1.732-1.802.97 0 1.733.832 1.733 1.802v19.468c2.702-5.612 8.244-8.244 13.718-8.244zm-.207 33.81c6.236 0 13.995-4.85 13.995-15.38 0-10.463-7.76-15.313-13.995-15.313-6.443 0-13.718 4.712-13.718 15.312 0 10.324 7.275 15.381 13.718 15.381z" transform="translate(27.243 726.507)"/></g></g></svg>