<svg width="950" height="205" xmlns="http://www.w3.org/2000/svg" xmlns:xlink="http://www.w3.org/1999/xlink"><defs><radialGradient cx="22.922%" cy="10.105%" fx="22.922%" fy="10.105%" r="98.143%" id="a"><stop stop-color="#00986C" offset="0%"/><stop stop-color="#00996D" offset="0%"/><stop stop-color="#007D59" offset="100%"/></radialGradient><path d="M278.46 68.993c14.334 0 31.685 11.316 31.685 30.804 0 6.538-3.646 8.801-10.31 8.801l-37.342-.251c1.509 9.178 8.801 14.081 17.98 14.081 3.88 0 6.004-.739 8.907-1.98l1.528-.66c2.263-1.006 4.023-2.012 6.16-2.012 3.521 0 5.659 2.515 5.659 5.658 0 2.012-.88 4.275-4.024 6.915-4.652 3.27-10.938 5.407-18.86 5.407-16.721 0-34.45-10.31-34.45-33.193 0-22.632 18.735-33.57 33.068-33.57zm0 14.333c-7.166 0-14.835 4.023-15.967 13.705h31.433c-1.258-9.682-8.299-13.705-15.465-13.705zm58.467 44.257c0 4.527-3.772 8.173-8.173 8.173-4.526 0-8.298-3.646-8.298-8.173V53.528c0-4.4 3.772-8.173 8.298-8.173 4.4 0 8.173 3.772 8.173 8.173v74.055zm43.378-58.59c14.333 0 31.684 11.316 31.684 30.804 0 6.538-3.646 8.801-10.31 8.801l-37.342-.251c1.509 9.178 8.801 14.081 17.98 14.081 3.88 0 6.004-.739 8.907-1.98l1.528-.66c2.264-1.006 4.024-2.012 6.161-2.012 3.52 0 5.658 2.515 5.658 5.658 0 2.012-.88 4.275-4.023 6.915-4.652 3.27-10.939 5.407-18.86 5.407-16.722 0-34.45-10.31-34.45-33.193 0-22.632 18.734-33.57 33.067-33.57zm0 14.333c-7.167 0-14.836 4.023-15.968 13.705h31.433c-1.258-9.682-8.298-13.705-15.465-13.705zm89.521-13.956c4.401 0 7.67 3.395 7.67 7.418 0 1.509-.503 2.766-1.006 3.772l-22.128 48.532c-1.886 3.898-4.4 6.287-8.299 6.287-3.897 0-6.412-2.39-8.172-6.287L415.636 80.56c-.377-1.006-.88-2.263-.88-3.772 0-4.023 3.27-7.418 7.544-7.418 3.144 0 6.161 1.76 7.921 5.784l15.842 37.216 16.142-37.624c1.669-3.735 4.587-5.376 7.621-5.376zm43.504-.377c14.334 0 31.684 11.316 31.684 30.804 0 6.538-3.646 8.801-10.31 8.801l-37.341-.251c1.508 9.178 8.8 14.081 17.979 14.081 3.88 0 6.004-.739 8.907-1.98l1.529-.66c2.263-1.006 4.023-2.012 6.16-2.012 3.521 0 5.658 2.515 5.658 5.658 0 2.012-.88 4.275-4.023 6.915-4.652 3.27-10.939 5.407-18.86 5.407-16.722 0-34.45-10.31-34.45-33.193 0-22.632 18.734-33.57 33.067-33.57zm0 14.333c-7.166 0-14.836 4.023-15.967 13.705h31.432c-1.257-9.682-8.298-13.705-15.465-13.705zM592.04 69.12c12.699 0 23.889 8.298 23.889 30.05v28.414c0 4.527-3.772 8.173-8.298 8.173-4.401 0-8.173-3.646-8.173-8.173V99.168c0-11.316-5.91-15.968-13.327-15.968-10.957 0-14.84 9.902-15.533 13.726l-.058.356v30.301c0 4.527-3.772 8.173-8.172 8.173-4.527 0-8.299-3.646-8.299-8.173V77.668c0-4.526 3.772-8.298 8.299-8.298 4.4 0 8.172 3.772 8.172 8.298v6.287c.503-4.527 7.921-14.836 21.5-14.836zm154.525.251c4.275 0 7.796 3.395 7.796 7.795 0 1.132-.755 2.39-1.132 3.772L736.237 129.5c-1.442 3.881-4.37 5.879-7.652 5.879-3.646 0-6.538-2.138-8.173-6.287l-15.339-35.959-15.339 35.959c-1.634 4.15-4.652 6.287-8.047 6.287-3.646 0-6.538-2.138-7.92-6.287l-16.723-48.155c-.503-1.383-1.131-2.64-1.131-3.772 0-4.4 3.394-7.795 7.795-7.795 2.892 0 6.035 1.76 6.915 4.4l12.07 37.846 14.962-37.217c1.383-3.269 3.898-5.029 7.418-5.029 3.646 0 6.161 1.76 7.418 5.03l14.962 37.216 12.07-37.845c.88-2.64 4.024-4.401 7.041-4.401zm67.896 0c4.4 0 8.424 3.772 8.424 8.173v50.166c0 4.526-4.023 8.172-8.424 8.172-4.526 0-8.298-3.646-8.298-8.172v-2.389c-1.006 3.898-7.67 10.687-18.608 10.687-13.83 0-30.427-10.687-30.427-33.57 0-22.38 16.722-33.444 30.427-33.444 8.927 0 16.093 4.778 18.608 10.687v-2.137c0-4.401 3.772-8.173 8.298-8.173zm-23.889 52.43c7.041 0 16.345-5.155 16.345-19.363 0-14.207-9.304-19.362-16.345-19.362-8.298 0-16.973 6.538-16.973 19.362 0 12.95 8.675 19.363 16.973 19.363zm97.443-52.43c4.4 0 7.67 3.395 7.67 7.418 0 1.509-.504 2.766-1.007 3.772l-32.564 73.3c-1.76 4.024-4.778 5.785-7.92 5.785-4.276 0-7.293-3.395-7.293-7.419 0-1.207.322-2.253.644-3.138l.236-.634 7.167-16.344-23.386-51.55c-.378-1.006-.88-2.263-.88-3.772 0-4.023 3.269-7.418 7.543-7.418 3.144 0 6.161 1.76 7.921 5.784l16.848 38.976 17.225-38.976c1.76-4.024 4.652-5.784 7.796-5.784zm36.589-.377c8.55 0 16.722 3.395 20.87 9.178l.285.426c.749 1.132 1.728 2.777 1.728 5.106 0 4.024-2.767 6.161-6.413 6.161-2.389 0-4.778-.88-6.915-3.52-2.515-2.892-5.406-4.275-9.053-4.275-4.903 0-7.795 2.389-7.795 5.91l.007.313c.082 1.913.993 4.29 6.096 5.845l8.105 2.39.938.266C942.094 99.6 950 104.421 950 115.262c0 13.83-12.824 20.494-25.9 20.494-11.316 0-18.106-4.778-21.626-9.053l-.65-.863c-1.037-1.399-2.745-3.995-2.745-7.058 0-2.766 1.76-6.286 6.287-6.286 2.987 0 4.806 1.655 6.228 3.337l.561.686c3.646 4.526 7.67 5.784 11.944 5.784 6.161 0 9.556-2.64 9.556-6.161 0-2.083-1.313-4.762-6.963-6.527l-7.622-2.274c-12.698-3.52-17.98-10.31-17.98-19.237 0-12.573 11.568-19.111 23.513-19.111z" id="b"/></defs><g fill="none" fill-rule="evenodd"><g transform="translate(0 2)"><path d="M100.5 201C44.995 201 0 156.005 0 100.5S44.995 0 100.5 0 201 44.995 201 100.5 156.005 201 100.5 201z" fill="url(#a)"/><g transform="translate(16.86 65.697)"><path d="M115.218 0c3.882 0 7.161 3.03 7.466 6.9l.03 38.01L154.78.556l12.147 8.785-45.694 63.188c-1.433 1.93-3.625 3.037-6.015 3.037-4.133 0-7.495-3.362-7.495-7.495V30.478l-30.586 42a7.52 7.52 0 0 1-6.053 3.088c-4.133 0-7.495-3.362-7.495-7.495V30.756l-7.49 10.416-12.183-8.736L65.04 3.076A7.524 7.524 0 0 1 71.084 0c4.134 0 7.496 3.363 7.496 7.496v37.539l30.843-42.292A7.474 7.474 0 0 1 115.218 0zm-88.05 0c4.133 0 7.496 3.363 7.496 7.495v60.576c0 4.133-3.363 7.495-7.495 7.495-4.133 0-7.496-3.362-7.496-7.495V30.756l-7.49 10.416L0 32.436 21.125 3.075A7.523 7.523 0 0 1 27.17 0z" fill="#FFF"/><path d="M88.752 31.088c-3.457 5.913-5.876 10.562-7.258 13.948-1.38 3.386-2.353 6.513-2.915 9.383l-.007-9.383 10.18-13.948zm44.059-.138c-3.4 5.916-5.79 10.567-7.17 13.952-1.382 3.386-2.354 6.514-2.916 9.383l-.007-9.383 10.093-13.952zM29.854 16.808c-3.457 5.912-5.877 10.561-7.258 13.947-1.381 3.386-2.353 6.514-2.916 9.383l-.006-9.383 10.18-13.947zm43.91 0c-3.457 5.912-5.876 10.561-7.258 13.947-1.38 3.386-2.353 6.514-2.915 9.383l-.007-9.383 10.18-13.947zm44.142-.28c-3.457 5.912-5.877 10.561-7.258 13.947-1.381 3.386-2.353 6.514-2.916 9.383l-.006-9.383 10.18-13.947z" fill="#000" opacity=".211"/></g></g><use fill="#000" xlink:href="#b"/></g></svg>